<svg xmlns="http://www.w3.org/2000/svg" viewBox="0 0 512 452.12"><defs><style>.a{fill:#595959;}.b{fill:#ce852e;}.c{fill:#bc782e;}.d{fill:#fff;}.e{fill:#821717;}</style></defs><path class="a" d="M123.81,391.69c-6.66.06-13.32.08-20,.19a23.4,23.4,0,0,0-15.94,5.95c-1.8,1.63-2,2.89-.08,4.63a23.39,23.39,0,0,0,15.4,6.07c1.42.06,2.85,0,4.28,0q148.87,0,297.74.05c11.22,0,19.25-3.39,23.18-12.54,1.58,15.62,2.05,22.87-14.66,29.08H98.06c-7.39-2.71-13.32-6.61-14.76-13.51-.63-3-.42-6.2-.42-9.3q0-178.81,0-357.63c0-8.92,5.86-14.27,15.23-17.73h25.75Z"/><path class="b" d="M123.81,27h289c12.11,3.33,16.37,10.31,16.35,20.53q-.33,162.33,0,324.65c0,10.77-8.05,19.6-24.13,19.54-92-.34-184-.16-276-.17-1.74,0-3.48-.11-5.23-.17Q123.82,209.16,123.81,27Z"/><path class="c" d="M428.06,43c0,9.07-.24,219.27,0,328.91,0,10.91-8.05,19.86-24.13,19.8-92-.34-184-.17-276-.18-1.74,0-5.22-.16-5.22-.16S428.07,33.91,428.06,43Z"/><path class="d" d="M227.47,224a18.23,18.23,0,0,1-9.13-2.25,15.23,15.23,0,0,1-6.12-6.35,20.29,20.29,0,0,1-2.15-9.55,21.76,21.76,0,0,1,1.22-7.45,16.4,16.4,0,0,1,3.53-5.75,15.14,15.14,0,0,1,5.52-3.65,19.66,19.66,0,0,1,7.13-1.25,18.19,18.19,0,0,1,9.17,2.23,15.37,15.37,0,0,1,6.1,6.3,19.91,19.91,0,0,1,2.18,9.52,21.61,21.61,0,0,1-1.23,7.5,16.23,16.23,0,0,1-3.55,5.78,15.27,15.27,0,0,1-5.52,3.67A19.37,19.37,0,0,1,227.47,224Zm0-6.55a8.69,8.69,0,0,0,5-1.4,8.88,8.88,0,0,0,3.2-4,15.53,15.53,0,0,0,1.13-6.2c0-3.66-.83-6.51-2.48-8.52a8.38,8.38,0,0,0-6.87-3,9.05,9.05,0,0,0-5,1.35,8.44,8.44,0,0,0-3.2,3.93,16,16,0,0,0-1.1,6.27q0,5.46,2.47,8.53A8.29,8.29,0,0,0,227.47,217.42Z"/><path class="d" d="M255,223.47a4.06,4.06,0,0,1-3-1.05,4.12,4.12,0,0,1-1.05-3V192.32a4.14,4.14,0,0,1,1.05-3,4.06,4.06,0,0,1,3-1.05h17.45a3,3,0,0,1,2.27.78,3,3,0,0,1,.78,2.22,2.72,2.72,0,0,1-3.05,3.05H258.37v8.25h12.95a3.06,3.06,0,0,1,2.3.78,3.12,3.12,0,0,1,.75,2.27,2.68,2.68,0,0,1-3.05,3H258.37v8.85h14.05a2.73,2.73,0,0,1,3.05,3.05,3,3,0,0,1-.78,2.23,3.09,3.09,0,0,1-2.27.77Z"/><path class="d" d="M285,223.87a3.82,3.82,0,0,1-2.85-1,4,4,0,0,1-1-2.93V192.17a4,4,0,0,1,1-2.95,4,4,0,0,1,2.88-1h12.2q5.85,0,9.07,2.85a10.06,10.06,0,0,1,3.23,8,10.78,10.78,0,0,1-1.45,5.7,9.5,9.5,0,0,1-4.2,3.7,15.4,15.4,0,0,1-6.65,1.3l.45-.8h2a6.75,6.75,0,0,1,3.67,1,7.88,7.88,0,0,1,2.68,3.1l3.15,5.8a4.18,4.18,0,0,1,.67,2.43,2.61,2.61,0,0,1-.92,1.9,3.78,3.78,0,0,1-2.5.72,4.82,4.82,0,0,1-2.68-.67,5.84,5.84,0,0,1-1.82-2.13l-4.85-8.8a3.75,3.75,0,0,0-1.78-1.92,6.51,6.51,0,0,0-2.67-.48h-3.75v10a4.1,4.1,0,0,1-1,2.93A3.85,3.85,0,0,1,285,223.87Zm3.9-19.65h7a7.27,7.27,0,0,0,4.62-1.25,5.18,5.18,0,0,0,0-7.45,7.33,7.33,0,0,0-4.62-1.25h-7Z"/><polygon class="e" points="357.56 26.97 357.56 95.29 380.5 75.65 403.45 95.47 403.45 26.97 357.56 26.97"/></svg>