<svg xmlns="http://www.w3.org/2000/svg" viewBox="0 0 512 452.12"><defs><style>.a{fill:#595959;}.b{fill:#ce852e;}.c{fill:#bc782e;}.d{fill:#fff;}.e{fill:#821717;}</style></defs><path class="a" d="M123.81,391.69c-6.66.06-13.32.08-20,.19a23.4,23.4,0,0,0-15.94,5.95c-1.8,1.63-2,2.89-.08,4.63a23.39,23.39,0,0,0,15.4,6.07c1.42.06,2.85,0,4.28,0q148.87,0,297.74.05c11.22,0,19.25-3.39,23.18-12.54,1.58,15.62,2.05,22.87-14.66,29.08H98.06c-7.39-2.71-13.32-6.61-14.76-13.51-.63-3-.42-6.2-.42-9.3q0-178.81,0-357.63c0-8.92,5.86-14.27,15.23-17.73h25.75Z"/><path class="b" d="M123.81,27h289c12.11,3.33,16.37,10.31,16.35,20.53q-.33,162.33,0,324.65c0,10.77-8.05,19.6-24.13,19.54-92-.34-184-.16-276-.17-1.74,0-3.48-.11-5.23-.17Q123.82,209.16,123.81,27Z"/><path class="c" d="M428.06,43c0,9.07-.24,219.27,0,328.91,0,10.91-8.05,19.86-24.13,19.8-92-.34-184-.17-276-.18-1.74,0-5.22-.16-5.22-.16S428.07,33.91,428.06,43Z"/><path class="d" d="M183.36,223.87a3.49,3.49,0,0,1-2.6-.92,3.7,3.7,0,0,1-.9-2.68V191.42a3.5,3.5,0,0,1,1-2.7,3.78,3.78,0,0,1,2.67-.9,4.51,4.51,0,0,1,2.38.55,4.74,4.74,0,0,1,1.57,1.9L199,211.37h-1.6L209,190.27a4.84,4.84,0,0,1,1.58-1.9,4.47,4.47,0,0,1,2.37-.55,3.55,3.55,0,0,1,2.58.9,3.59,3.59,0,0,1,.92,2.7v28.85a3.7,3.7,0,0,1-.9,2.68,3.55,3.55,0,0,1-2.65.92,3.5,3.5,0,0,1-2.57-.92,3.62,3.62,0,0,1-.93-2.68v-20.2h1.1l-9.35,16.65a4,4,0,0,1-1.22,1.4,3.07,3.07,0,0,1-1.73.45,3.32,3.32,0,0,1-1.85-.47,4.57,4.57,0,0,1-1.25-1.38L185.71,200h1.15v20.25A3.77,3.77,0,0,1,186,223,3.47,3.47,0,0,1,183.36,223.87Z"/><path class="d" d="M234.71,224a14.28,14.28,0,0,1-6.85-1.55,11.12,11.12,0,0,1-4.52-4.42,13.7,13.7,0,0,1-1.63-6.83,14.77,14.77,0,0,1,.9-5.3,11,11,0,0,1,2.63-4,11.33,11.33,0,0,1,4.15-2.55,15.43,15.43,0,0,1,5.32-.88,14.52,14.52,0,0,1,6.88,1.55,11.16,11.16,0,0,1,4.55,4.43,13.54,13.54,0,0,1,1.62,6.77,14.69,14.69,0,0,1-.92,5.35,11.1,11.1,0,0,1-2.63,4,11.49,11.49,0,0,1-4.1,2.53A15.77,15.77,0,0,1,234.71,224Zm0-5.6a4.82,4.82,0,0,0,4.75-3.15,10,10,0,0,0,.7-4.05q0-3.64-1.5-5.37a5,5,0,0,0-3.95-1.73,5.31,5.31,0,0,0-2.82.75,4.87,4.87,0,0,0-1.9,2.35,10.34,10.34,0,0,0-.68,4q0,3.71,1.5,5.45A4.88,4.88,0,0,0,234.71,218.37Z"/><path class="d" d="M264.16,224a14.28,14.28,0,0,1-6.85-1.55,11.12,11.12,0,0,1-4.52-4.42,13.59,13.59,0,0,1-1.63-6.83,14.77,14.77,0,0,1,.9-5.3,11,11,0,0,1,2.63-4,11.33,11.33,0,0,1,4.15-2.55,15.38,15.38,0,0,1,5.32-.88A14.52,14.52,0,0,1,271,200a11.16,11.16,0,0,1,4.55,4.43,13.54,13.54,0,0,1,1.62,6.77,14.9,14.9,0,0,1-.92,5.35,11.1,11.1,0,0,1-2.63,4,11.49,11.49,0,0,1-4.1,2.53A15.77,15.77,0,0,1,264.16,224Zm0-5.6a4.82,4.82,0,0,0,4.75-3.15,10,10,0,0,0,.7-4.05q0-3.64-1.5-5.37a5,5,0,0,0-3.95-1.73,5.28,5.28,0,0,0-2.82.75,4.87,4.87,0,0,0-1.9,2.35,10.34,10.34,0,0,0-.68,4q0,3.71,1.5,5.45A4.88,4.88,0,0,0,264.16,218.37Z"/><path class="d" d="M291.36,224a10.37,10.37,0,0,1-5.62-1.52A10.08,10.08,0,0,1,282,218a16.07,16.07,0,0,1-1.35-6.85,15.77,15.77,0,0,1,1.35-6.8,10.34,10.34,0,0,1,3.78-4.4,10.22,10.22,0,0,1,5.62-1.55,9.56,9.56,0,0,1,5.15,1.4,6.8,6.8,0,0,1,3,3.65H299V191.62a3.91,3.91,0,0,1,1-2.85,3.83,3.83,0,0,1,2.8-1,3.92,3.92,0,0,1,2.8,1,3.76,3.76,0,0,1,1,2.85v28.45a3.83,3.83,0,0,1-1,2.83,3.69,3.69,0,0,1-2.73,1,3.41,3.41,0,0,1-3.8-3.8v-3.4l.55,2a6.69,6.69,0,0,1-3,3.9A9.5,9.5,0,0,1,291.36,224Zm2.25-5.6a4.82,4.82,0,0,0,4.75-3.15,10,10,0,0,0,.7-4.05q0-3.64-1.5-5.37a5,5,0,0,0-3.95-1.73,5.28,5.28,0,0,0-2.82.75,4.87,4.87,0,0,0-1.9,2.35,10.34,10.34,0,0,0-.68,4q0,3.71,1.5,5.45A4.88,4.88,0,0,0,293.61,218.37Z"/><path class="d" d="M321.16,224c-3,0-5.18-.81-6.65-2.45s-2.2-4.08-2.2-7.35V191.62a3.76,3.76,0,0,1,1-2.85,3.84,3.84,0,0,1,2.75-1,3.92,3.92,0,0,1,2.83,1,3.83,3.83,0,0,1,1,2.85v22.25a4.4,4.4,0,0,0,.88,3,3,3,0,0,0,2.32,1,5,5,0,0,0,.78-.05l.72-.1a1.11,1.11,0,0,1,1.13.53,5.55,5.55,0,0,1,.32,2.32,3.67,3.67,0,0,1-.6,2.25,2.7,2.7,0,0,1-1.85,1l-1.1.1C322,224,321.59,224,321.16,224Z"/><path class="d" d="M341.46,224a16.54,16.54,0,0,1-7.47-1.55,11.07,11.07,0,0,1-4.8-4.42,13.3,13.3,0,0,1-1.68-6.83,13,13,0,0,1,1.63-6.62,11.94,11.94,0,0,1,4.47-4.48,13.65,13.65,0,0,1,11.33-.77,10.46,10.46,0,0,1,3.67,2.5,10.63,10.63,0,0,1,2.35,3.95,15.89,15.89,0,0,1,.8,5.17,1.71,1.71,0,0,1-.6,1.43,2.81,2.81,0,0,1-1.75.47H333.76v-3.9h12.55l-.8.7a8.55,8.55,0,0,0-.6-3.42,4.57,4.57,0,0,0-1.72-2.1,5,5,0,0,0-2.78-.73,5.7,5.7,0,0,0-3.15.85,5.42,5.42,0,0,0-2,2.48,9.66,9.66,0,0,0-.7,3.87v.4c0,2.54.58,4.4,1.75,5.6a7.08,7.08,0,0,0,5.3,1.8,14.36,14.36,0,0,0,2.73-.3,12.47,12.47,0,0,0,2.92-.95,3.29,3.29,0,0,1,2.05-.35,2.51,2.51,0,0,1,1.38.83,2.42,2.42,0,0,1,.57,1.47,3.27,3.27,0,0,1-.37,1.68,3.33,3.33,0,0,1-1.43,1.37,13,13,0,0,1-3.9,1.43A21.38,21.38,0,0,1,341.46,224Z"/><polygon class="e" points="361.86 26.97 361.86 95.29 384.8 75.65 407.74 95.47 407.74 26.97 361.86 26.97"/></svg>