<svg xmlns="http://www.w3.org/2000/svg" viewBox="0 0 512 452.12"><defs><style>.a{fill:#595959;}.b{fill:#ce852e;}.c{fill:#bc782e;}.d{fill:#fff;}.e{fill:#821717;}</style></defs><path class="a" d="M123.81,391.69c-6.66.06-13.32.08-20,.19a23.4,23.4,0,0,0-15.94,5.95c-1.8,1.63-2,2.89-.08,4.63a23.39,23.39,0,0,0,15.4,6.07c1.42.06,2.85,0,4.28,0q148.87,0,297.74.05c11.22,0,19.25-3.39,23.18-12.54,1.58,15.62,2.05,22.87-14.66,29.08H98.06c-7.39-2.71-13.32-6.61-14.76-13.51-.63-3-.42-6.2-.42-9.3q0-178.81,0-357.63c0-8.92,5.86-14.27,15.23-17.73h25.75Z"/><path class="b" d="M123.81,27h289c12.11,3.33,16.37,10.31,16.35,20.53q-.33,162.33,0,324.65c0,10.77-8.05,19.6-24.13,19.54-92-.34-184-.16-276-.17-1.74,0-3.48-.11-5.23-.17Q123.82,209.16,123.81,27Z"/><path class="c" d="M428.06,43c0,9.07-.24,219.27,0,328.91,0,10.91-8.05,19.86-24.13,19.8-92-.34-184-.17-276-.18-1.74,0-5.22-.16-5.22-.16S428.07,33.91,428.06,43Z"/><path class="d" d="M168.57,209.44a3.82,3.82,0,0,1-2.87-1.05,4,4,0,0,1-1-2.9V178a4,4,0,0,1,1-2.95,3.85,3.85,0,0,1,2.85-1,3.91,3.91,0,0,1,2.9,1,4,4,0,0,1,1,2.95v24.85h13.4a3.3,3.3,0,0,1,2.45.85,3.24,3.24,0,0,1,.85,2.4,3,3,0,0,1-3.3,3.3Z"/><path class="d" d="M205.17,209.94a16.68,16.68,0,0,1-7.47-1.55,11,11,0,0,1-4.8-4.43,13.26,13.26,0,0,1-1.68-6.82,13,13,0,0,1,1.63-6.63,12,12,0,0,1,4.47-4.47,12.64,12.64,0,0,1,6.45-1.65,12.83,12.83,0,0,1,4.88.87,10.44,10.44,0,0,1,6,6.45,16,16,0,0,1,.8,5.18,1.69,1.69,0,0,1-.6,1.42,2.74,2.74,0,0,1-1.75.48H197.47v-3.9H210l-.8.7a8.6,8.6,0,0,0-.6-3.43,4.67,4.67,0,0,0-1.72-2.1,5.06,5.06,0,0,0-2.78-.72,5.62,5.62,0,0,0-3.15.85,5.44,5.44,0,0,0-2,2.47,9.74,9.74,0,0,0-.7,3.88v.4q0,3.8,1.75,5.6a7.08,7.08,0,0,0,5.3,1.8,14.36,14.36,0,0,0,2.73-.3,13,13,0,0,0,2.92-.95,3.22,3.22,0,0,1,2.05-.35,2.5,2.5,0,0,1,1.38.82A2.44,2.44,0,0,1,215,205a3.23,3.23,0,0,1-.37,1.67,3.41,3.41,0,0,1-1.43,1.38,12.69,12.69,0,0,1-3.9,1.42A20.64,20.64,0,0,1,205.17,209.94Z"/><path class="d" d="M228.22,209.94a11,11,0,0,1-4.9-1,8.18,8.18,0,0,1-3.3-2.8,7.09,7.09,0,0,1-1.2-4.07,6.12,6.12,0,0,1,1.4-4.25,8.46,8.46,0,0,1,4.53-2.25,39.26,39.26,0,0,1,8.32-.7h2.65v3.9h-2.6A24.7,24.7,0,0,0,229,199a4.33,4.33,0,0,0-2.23,1,2.4,2.4,0,0,0-.7,1.78,2.94,2.94,0,0,0,1,2.25,3.93,3.93,0,0,0,2.77.9,5.23,5.23,0,0,0,2.6-.65,4.58,4.58,0,0,0,1.8-1.8,5.54,5.54,0,0,0,.65-2.75V194a4.11,4.11,0,0,0-1-3.13,5.09,5.09,0,0,0-3.45-.92,15.48,15.48,0,0,0-2.87.3,17.85,17.85,0,0,0-3.48,1.1,3,3,0,0,1-2,.2,2.21,2.21,0,0,1-1.28-1,3,3,0,0,1-.45-1.62,3.17,3.17,0,0,1,.5-1.7,3.06,3.06,0,0,1,1.7-1.2,23.42,23.42,0,0,1,4.38-1.28,21.3,21.3,0,0,1,3.77-.37,15.75,15.75,0,0,1,6.38,1.12,7.58,7.58,0,0,1,3.75,3.48,12.91,12.91,0,0,1,1.22,5.95V206a4,4,0,0,1-.92,2.82,3.94,3.94,0,0,1-5.2,0A3.93,3.93,0,0,1,235,206v-1.85l.35.35a6.18,6.18,0,0,1-1.27,2.85,6.71,6.71,0,0,1-2.45,1.87A8.2,8.2,0,0,1,228.22,209.94Z"/><path class="d" d="M251.62,209.84a4,4,0,0,1-2.9-1,3.75,3.75,0,0,1-1-2.82V188.29a3.85,3.85,0,0,1,1-2.83,3.74,3.74,0,0,1,2.77-1,3.59,3.59,0,0,1,2.7,1,3.92,3.92,0,0,1,1,2.83v2.6h-.5a7.39,7.39,0,0,1,2.63-4.65,9.27,9.27,0,0,1,5.37-1.85,2.18,2.18,0,0,1,1.88.62,3.92,3.92,0,0,1,.77,2.43,3,3,0,0,1-3.1,3.5L261,191a6.54,6.54,0,0,0-4.22,1.65,5.52,5.52,0,0,0-1.38,4.05V206a3.89,3.89,0,0,1-.95,2.82A3.8,3.8,0,0,1,251.62,209.84Z"/><path class="d" d="M272.07,209.84a3.44,3.44,0,0,1-3.75-3.8V188.29a3.85,3.85,0,0,1,1-2.83,3.74,3.74,0,0,1,2.77-1,3.59,3.59,0,0,1,2.7,1,3.92,3.92,0,0,1,1,2.83v2.85l-.55-1.6a8,8,0,0,1,3.4-3.83,10.15,10.15,0,0,1,5.15-1.32,9.4,9.4,0,0,1,4.88,1.12,6.92,6.92,0,0,1,2.82,3.43,15.36,15.36,0,0,1,.95,5.8V206a3.89,3.89,0,0,1-.95,2.82,3.74,3.74,0,0,1-2.8,1,3.84,3.84,0,0,1-2.77-1,3.69,3.69,0,0,1-1-2.82V195a5.86,5.86,0,0,0-.92-3.68,3.4,3.4,0,0,0-2.78-1.12,5,5,0,0,0-3.82,1.5,5.57,5.57,0,0,0-1.43,4V206Q275.87,209.83,272.07,209.84Z"/><path class="d" d="M301.82,180.44a4.5,4.5,0,0,1-3.15-1,3.68,3.68,0,0,1-1.1-2.85,3.54,3.54,0,0,1,1.1-2.78,4.59,4.59,0,0,1,3.15-1,4.79,4.79,0,0,1,3.23,1,3.48,3.48,0,0,1,1.12,2.78,3.62,3.62,0,0,1-1.12,2.85A4.7,4.7,0,0,1,301.82,180.44Zm0,29.4a3.56,3.56,0,0,1-2.75-1.08,4.23,4.23,0,0,1-1-3V188.59a4.18,4.18,0,0,1,1-3,4.31,4.31,0,0,1,5.57,0,4.22,4.22,0,0,1,1,3v17.15a4.41,4.41,0,0,1-.95,3A3.59,3.59,0,0,1,301.82,209.84Z"/><path class="d" d="M315.22,209.84a3.44,3.44,0,0,1-3.75-3.8V188.29a3.84,3.84,0,0,1,1-2.83,3.78,3.78,0,0,1,2.78-1,3.59,3.59,0,0,1,2.7,1,3.92,3.92,0,0,1,.95,2.83v2.85l-.55-1.6a8,8,0,0,1,3.4-3.83,10.15,10.15,0,0,1,5.15-1.32,9.36,9.36,0,0,1,4.87,1.12,6.94,6.94,0,0,1,2.83,3.43,15.36,15.36,0,0,1,.95,5.8V206a3.89,3.89,0,0,1-.95,2.82,3.74,3.74,0,0,1-2.8,1,3.88,3.88,0,0,1-2.78-1,3.72,3.72,0,0,1-1-2.82V195a5.79,5.79,0,0,0-.93-3.68,3.37,3.37,0,0,0-2.77-1.12,5,5,0,0,0-3.83,1.5,5.56,5.56,0,0,0-1.42,4V206Q319,209.83,315.22,209.84Z"/><path class="d" d="M353,218.94a29.93,29.93,0,0,1-5.18-.43,16.62,16.62,0,0,1-4.37-1.32,3.09,3.09,0,0,1-1.63-1.28,2.77,2.77,0,0,1-.37-1.72,3.61,3.61,0,0,1,.57-1.6,2.51,2.51,0,0,1,1.3-1,2.34,2.34,0,0,1,1.73.13,16,16,0,0,0,4.07,1.3,20.91,20.91,0,0,0,3.23.3,6.94,6.94,0,0,0,4.8-1.45,5.74,5.74,0,0,0,1.6-4.45v-3.85h.45a7,7,0,0,1-3.1,3.8,9.83,9.83,0,0,1-5.2,1.4,10.62,10.62,0,0,1-5.75-1.53,10.19,10.19,0,0,1-3.8-4.25,14.27,14.27,0,0,1-1.35-6.42,15.47,15.47,0,0,1,.77-5,11.27,11.27,0,0,1,2.2-3.85,9.77,9.77,0,0,1,3.45-2.48,11.26,11.26,0,0,1,4.48-.87,9.59,9.59,0,0,1,5.22,1.42,6.64,6.64,0,0,1,3,3.68l-.45,1.7v-2.9a3.43,3.43,0,0,1,3.75-3.8,3.66,3.66,0,0,1,2.75,1,3.92,3.92,0,0,1,.95,2.83v18.25q0,6.19-3.35,9.3T353,218.94Zm.15-15.75a5.13,5.13,0,0,0,4.85-3.08,8.21,8.21,0,0,0,.7-3.52,7.13,7.13,0,0,0-1.5-4.83,5.09,5.09,0,0,0-4.05-1.72,5.37,5.37,0,0,0-3,.8,5.27,5.27,0,0,0-1.9,2.25,8.25,8.25,0,0,0-.67,3.5,7.22,7.22,0,0,0,1.5,4.82A5,5,0,0,0,353.17,203.19Z"/><path class="d" d="M226.52,269.84a3.79,3.79,0,0,1-2.85-1,4,4,0,0,1-1-2.92v-25.3h-8.8a3.3,3.3,0,0,1-2.45-.85,3.24,3.24,0,0,1-.85-2.4,3.09,3.09,0,0,1,.85-2.33,3.38,3.38,0,0,1,2.45-.82h25.4a3.31,3.31,0,0,1,2.4.82,3.09,3.09,0,0,1,.85,2.33,3,3,0,0,1-3.25,3.25h-8.85v25.3a4,4,0,0,1-1,2.92A3.8,3.8,0,0,1,226.52,269.84Z"/><path class="d" d="M254,269.94a16.75,16.75,0,0,1-7.48-1.55,11.14,11.14,0,0,1-4.8-4.43,13.36,13.36,0,0,1-1.67-6.82,13.13,13.13,0,0,1,1.62-6.63,12.09,12.09,0,0,1,4.48-4.47,13.69,13.69,0,0,1,11.32-.78,10.42,10.42,0,0,1,6,6.45,16,16,0,0,1,.8,5.18,1.69,1.69,0,0,1-.6,1.42,2.74,2.74,0,0,1-1.75.48H246.32v-3.9h12.55l-.8.7a8.6,8.6,0,0,0-.6-3.43,4.69,4.69,0,0,0-1.73-2.1,5,5,0,0,0-2.77-.72,5.62,5.62,0,0,0-3.15.85,5.44,5.44,0,0,0-2,2.47,9.74,9.74,0,0,0-.7,3.88v.4q0,3.8,1.75,5.6a7.08,7.08,0,0,0,5.3,1.8,14.18,14.18,0,0,0,2.72-.3,12.87,12.87,0,0,0,2.93-1,3.22,3.22,0,0,1,2.05-.35,2.47,2.47,0,0,1,1.95,2.3,3.15,3.15,0,0,1-.38,1.67,3.32,3.32,0,0,1-1.42,1.38,12.69,12.69,0,0,1-3.9,1.42A20.64,20.64,0,0,1,254,269.94Z"/><path class="d" d="M280.67,269.94a14.78,14.78,0,0,1-6.95-1.55,11,11,0,0,1-4.58-4.45,13.82,13.82,0,0,1-1.62-6.85,14.73,14.73,0,0,1,.9-5.3,10.75,10.75,0,0,1,2.62-4,11.74,11.74,0,0,1,4.18-2.53,16.51,16.51,0,0,1,8.77-.5,14.17,14.17,0,0,1,3.48,1.23,3.16,3.16,0,0,1,1.32,1.35,3,3,0,0,1,.28,1.67,3,3,0,0,1-.63,1.55,2.46,2.46,0,0,1-1.32.9,2.5,2.5,0,0,1-1.8-.27,10.1,10.1,0,0,0-2-.78,7.65,7.65,0,0,0-1.93-.27,7,7,0,0,0-2.65.47,5.14,5.14,0,0,0-1.92,1.35,6.2,6.2,0,0,0-1.21,2.18,9.6,9.6,0,0,0-.42,2.95,7.79,7.79,0,0,0,1.63,5.22,5.62,5.62,0,0,0,4.57,1.93,7.7,7.7,0,0,0,1.9-.25,8.36,8.36,0,0,0,2-.8,2.34,2.34,0,0,1,1.78-.25,2.67,2.67,0,0,1,1.29.92,2.71,2.71,0,0,1,.58,1.55,3.47,3.47,0,0,1-.33,1.68,2.65,2.65,0,0,1-1.32,1.25,11.83,11.83,0,0,1-3.38,1.25A16.72,16.72,0,0,1,280.67,269.94Z"/><path class="d" d="M296.37,269.84a3.44,3.44,0,0,1-3.75-3.8V237.59a3.73,3.73,0,0,1,1-2.85,3.84,3.84,0,0,1,2.75-1,3.89,3.89,0,0,1,2.82,1,3.8,3.8,0,0,1,1,2.85v11.95h-.7a8,8,0,0,1,3.4-3.83,10.15,10.15,0,0,1,5.15-1.32,9.57,9.57,0,0,1,4.87,1.1,6.78,6.78,0,0,1,2.83,3.4,15.49,15.49,0,0,1,.95,5.85V266a3.89,3.89,0,0,1-.95,2.82,3.74,3.74,0,0,1-2.8,1,3.88,3.88,0,0,1-2.78-1,3.72,3.72,0,0,1-1-2.82V255a5.79,5.79,0,0,0-.93-3.68,3.37,3.37,0,0,0-2.77-1.12,5,5,0,0,0-3.83,1.5,5.56,5.56,0,0,0-1.42,4V266Q300.17,269.83,296.37,269.84Z"/><polygon class="e" points="359.77 26.98 359.77 95.3 382.72 75.66 405.66 95.48 405.66 26.98 359.77 26.98"/></svg>