<svg xmlns="http://www.w3.org/2000/svg" viewBox="0 0 512 452.12"><defs><style>.a{fill:#ce852e;}.b{fill:#595959;}.c{fill:#bc782e;}.d{fill:#fff;}.e{fill:#821717;}</style></defs><path class="a" d="M127.94,101.9c12.71-1.94,18.88-16.29,11.73-27.48-2.92-4.57-6.85-7.17-11.87-7.18-2.89,0-5.78-.13-8.67-.21,7.19-10.73,23.14-11.87,32.22-.57,8.65,10.78,8,28-1.78,38-8.41,8.63-23.21,7.86-29.4-1.76C122.77,101.75,125.48,103.07,127.94,101.9Z"/><path class="a" d="M127.94,310.38c10.87-1.55,16.94-11.38,14-22.68-1.73-6.68-7.14-11.63-13.12-11.92-3.23-.16-6.47-.18-9.7-.26,7.19-10.74,23.14-11.88,32.22-.57,8.65,10.78,8,28-1.78,38-8.41,8.63-23.22,7.85-29.39-1.77C122.77,310.23,125.48,311.57,127.94,310.38Z"/><path class="a" d="M125.27,206.27C138,204.33,144.15,190,137,178.79c-2.92-4.58-6.85-7.17-11.87-7.19-2.89,0-5.78-.13-8.67-.2,7.19-10.74,23.14-11.88,32.22-.57,8.65,10.78,8,28-1.78,38-8.41,8.63-23.21,7.85-29.4-1.76C120.1,206.12,122.81,207.44,125.27,206.27Z"/><path class="b" d="M123.81,391.69c-6.66.06-13.32.08-20,.19a23.4,23.4,0,0,0-15.94,5.95c-1.8,1.63-2,2.89-.08,4.63a23.39,23.39,0,0,0,15.4,6.07c1.42.06,2.85,0,4.28,0q148.87,0,297.74.05c11.22,0,19.25-3.39,23.18-12.54,1.58,15.62,2.05,22.87-14.66,29.08H98.06c-7.39-2.71-13.32-6.61-14.76-13.51-.63-3-.42-6.2-.42-9.3q0-178.81,0-357.63c0-8.92,5.86-14.27,15.23-17.73h25.75Z"/><path class="a" d="M123.81,27h289c12.11,3.33,16.37,10.31,16.35,20.53q-.33,162.33,0,324.65c0,10.77-8.05,19.6-24.13,19.54-92-.34-184-.16-276-.17-1.74,0-3.48-.11-5.23-.17Q123.82,209.16,123.81,27Z"/><path class="c" d="M428.06,43c0,9.07-.24,219.27,0,328.91,0,10.91-8.05,19.86-24.13,19.8-92-.34-184-.17-276-.18-1.74,0-5.22-.16-5.22-.16S428.07,33.91,428.06,43Z"/><path class="d" d="M208.93,148.76a20,20,0,0,1-9.73-2.23,15,15,0,0,1-6.22-6.32,20.29,20.29,0,0,1-2.15-9.6,21.72,21.72,0,0,1,1.22-7.45,16,16,0,0,1,3.58-5.75,15.23,15.23,0,0,1,5.72-3.65,21.79,21.79,0,0,1,7.58-1.25,22.43,22.43,0,0,1,5.15.6,15.26,15.26,0,0,1,4.45,1.75,4,4,0,0,1,1.7,1.77,3.6,3.6,0,0,1-.58,3.85,3,3,0,0,1-1.67,1,3.15,3.15,0,0,1-2.25-.47,11.35,11.35,0,0,0-3.13-1.3,13.88,13.88,0,0,0-3.37-.4,11.06,11.06,0,0,0-5.63,1.32,8.28,8.28,0,0,0-3.4,3.8,14.94,14.94,0,0,0-1.12,6.18,15.19,15.19,0,0,0,1.12,6.15,8.16,8.16,0,0,0,3.4,3.87,11,11,0,0,0,5.63,1.33,13.86,13.86,0,0,0,3.27-.4,13,13,0,0,0,3.23-1.25,3.82,3.82,0,0,1,2.3-.48,3,3,0,0,1,1.67.9,3.6,3.6,0,0,1,.88,1.75,3.51,3.51,0,0,1-.2,2,3.73,3.73,0,0,1-1.5,1.68,15.11,15.11,0,0,1-4.55,1.92A21.84,21.84,0,0,1,208.93,148.76Z"/><path class="d" d="M235.48,148.76a14.34,14.34,0,0,1-6.85-1.55,11.1,11.1,0,0,1-4.53-4.43,13.65,13.65,0,0,1-1.62-6.82,14.73,14.73,0,0,1,.9-5.3,11,11,0,0,1,2.62-4,11.69,11.69,0,0,1,4.15-2.55,15.68,15.68,0,0,1,5.33-.87,14.51,14.51,0,0,1,6.87,1.55,11.07,11.07,0,0,1,4.55,4.42,13.5,13.5,0,0,1,1.63,6.78,14.69,14.69,0,0,1-.93,5.35,11.08,11.08,0,0,1-2.62,4.05,11.41,11.41,0,0,1-4.1,2.52A15.53,15.53,0,0,1,235.48,148.76Zm0-5.6a4.85,4.85,0,0,0,4.75-3.15,10.29,10.29,0,0,0,.7-4c0-2.43-.5-4.23-1.5-5.38a5,5,0,0,0-4-1.72,5.32,5.32,0,0,0-2.83.75,4.88,4.88,0,0,0-1.9,2.35,10.35,10.35,0,0,0-.67,4c0,2.47.5,4.28,1.5,5.45A4.88,4.88,0,0,0,235.48,143.16Z"/><path class="d" d="M262.18,148.76a10.47,10.47,0,0,1-5.15-1.15,6.93,6.93,0,0,1-3-3.43,14.55,14.55,0,0,1-1-5.72V127.11a3.8,3.8,0,0,1,1-2.85,3.84,3.84,0,0,1,2.78-1,3.92,3.92,0,0,1,2.8,1,3.77,3.77,0,0,1,1,2.85v11.5a5,5,0,0,0,.9,3.25,3.41,3.41,0,0,0,2.8,1.1,4.57,4.57,0,0,0,3.57-1.53,5.74,5.74,0,0,0,1.38-4v-10.3a3.73,3.73,0,0,1,1-2.85,3.83,3.83,0,0,1,2.75-1,3.89,3.89,0,0,1,2.82,1,3.8,3.8,0,0,1,1,2.85v17.75q0,3.79-3.65,3.8a3.44,3.44,0,0,1-3.75-3.8v-3.4l.8,2a8.19,8.19,0,0,1-8,5.3Z"/><path class="d" d="M286.53,148.66a4,4,0,0,1-2.9-1,3.75,3.75,0,0,1-1-2.82V127.11a3.84,3.84,0,0,1,1-2.83,3.76,3.76,0,0,1,2.78-1,3.62,3.62,0,0,1,2.7,1,3.92,3.92,0,0,1,.95,2.83v2.6h-.5a7.38,7.38,0,0,1,2.62-4.65,9.33,9.33,0,0,1,5.38-1.85,2.16,2.16,0,0,1,1.87.62,3.92,3.92,0,0,1,.78,2.43,3.06,3.06,0,0,1-3.1,3.5l-1.15.1a6.59,6.59,0,0,0-4.23,1.65,5.56,5.56,0,0,0-1.37,4.05v9.3a3.89,3.89,0,0,1-.95,2.82A3.83,3.83,0,0,1,286.53,148.66Z"/><path class="d" d="M312.38,148.76a28.47,28.47,0,0,1-4.5-.38,14,14,0,0,1-4.2-1.32,3.16,3.16,0,0,1-1.48-1.28,2.86,2.86,0,0,1-.37-1.6,2.63,2.63,0,0,1,.52-1.45,2.39,2.39,0,0,1,1.25-.85,2.55,2.55,0,0,1,1.73.18,20,20,0,0,0,3.77,1.2,17,17,0,0,0,3.33.35,5.45,5.45,0,0,0,3.1-.7,2.14,2.14,0,0,0,1-1.8,1.68,1.68,0,0,0-.65-1.43A5.1,5.1,0,0,0,314,139l-5.3-1a8.86,8.86,0,0,1-4.73-2.3,6,6,0,0,1-1.67-4.4,6.83,6.83,0,0,1,1.4-4.35,8.88,8.88,0,0,1,3.87-2.78,15.28,15.28,0,0,1,5.63-1,19.52,19.52,0,0,1,4.12.4A14.48,14.48,0,0,1,321,125a2.48,2.48,0,0,1,1.27,1.15,2.4,2.4,0,0,1,.23,1.55,3.27,3.27,0,0,1-.63,1.42,2.3,2.3,0,0,1-1.25.85,2.69,2.69,0,0,1-1.82-.22,22.07,22.07,0,0,0-2.95-1,11.12,11.12,0,0,0-2.5-.32,6,6,0,0,0-3.33.7,2.11,2.11,0,0,0-1,1.8,1.87,1.87,0,0,0,.6,1.42,3.27,3.27,0,0,0,1.8.78l5.3.9a9.51,9.51,0,0,1,4.9,2.22,5.81,5.81,0,0,1,1.7,4.38,6.94,6.94,0,0,1-3,6A13.32,13.32,0,0,1,312.38,148.76Z"/><path class="d" d="M340.33,148.76a16.72,16.72,0,0,1-7.48-1.55,11.14,11.14,0,0,1-4.8-4.43,14.57,14.57,0,0,1-.05-13.45,12,12,0,0,1,4.48-4.47,12.64,12.64,0,0,1,6.45-1.65,12.78,12.78,0,0,1,4.87.87,10.42,10.42,0,0,1,6,6.45,16,16,0,0,1,.8,5.18,1.69,1.69,0,0,1-.6,1.42,2.76,2.76,0,0,1-1.75.48H332.63v-3.9h12.55l-.8.7a8.6,8.6,0,0,0-.6-3.43,4.69,4.69,0,0,0-1.73-2.1,5,5,0,0,0-2.77-.72,5.57,5.57,0,0,0-3.15.85,5.38,5.38,0,0,0-2,2.47,9.74,9.74,0,0,0-.7,3.88v.4q0,3.8,1.75,5.6t5.3,1.8a14.26,14.26,0,0,0,2.72-.3,13,13,0,0,0,2.93-1,3.22,3.22,0,0,1,2.05-.35,2.47,2.47,0,0,1,1.95,2.3,3.24,3.24,0,0,1-.38,1.67,3.38,3.38,0,0,1-1.42,1.38,12.69,12.69,0,0,1-3.9,1.42A20.72,20.72,0,0,1,340.33,148.76Z"/><path class="d" d="M267.05,208.76a17.09,17.09,0,0,1-6.77-1.23,10,10,0,0,1-4.43-3.42A8.74,8.74,0,0,1,254.3,199a9.72,9.72,0,0,1,.5-3.15,10.5,10.5,0,0,1,1.4-2.7,13,13,0,0,1,2.2-2.33,19.16,19.16,0,0,1,3-2l1.75-.95-1.15,1.5a13.55,13.55,0,0,1-3.07-4,9.52,9.52,0,0,1-1-4.17,8.13,8.13,0,0,1,1.3-4.55,8.51,8.51,0,0,1,3.63-3.08,13.16,13.16,0,0,1,5.52-1.07,10,10,0,0,1,6.78,2.17,7.32,7.32,0,0,1,2.52,5.83,8.94,8.94,0,0,1-.77,3.67,10.36,10.36,0,0,1-2.38,3.25,18.36,18.36,0,0,1-4.15,2.88v-1.65l8,8.2H276.7a12.3,12.3,0,0,0,1.13-2.2,20.57,20.57,0,0,0,.8-2.55c.21-.9.41-1.82.57-2.75a4.07,4.07,0,0,1,1.08-2.23,3.14,3.14,0,0,1,2.22-.72,3,3,0,0,1,2.33.85,2.84,2.84,0,0,1,.52,2.45,24.61,24.61,0,0,1-.85,4.25,23.59,23.59,0,0,1-3.45,7.15v-1.75l4.45,4.4a3.12,3.12,0,0,1,1.2,2.27,2.35,2.35,0,0,1-.85,1.9,3.53,3.53,0,0,1-2.4.73,4,4,0,0,1-2.15-.53,14.08,14.08,0,0,1-1.9-1.47L276.85,204h1.7a17.25,17.25,0,0,1-5.32,3.5A15.87,15.87,0,0,1,267.05,208.76Zm.5-5.8a8.72,8.72,0,0,0,3.75-.8,9.79,9.79,0,0,0,3.15-2.4l-.2,1.85-10.1-10.1,3.15.2-1.4.75a10.14,10.14,0,0,0-2.32,1.65A6.13,6.13,0,0,0,262.2,196a5.76,5.76,0,0,0-.45,2.33,4.07,4.07,0,0,0,1.53,3.37A6.62,6.62,0,0,0,267.55,203Zm.8-25.35a3.6,3.6,0,0,0-2.6.92,3.39,3.39,0,0,0-.95,2.53,4.4,4.4,0,0,0,.3,1.65,7.26,7.26,0,0,0,1,1.65c.47.6,1.09,1.3,1.85,2.1l-1.6-.05a24.24,24.24,0,0,0,3.08-1.9,6.3,6.3,0,0,0,1.65-1.73,3.74,3.74,0,0,0,.52-2,3,3,0,0,0-.9-2.4A3.42,3.42,0,0,0,268.35,177.61Z"/><path class="d" d="M238.63,268.76a21.25,21.25,0,0,1-6.63-.95,11.76,11.76,0,0,1-7.75-7.65,20.38,20.38,0,0,1-1-6.6V236.51a3.46,3.46,0,0,1,3.85-3.9,4,4,0,0,1,2.9,1,3.91,3.91,0,0,1,1,2.93v17.05c0,2.87.65,5,1.95,6.47a8.35,8.35,0,0,0,11.25,0c1.3-1.45,2-3.6,2-6.47V236.51a3.91,3.91,0,0,1,1-2.93,4,4,0,0,1,2.9-1,3.77,3.77,0,0,1,2.75,1,3.91,3.91,0,0,1,1,2.93v17.05a18.46,18.46,0,0,1-1.73,8.4,11.24,11.24,0,0,1-5.1,5.1A18.54,18.54,0,0,1,238.63,268.76Z"/><path class="d" d="M263.78,268.66a3.44,3.44,0,0,1-3.75-3.8V247.11a3.84,3.84,0,0,1,1-2.83,3.76,3.76,0,0,1,2.78-1,3.62,3.62,0,0,1,2.7,1,3.92,3.92,0,0,1,.95,2.83V250l-.55-1.6a8,8,0,0,1,3.4-3.83,10.15,10.15,0,0,1,5.15-1.32,9.36,9.36,0,0,1,4.87,1.12,7,7,0,0,1,2.83,3.43,15.36,15.36,0,0,1,.95,5.8v11.3a3.89,3.89,0,0,1-.95,2.82,3.76,3.76,0,0,1-2.8,1,3.88,3.88,0,0,1-2.78-1,3.72,3.72,0,0,1-1-2.82v-11a5.79,5.79,0,0,0-.93-3.68,3.37,3.37,0,0,0-2.77-1.12,5,5,0,0,0-3.83,1.5,5.56,5.56,0,0,0-1.42,4v10.3Q267.58,268.65,263.78,268.66Z"/><path class="d" d="M293.53,239.26a4.5,4.5,0,0,1-3.15-1,3.64,3.64,0,0,1-1.1-2.85,3.5,3.5,0,0,1,1.1-2.78,4.59,4.59,0,0,1,3.15-1,4.77,4.77,0,0,1,3.22,1,3.49,3.49,0,0,1,1.13,2.78,3.63,3.63,0,0,1-1.13,2.85A4.67,4.67,0,0,1,293.53,239.26Zm0,29.4a3.55,3.55,0,0,1-2.75-1.08,4.23,4.23,0,0,1-1-3V247.41a4.18,4.18,0,0,1,1-3,3.66,3.66,0,0,1,2.75-1,3.72,3.72,0,0,1,2.82,1,4.26,4.26,0,0,1,1,3v17.15a4.41,4.41,0,0,1-.95,3A3.61,3.61,0,0,1,293.53,268.66Z"/><path class="d" d="M315.23,268.76a13.23,13.23,0,0,1-5.78-1.13,7.16,7.16,0,0,1-3.42-3.32,12.3,12.3,0,0,1-1.1-5.55v-9.45h-2.2a3,3,0,0,1-2.13-.73,2.67,2.67,0,0,1-.77-2.07,2.61,2.61,0,0,1,.77-2,3.06,3.06,0,0,1,2.13-.7h2.2v-3.85a3.8,3.8,0,0,1,1-2.85,3.84,3.84,0,0,1,2.78-.95,3.89,3.89,0,0,1,2.82.95,3.8,3.8,0,0,1,1,2.85v3.85h4.65a3.11,3.11,0,0,1,2.2.7,2.67,2.67,0,0,1,.75,2,2.74,2.74,0,0,1-.75,2.07,3,3,0,0,1-2.2.73h-4.65v9.15a4.41,4.41,0,0,0,.95,3.12,4,4,0,0,0,3.1,1,6.51,6.51,0,0,0,1.42-.15,5.41,5.41,0,0,1,1.13-.15,1.47,1.47,0,0,1,1.17.42,3.09,3.09,0,0,1,.48,2.08,5.58,5.58,0,0,1-.38,2.15,2.18,2.18,0,0,1-1.42,1.25,13.2,13.2,0,0,1-1.8.37A12.78,12.78,0,0,1,315.23,268.76Z"/><path class="d" d="M195.5,328.26a4.06,4.06,0,0,1-3-1.05,4.14,4.14,0,0,1-1.05-3V297.11a4.14,4.14,0,0,1,1.05-3.05,4.06,4.06,0,0,1,3-1.05h9.75q9,0,13.95,4.57t5,13a20.69,20.69,0,0,1-1.27,7.5,14.6,14.6,0,0,1-3.7,5.55,16.09,16.09,0,0,1-5.9,3.42,24.87,24.87,0,0,1-8,1.18Zm3.7-6.35h5.55a15.28,15.28,0,0,0,5-.73,9,9,0,0,0,3.52-2.1,8.36,8.36,0,0,0,2.1-3.5,15.77,15.77,0,0,0,.7-5q0-5.7-2.8-8.48c-1.86-1.85-4.7-2.77-8.5-2.77H199.2Z"/><path class="d" d="M242.25,328.76a16.68,16.68,0,0,1-7.47-1.55,11.08,11.08,0,0,1-4.8-4.43A13.26,13.26,0,0,1,228.3,316a13,13,0,0,1,1.63-6.63,12,12,0,0,1,4.47-4.47,12.64,12.64,0,0,1,6.45-1.65,12.8,12.8,0,0,1,4.88.87,10.74,10.74,0,0,1,3.67,2.5,10.58,10.58,0,0,1,2.35,3.95,15.69,15.69,0,0,1,.8,5.18,1.69,1.69,0,0,1-.6,1.42,2.74,2.74,0,0,1-1.75.48H234.55v-3.9H247.1l-.8.7a8.6,8.6,0,0,0-.6-3.43,4.67,4.67,0,0,0-1.72-2.1,5.06,5.06,0,0,0-2.78-.72,5.62,5.62,0,0,0-3.15.85,5.51,5.51,0,0,0-2,2.47,9.92,9.92,0,0,0-.7,3.88v.4c0,2.53.59,4.4,1.75,5.6a7.1,7.1,0,0,0,5.3,1.8,14.36,14.36,0,0,0,2.73-.3,13,13,0,0,0,2.92-.95,3.23,3.23,0,0,1,2-.35,2.5,2.5,0,0,1,1.38.82,2.44,2.44,0,0,1,.57,1.48,3.14,3.14,0,0,1-.37,1.67,3.41,3.41,0,0,1-1.43,1.38,12.5,12.5,0,0,1-3.9,1.42A20.64,20.64,0,0,1,242.25,328.76Z"/><path class="d" d="M266.35,328.76a28.67,28.67,0,0,1-4.5-.38,14.16,14.16,0,0,1-4.2-1.32,3.08,3.08,0,0,1-1.47-1.28,3,3,0,0,1-.38-1.6,2.64,2.64,0,0,1,.53-1.45,2.39,2.39,0,0,1,1.25-.85,2.52,2.52,0,0,1,1.72.18,20.34,20.34,0,0,0,3.78,1.2,17,17,0,0,0,3.32.35,5.42,5.42,0,0,0,3.1-.7,2.12,2.12,0,0,0,1-1.8,1.65,1.65,0,0,0-.65-1.43A5,5,0,0,0,268,319l-5.3-.95a8.83,8.83,0,0,1-4.72-2.3,6,6,0,0,1-1.68-4.4,6.89,6.89,0,0,1,1.4-4.35,9,9,0,0,1,3.88-2.78,15.23,15.23,0,0,1,5.62-1,19.62,19.62,0,0,1,4.13.4A14.42,14.42,0,0,1,275,305a2.51,2.51,0,0,1,1.28,1.15,2.39,2.39,0,0,1,.22,1.55,3.25,3.25,0,0,1-.62,1.42,2.37,2.37,0,0,1-1.25.85,2.72,2.72,0,0,1-1.83-.22,21.61,21.61,0,0,0-2.95-1,11.05,11.05,0,0,0-2.5-.32,6,6,0,0,0-3.32.7,2.1,2.1,0,0,0-1,1.8,1.87,1.87,0,0,0,.6,1.42,3.27,3.27,0,0,0,1.8.78l5.3.9a9.43,9.43,0,0,1,4.9,2.22,5.77,5.77,0,0,1,1.7,4.38,7,7,0,0,1-3,6A13.37,13.37,0,0,1,266.35,328.76Z"/><path class="d" d="M285.3,299.26a4.53,4.53,0,0,1-3.15-1,3.68,3.68,0,0,1-1.1-2.85,3.54,3.54,0,0,1,1.1-2.78,4.62,4.62,0,0,1,3.15-1,4.79,4.79,0,0,1,3.23,1,3.48,3.48,0,0,1,1.12,2.78,3.62,3.62,0,0,1-1.12,2.85A4.7,4.7,0,0,1,285.3,299.26Zm0,29.4a3.58,3.58,0,0,1-2.75-1.08,4.28,4.28,0,0,1-1-3V307.41a4.22,4.22,0,0,1,1-3,3.69,3.69,0,0,1,2.75-1,3.73,3.73,0,0,1,2.83,1,4.26,4.26,0,0,1,1,3v17.15a4.36,4.36,0,0,1-1,3A3.59,3.59,0,0,1,285.3,328.66Z"/><path class="d" d="M306.75,337.76a29.81,29.81,0,0,1-5.17-.43A16.81,16.81,0,0,1,297.2,336a3.07,3.07,0,0,1-1.62-1.28,2.78,2.78,0,0,1-.38-1.72,3.51,3.51,0,0,1,.58-1.6,2.47,2.47,0,0,1,1.3-1,2.31,2.31,0,0,1,1.72.13,16.05,16.05,0,0,0,4.08,1.3,20.8,20.8,0,0,0,3.22.3,6.91,6.91,0,0,0,4.8-1.45,5.71,5.71,0,0,0,1.6-4.45v-3.85H313a6.87,6.87,0,0,1-3.1,3.8,9.81,9.81,0,0,1-5.2,1.4,10.65,10.65,0,0,1-5.75-1.53,10.19,10.19,0,0,1-3.8-4.25,14.27,14.27,0,0,1-1.35-6.42,15.2,15.2,0,0,1,.78-5,11.11,11.11,0,0,1,2.2-3.85,9.77,9.77,0,0,1,3.45-2.48,11.21,11.21,0,0,1,4.47-.87,9.65,9.65,0,0,1,5.23,1.42,6.62,6.62,0,0,1,3,3.68l-.45,1.7v-2.9a3.43,3.43,0,0,1,3.75-3.8,3.66,3.66,0,0,1,2.75,1,3.88,3.88,0,0,1,1,2.83v18.25q0,6.19-3.35,9.3T306.75,337.76ZM306.9,322a5.28,5.28,0,0,0,2.9-.8,5.21,5.21,0,0,0,1.95-2.28,8.07,8.07,0,0,0,.7-3.52,7.13,7.13,0,0,0-1.5-4.83,5.09,5.09,0,0,0-4.05-1.72,5.33,5.33,0,0,0-3,.8,5.21,5.21,0,0,0-1.9,2.25,8.24,8.24,0,0,0-.68,3.5,7.22,7.22,0,0,0,1.5,4.82A5,5,0,0,0,306.9,322Z"/><path class="d" d="M329.45,328.66a3.44,3.44,0,0,1-3.75-3.8V307.11a3.85,3.85,0,0,1,1-2.83,3.74,3.74,0,0,1,2.77-1,3.59,3.59,0,0,1,2.7,1,3.88,3.88,0,0,1,1,2.83V310l-.55-1.6a8.09,8.09,0,0,1,3.4-3.83,10.18,10.18,0,0,1,5.15-1.32,9.4,9.4,0,0,1,4.88,1.12,6.92,6.92,0,0,1,2.82,3.43,15.16,15.16,0,0,1,.95,5.8v11.3a3.85,3.85,0,0,1-.95,2.82,3.72,3.72,0,0,1-2.8,1,3.86,3.86,0,0,1-2.77-1,3.69,3.69,0,0,1-1-2.82v-11a5.86,5.86,0,0,0-.92-3.68,3.39,3.39,0,0,0-2.78-1.12,5,5,0,0,0-3.82,1.5,5.57,5.57,0,0,0-1.43,4v10.3C333.25,327.39,332,328.66,329.45,328.66Z"/><polygon class="e" points="356.22 26.97 356.22 95.29 379.16 75.65 402.1 95.47 402.1 26.97 356.22 26.97"/></svg>