<svg xmlns="http://www.w3.org/2000/svg" viewBox="0 0 512 452.12"><defs><style>.a{fill:#595959;}.b{fill:#ce852e;}.c{fill:#bc782e;}.d{fill:#fff;}.e{fill:#821717;}</style></defs><path class="a" d="M123.81,391.69c-6.66.06-13.32.08-20,.19a23.4,23.4,0,0,0-15.94,5.95c-1.8,1.63-2,2.89-.08,4.63a23.39,23.39,0,0,0,15.4,6.07c1.42.06,2.85,0,4.28,0q148.87,0,297.74.05c11.22,0,19.25-3.39,23.18-12.54,1.58,15.62,2.05,22.87-14.66,29.08H98.06c-7.39-2.71-13.32-6.61-14.76-13.51-.63-3-.42-6.2-.42-9.3q0-178.81,0-357.63c0-8.92,5.86-14.27,15.23-17.73h25.75Z"/><path class="b" d="M123.81,27h289c12.11,3.33,16.37,10.31,16.35,20.53q-.33,162.33,0,324.65c0,10.77-8.05,19.6-24.13,19.54-92-.34-184-.16-276-.17-1.74,0-3.48-.11-5.23-.17Q123.82,209.16,123.81,27Z"/><path class="c" d="M428.06,43c0,9.07-.24,219.27,0,328.91,0,10.91-8.05,19.86-24.13,19.8-92-.34-184-.17-276-.18-1.74,0-5.22-.16-5.22-.16S428.07,33.91,428.06,43Z"/><path class="d" d="M186,183.61a3.79,3.79,0,0,1-2.85-1,4,4,0,0,1-1-2.92v-25.3h-8.8a3.32,3.32,0,0,1-2.45-.85,3.28,3.28,0,0,1-.85-2.4,3.13,3.13,0,0,1,.85-2.33,3.39,3.39,0,0,1,2.45-.82h25.4a3.28,3.28,0,0,1,2.4.82,3.09,3.09,0,0,1,.85,2.33,3,3,0,0,1-3.25,3.25h-8.85v25.3a4.05,4.05,0,0,1-1,2.92A3.84,3.84,0,0,1,186,183.61Z"/><path class="d" d="M213.47,183.71a16.68,16.68,0,0,1-7.47-1.55,11,11,0,0,1-4.8-4.43,13.26,13.26,0,0,1-1.68-6.82,13,13,0,0,1,1.63-6.63,12,12,0,0,1,4.47-4.47,12.64,12.64,0,0,1,6.45-1.65A12.8,12.8,0,0,1,217,159a10.74,10.74,0,0,1,3.67,2.5,10.58,10.58,0,0,1,2.35,3.95,15.69,15.69,0,0,1,.8,5.18,1.69,1.69,0,0,1-.6,1.42,2.74,2.74,0,0,1-1.75.48H205.77v-3.9h12.55l-.8.7a8.6,8.6,0,0,0-.6-3.43,4.67,4.67,0,0,0-1.72-2.1,5.06,5.06,0,0,0-2.78-.72,5.62,5.62,0,0,0-3.15.85,5.51,5.51,0,0,0-2,2.47,9.92,9.92,0,0,0-.7,3.88v.4c0,2.53.59,4.4,1.75,5.6a7.1,7.1,0,0,0,5.3,1.8,14.36,14.36,0,0,0,2.73-.3,13,13,0,0,0,2.92-.95,3.23,3.23,0,0,1,2-.35,2.5,2.5,0,0,1,1.38.82,2.44,2.44,0,0,1,.57,1.48,3.14,3.14,0,0,1-.37,1.67,3.41,3.41,0,0,1-1.43,1.38,12.5,12.5,0,0,1-3.9,1.42A20.64,20.64,0,0,1,213.47,183.71Z"/><path class="d" d="M236.52,183.71a11,11,0,0,1-4.9-1,8.18,8.18,0,0,1-3.3-2.8,7.09,7.09,0,0,1-1.2-4.07,6.12,6.12,0,0,1,1.4-4.25,8.5,8.5,0,0,1,4.53-2.25,39.33,39.33,0,0,1,8.32-.7H244v3.9h-2.6a24.7,24.7,0,0,0-4.12.27,4.33,4.33,0,0,0-2.23.95,2.4,2.4,0,0,0-.7,1.78,2.94,2.94,0,0,0,1,2.25,3.93,3.93,0,0,0,2.77.9,5.2,5.2,0,0,0,2.6-.65,4.58,4.58,0,0,0,1.8-1.8,5.43,5.43,0,0,0,.65-2.75v-5.7a4.11,4.11,0,0,0-1-3.13,5.08,5.08,0,0,0-3.45-.92,15.48,15.48,0,0,0-2.87.3,17.85,17.85,0,0,0-3.48,1.1,3,3,0,0,1-2,.2,2.21,2.21,0,0,1-1.28-1,3,3,0,0,1-.45-1.62,3.17,3.17,0,0,1,.5-1.7,3.09,3.09,0,0,1,1.7-1.2,23.64,23.64,0,0,1,4.38-1.28,21.3,21.3,0,0,1,3.77-.37,15.75,15.75,0,0,1,6.38,1.12,7.58,7.58,0,0,1,3.75,3.48,12.91,12.91,0,0,1,1.22,6v11.1a4,4,0,0,1-.92,2.82,3.94,3.94,0,0,1-5.2,0,3.93,3.93,0,0,1-.93-2.82V178l.35.35a6.18,6.18,0,0,1-1.27,2.85A6.71,6.71,0,0,1,240,183,8.2,8.2,0,0,1,236.52,183.71Z"/><path class="d" d="M268,183.71a14.81,14.81,0,0,1-7-1.55,11,11,0,0,1-4.57-4.45,13.72,13.72,0,0,1-1.63-6.85,14.73,14.73,0,0,1,.9-5.3,10.78,10.78,0,0,1,2.63-4,11.7,11.7,0,0,1,4.17-2.53,16.55,16.55,0,0,1,8.78-.5,14.25,14.25,0,0,1,3.47,1.23,3.13,3.13,0,0,1,1.33,1.35,3,3,0,0,1,.27,1.67,3,3,0,0,1-.62,1.55,2.36,2.36,0,0,1-3.13.63,10.1,10.1,0,0,0-2-.78,7.65,7.65,0,0,0-1.93-.27,7,7,0,0,0-2.65.47,5.22,5.22,0,0,0-1.92,1.35,6,6,0,0,0-1.2,2.18,9.29,9.29,0,0,0-.43,3,7.79,7.79,0,0,0,1.63,5.22,5.64,5.64,0,0,0,4.57,1.93,7.64,7.64,0,0,0,1.9-.25,8.2,8.2,0,0,0,2-.8,2.34,2.34,0,0,1,1.78-.25,2.73,2.73,0,0,1,1.87,2.47,3.35,3.35,0,0,1-.32,1.68,2.63,2.63,0,0,1-1.33,1.25,11.89,11.89,0,0,1-3.37,1.25A16.74,16.74,0,0,1,268,183.71Z"/><path class="d" d="M283.67,183.61a3.44,3.44,0,0,1-3.75-3.8V151.36a3.73,3.73,0,0,1,1-2.85,3.84,3.84,0,0,1,2.75-.95,3.92,3.92,0,0,1,2.83.95,3.8,3.8,0,0,1,1,2.85v11.95h-.7a8,8,0,0,1,3.4-3.83,10.15,10.15,0,0,1,5.15-1.32,9.61,9.61,0,0,1,4.88,1.1,6.76,6.76,0,0,1,2.82,3.4,15.49,15.49,0,0,1,1,5.85v11.3a3.89,3.89,0,0,1-1,2.82,3.74,3.74,0,0,1-2.8,1,3.86,3.86,0,0,1-2.77-1,3.69,3.69,0,0,1-1-2.82v-11a5.86,5.86,0,0,0-.92-3.68,3.4,3.4,0,0,0-2.78-1.12,5,5,0,0,0-3.82,1.5,5.57,5.57,0,0,0-1.43,4v10.3Q287.47,183.61,283.67,183.61Z"/><path class="d" d="M313.42,154.21a4.5,4.5,0,0,1-3.15-1,3.68,3.68,0,0,1-1.1-2.85,3.54,3.54,0,0,1,1.1-2.78,4.59,4.59,0,0,1,3.15-1,4.79,4.79,0,0,1,3.23,1,3.48,3.48,0,0,1,1.12,2.78,3.62,3.62,0,0,1-1.12,2.85A4.7,4.7,0,0,1,313.42,154.21Zm0,29.4a3.56,3.56,0,0,1-2.75-1.08,4.23,4.23,0,0,1-1-3V162.36a4.18,4.18,0,0,1,1-3,3.67,3.67,0,0,1,2.75-1,3.74,3.74,0,0,1,2.83,1,4.26,4.26,0,0,1,1,3v17.15a4.41,4.41,0,0,1-1,3A3.59,3.59,0,0,1,313.42,183.61Z"/><path class="d" d="M326.82,183.61a3.44,3.44,0,0,1-3.75-3.8V162.06a3.8,3.8,0,0,1,1-2.83,3.74,3.74,0,0,1,2.77-1,3.59,3.59,0,0,1,2.7,1,3.92,3.92,0,0,1,1,2.83v2.85l-.55-1.6a8,8,0,0,1,3.4-3.83,10.15,10.15,0,0,1,5.15-1.32,9.4,9.4,0,0,1,4.88,1.12,6.92,6.92,0,0,1,2.82,3.43,15.36,15.36,0,0,1,.95,5.8v11.3a3.89,3.89,0,0,1-.95,2.82,3.74,3.74,0,0,1-2.8,1,3.84,3.84,0,0,1-2.77-1,3.69,3.69,0,0,1-1-2.82v-11a5.79,5.79,0,0,0-.93-3.68,3.37,3.37,0,0,0-2.77-1.12,5,5,0,0,0-3.82,1.5,5.57,5.57,0,0,0-1.43,4v10.3Q330.62,183.61,326.82,183.61Z"/><path class="d" d="M364.62,192.71a29.93,29.93,0,0,1-5.18-.43,16.73,16.73,0,0,1-4.37-1.32,3.09,3.09,0,0,1-1.63-1.28,2.77,2.77,0,0,1-.37-1.72,3.61,3.61,0,0,1,.57-1.6,2.51,2.51,0,0,1,1.3-1,2.34,2.34,0,0,1,1.73.13,16,16,0,0,0,4.07,1.3,20.91,20.91,0,0,0,3.23.3,6.94,6.94,0,0,0,4.8-1.45,5.71,5.71,0,0,0,1.6-4.45v-3.85h.45a6.91,6.91,0,0,1-3.1,3.8,9.83,9.83,0,0,1-5.2,1.4,10.62,10.62,0,0,1-5.75-1.53,10.19,10.19,0,0,1-3.8-4.25,14.27,14.27,0,0,1-1.35-6.42,15.47,15.47,0,0,1,.77-5,11.27,11.27,0,0,1,2.2-3.85A9.77,9.77,0,0,1,358,159a11.26,11.26,0,0,1,4.48-.87,9.59,9.59,0,0,1,5.22,1.42,6.64,6.64,0,0,1,3,3.68l-.45,1.7v-2.9a3.43,3.43,0,0,1,3.75-3.8,3.66,3.66,0,0,1,2.75,1,3.92,3.92,0,0,1,1,2.83v18.25q0,6.19-3.35,9.3T364.62,192.71Zm.15-15.75a5.28,5.28,0,0,0,2.9-.8,5.34,5.34,0,0,0,1.95-2.28,8.07,8.07,0,0,0,.7-3.52,7.13,7.13,0,0,0-1.5-4.83,5.09,5.09,0,0,0-4.05-1.72,5.37,5.37,0,0,0-3,.8,5.27,5.27,0,0,0-1.9,2.25,8.25,8.25,0,0,0-.67,3.5,7.22,7.22,0,0,0,1.5,4.82A5,5,0,0,0,364.77,177Z"/><path class="d" d="M234.85,243.61a4.38,4.38,0,0,1-2.53-.73,4.88,4.88,0,0,1-1.72-2.22l-7-17.5a4.46,4.46,0,0,1-.35-2.48,2.8,2.8,0,0,1,1.07-1.75,3.8,3.8,0,0,1,2.38-.67,3.54,3.54,0,0,1,2.17.62,5.32,5.32,0,0,1,1.48,2.38l5.45,14.7H234.7l5.6-15.35a3.89,3.89,0,0,1,1.22-1.78,3.88,3.88,0,0,1,4,0,3.56,3.56,0,0,1,1.18,1.78L252.4,236h-1l5.5-14.9a4.14,4.14,0,0,1,1.55-2.23,3.82,3.82,0,0,1,2-.57,3.18,3.18,0,0,1,2.25.7,2.8,2.8,0,0,1,.87,1.8,4.89,4.89,0,0,1-.42,2.4l-6.95,17.45a5,5,0,0,1-1.73,2.27,4.42,4.42,0,0,1-2.57.73,4.47,4.47,0,0,1-2.58-.73,4.63,4.63,0,0,1-1.67-2.27L241.6,225h3.25l-5.75,15.55a5.28,5.28,0,0,1-1.7,2.3A4.27,4.27,0,0,1,234.85,243.61Z"/><path class="d" d="M271.55,214.21a4.5,4.5,0,0,1-3.15-1,3.64,3.64,0,0,1-1.1-2.85,3.5,3.5,0,0,1,1.1-2.78,4.59,4.59,0,0,1,3.15-1,4.77,4.77,0,0,1,3.22,1,3.49,3.49,0,0,1,1.13,2.78,3.63,3.63,0,0,1-1.13,2.85A4.67,4.67,0,0,1,271.55,214.21Zm0,29.4a3.55,3.55,0,0,1-2.75-1.08,4.23,4.23,0,0,1-1-3V222.36a4.18,4.18,0,0,1,1-3,3.66,3.66,0,0,1,2.75-1,3.72,3.72,0,0,1,2.82,1,4.26,4.26,0,0,1,1,3v17.15a4.41,4.41,0,0,1-1,3A3.61,3.61,0,0,1,271.55,243.61Z"/><path class="d" d="M293.25,243.71a13.23,13.23,0,0,1-5.78-1.13,7.16,7.16,0,0,1-3.42-3.32,12.3,12.3,0,0,1-1.1-5.55v-9.45h-2.2a3,3,0,0,1-2.13-.73,2.67,2.67,0,0,1-.77-2.07,2.61,2.61,0,0,1,.77-2.05,3.06,3.06,0,0,1,2.13-.7H283v-3.85a3.8,3.8,0,0,1,1-2.85,3.84,3.84,0,0,1,2.78-.95,3.89,3.89,0,0,1,2.82.95,3.8,3.8,0,0,1,1,2.85v3.85h4.65a3.11,3.11,0,0,1,2.2.7,2.67,2.67,0,0,1,.75,2.05,2.74,2.74,0,0,1-.75,2.07,3,3,0,0,1-2.2.73H290.5v9.15a4.41,4.41,0,0,0,.95,3.12,4,4,0,0,0,3.1,1,6.51,6.51,0,0,0,1.42-.15,5.41,5.41,0,0,1,1.13-.15,1.47,1.47,0,0,1,1.17.42,3.09,3.09,0,0,1,.48,2.08,5.58,5.58,0,0,1-.38,2.15,2.18,2.18,0,0,1-1.42,1.25,13.2,13.2,0,0,1-1.8.37A12.78,12.78,0,0,1,293.25,243.71Z"/><path class="d" d="M305.9,243.61a3.44,3.44,0,0,1-3.75-3.8V211.36a3.73,3.73,0,0,1,1-2.85,3.83,3.83,0,0,1,2.75-.95,3.89,3.89,0,0,1,2.82.95,3.8,3.8,0,0,1,1,2.85v11.95H309a8,8,0,0,1,3.4-3.83,10.15,10.15,0,0,1,5.15-1.32,9.57,9.57,0,0,1,4.87,1.1,6.83,6.83,0,0,1,2.83,3.4,15.49,15.49,0,0,1,.95,5.85v11.3a3.89,3.89,0,0,1-.95,2.82,3.76,3.76,0,0,1-2.8,1,3.86,3.86,0,0,1-2.78-1,3.72,3.72,0,0,1-1-2.82v-11a5.79,5.79,0,0,0-.93-3.68A3.38,3.38,0,0,0,315,224a5,5,0,0,0-3.83,1.5,5.56,5.56,0,0,0-1.42,4v10.3Q309.7,243.61,305.9,243.61Z"/><path class="d" d="M223.87,303.61a4.39,4.39,0,0,1-2.62-.73,5.44,5.44,0,0,1-1.73-2.17l-12.55-28a4.54,4.54,0,0,1-.4-2.7,2.8,2.8,0,0,1,1.23-1.8,4.72,4.72,0,0,1,4.95.1,5.72,5.72,0,0,1,1.47,2.2l11.05,25.6h-2.5l11-25.6a6.6,6.6,0,0,1,1.58-2.2,3.75,3.75,0,0,1,2.52-.75,3.67,3.67,0,0,1,2.2.65,2.78,2.78,0,0,1,1.13,1.8,4.5,4.5,0,0,1-.48,2.7l-12.6,28a4.84,4.84,0,0,1-1.6,2.17A4.38,4.38,0,0,1,223.87,303.61Z"/><path class="d" d="M251,274.21a4.5,4.5,0,0,1-3.15-1,3.68,3.68,0,0,1-1.1-2.85,3.54,3.54,0,0,1,1.1-2.78,4.59,4.59,0,0,1,3.15-1,4.79,4.79,0,0,1,3.23,1,3.48,3.48,0,0,1,1.12,2.78,3.62,3.62,0,0,1-1.12,2.85A4.7,4.7,0,0,1,251,274.21Zm0,29.4a3.56,3.56,0,0,1-2.75-1.08,4.23,4.23,0,0,1-1-3V282.36a4.18,4.18,0,0,1,1-3,3.67,3.67,0,0,1,2.75-1,3.74,3.74,0,0,1,2.83,1,4.26,4.26,0,0,1,1,3v17.15a4.41,4.41,0,0,1-.95,3A3.59,3.59,0,0,1,251,303.61Z"/><path class="d" d="M270.22,303.71a10.29,10.29,0,0,1-5.62-1.53,10.05,10.05,0,0,1-3.78-4.42,16.1,16.1,0,0,1-1.35-6.85,15.77,15.77,0,0,1,1.35-6.8,10,10,0,0,1,9.4-5.95,9.58,9.58,0,0,1,5.15,1.4,6.77,6.77,0,0,1,3,3.65h-.55V271.36a3.87,3.87,0,0,1,.95-2.85,3.81,3.81,0,0,1,2.8-.95,3.92,3.92,0,0,1,2.8.95,3.73,3.73,0,0,1,1,2.85v28.45a3.82,3.82,0,0,1-1,2.82,3.69,3.69,0,0,1-2.73,1,3.43,3.43,0,0,1-3.8-3.8v-3.4l.55,1.95a6.76,6.76,0,0,1-3,3.9A9.5,9.5,0,0,1,270.22,303.71Zm2.25-5.6a4.85,4.85,0,0,0,4.75-3.15,10.11,10.11,0,0,0,.7-4c0-2.43-.5-4.23-1.5-5.38a5,5,0,0,0-3.95-1.72,5.26,5.26,0,0,0-2.82.75,4.82,4.82,0,0,0-1.9,2.35,10.34,10.34,0,0,0-.68,4c0,2.47.5,4.28,1.5,5.45A4.88,4.88,0,0,0,272.47,298.11Z"/><path class="d" d="M303.92,303.71a16.75,16.75,0,0,1-7.48-1.55,11.14,11.14,0,0,1-4.8-4.43,13.36,13.36,0,0,1-1.67-6.82,13,13,0,0,1,1.63-6.63,12,12,0,0,1,4.47-4.47,13.69,13.69,0,0,1,11.32-.78,10.42,10.42,0,0,1,6,6.45,16,16,0,0,1,.8,5.18,1.69,1.69,0,0,1-.6,1.42,2.74,2.74,0,0,1-1.75.48H296.22v-3.9h12.55l-.8.7a8.6,8.6,0,0,0-.6-3.43,4.69,4.69,0,0,0-1.73-2.1,5,5,0,0,0-2.77-.72,5.62,5.62,0,0,0-3.15.85,5.44,5.44,0,0,0-2,2.47,9.74,9.74,0,0,0-.7,3.88v.4q0,3.8,1.75,5.6a7.08,7.08,0,0,0,5.3,1.8,14.36,14.36,0,0,0,2.73-.3,13,13,0,0,0,2.92-.95,3.22,3.22,0,0,1,2-.35,2.47,2.47,0,0,1,2,2.3,3.23,3.23,0,0,1-.37,1.67,3.41,3.41,0,0,1-1.43,1.38,12.69,12.69,0,0,1-3.9,1.42A20.64,20.64,0,0,1,303.92,303.71Z"/><path class="d" d="M330.42,303.71a14.37,14.37,0,0,1-6.85-1.55,11.08,11.08,0,0,1-4.52-4.43,13.55,13.55,0,0,1-1.63-6.82,14.73,14.73,0,0,1,.9-5.3,11.16,11.16,0,0,1,2.62-4A11.73,11.73,0,0,1,325.1,279a15.62,15.62,0,0,1,5.32-.87,14.55,14.55,0,0,1,6.88,1.55,11.13,11.13,0,0,1,4.55,4.42,13.6,13.6,0,0,1,1.62,6.78,14.9,14.9,0,0,1-.92,5.35,11,11,0,0,1-6.73,6.57A15.53,15.53,0,0,1,330.42,303.71Zm0-5.6a4.85,4.85,0,0,0,4.75-3.15,10.11,10.11,0,0,0,.7-4c0-2.43-.5-4.23-1.5-5.38a5,5,0,0,0-3.95-1.72,5.26,5.26,0,0,0-2.82.75,4.84,4.84,0,0,0-1.91,2.35,10.54,10.54,0,0,0-.67,4c0,2.47.5,4.28,1.5,5.45A4.88,4.88,0,0,0,330.42,298.11Z"/><polygon class="e" points="359.77 26.97 359.77 95.29 382.72 75.65 405.66 95.47 405.66 26.97 359.77 26.97"/></svg>