<?xml version="1.0" encoding="UTF-8"?><svg xmlns="http://www.w3.org/2000/svg" viewBox="0 0 512 452.12"><defs><style>.af{fill:none;}.ag{fill:#008cba;}.ah{fill:#fff;}.ai{fill:#dddfe0;}</style></defs><g id="a"/><g id="b"/><g id="c"/><g id="d"/><g id="e"/><g id="f"/><g id="g"/><g id="h"/><g id="i"/><g id="j"/><g id="k"/><g id="l"/><g id="m"/><g id="n"/><g id="o"/><g id="p"/><g id="q"/><g id="r"/><g id="s"/><g id="t"/><g id="u"/><g id="v"><g id="w"/></g><g id="x"/><g id="y"/><g id="a`"><rect class="ag" x="63.48" y="26.97" width="385.04" height="396.21" rx="33.19" ry="33.19"/><g><path class="af" d="M244.46,235.95c3.05-2.12,7.79-2.04,11.56-.25l11.7-12.97c-3.57-2.25-7.46-3.51-12.01-3.32-6.1,.26-11.63,1.96-15.96,6.24-13.5,13.31-26.96,26.67-40.15,40.28-5.13,5.3-7.78,12.04-6.56,19.58,.84,5.22,3.31,9.52,6.69,12.61l41.69-46.23c-.83-1.21-1.46-2.58-1.75-4.19-.87-4.86,.68-8.9,4.8-11.76Z"/><path class="ah" d="M193.03,285.52c-1.22-7.53,1.43-14.28,6.56-19.58,13.19-13.61,26.66-26.97,40.15-40.28,4.34-4.28,9.86-5.98,15.96-6.24,4.55-.2,8.43,1.07,12.01,3.32l15.37-17.05c-10.1-8.21-22.09-10.43-35.06-8.35-10.34,1.65-18.89,6.77-26.28,14.52-13.15,13.81-27.53,26.47-40.28,40.62-15.74,17.46-15.93,45.58,3.07,62.49l15.19-16.85c-3.38-3.1-5.84-7.39-6.69-12.61Z"/><path class="ah" d="M244.46,235.95c-4.11,2.86-5.66,6.9-4.8,11.76,.29,1.61,.91,2.98,1.75,4.19l14.6-16.19c-3.76-1.8-8.5-1.87-11.56,.25Z"/><path class="ah" d="M332.43,139.59c-16.13-6.75-31.78-4.16-44.87,6.79-12.48,10.44-23.47,22.69-35.1,34.15-.24,.24-.31,.65-.74,1.59,1.26,.06,2.1,0,2.89,.16,6.31,1.2,12.71,2.12,18.87,3.84,2.46,.69,3.73,.49,5.46-1.18,6.82-6.56,13.71-13.05,20.73-19.41,5.54-5.01,12.18-7.56,19.59-6.26,1.6,.28,3.11,.72,4.52,1.29l15.65-17.36c-2.17-1.34-4.5-2.56-7.01-3.61Z"/><path class="af" d="M284.94,226.37c-3.8,2.59-9.89,2.05-14.2-1.46-.99-.8-1.99-1.52-3.03-2.17l-11.7,12.97c.4,.19,.78,.39,1.16,.62,3.68,2.25,7.31,5.12,11.35,6.12,8.09,2,15.61-.41,21.62-6.22,11.11-10.73,22.1-21.59,32.94-32.6,3.8-3.86,7.68-7.91,10.38-12.55,6.97-11.95,2.04-25.82-9.67-30.52l-40.71,45.14c1.09,.89,2.17,1.82,3.21,2.85,5.57,5.48,4.84,13.6-1.35,17.83Z"/><path class="ai" d="M270.74,224.91c4.31,3.51,10.41,4.05,14.2,1.46,6.19-4.22,6.92-12.35,1.35-17.83-1.05-1.03-2.12-1.96-3.21-2.85l-15.37,17.05c1.03,.65,2.04,1.37,3.03,2.17Z"/><path class="ai" d="M245.09,313.44c10.88-10.27,21.24-21.09,31.83-31.67,.42-.42,.74-.93,1.51-1.91-8.06,.56-15.28-.16-21.88-3.29-3.45-1.63-5.22-.79-7.63,1.58-7.17,7.08-14.13,14.49-22.01,20.7-8.84,6.96-20.05,5.8-27.18-.72l-15.19,16.85c1.59,1.41,3.29,2.76,5.15,4,17.02,11.39,39.88,9.14,55.41-5.54Z"/><path class="ai" d="M333.46,191.08c-2.7,4.64-6.58,8.69-10.38,12.55-10.84,11.01-21.82,21.87-32.94,32.6-6.02,5.81-13.53,8.22-21.62,6.22-4.04-1-7.67-3.87-11.35-6.12-.37-.23-.76-.43-1.16-.62l-14.6,16.19c1.52,2.21,3.74,3.91,5.93,5.57,16.31,12.39,42.59,10.9,58.63-4.98,13.82-13.69,27.66-27.37,41.1-41.43,9.56-10.01,13.55-22.53,11.94-36.18-1.65-13.97-8.33-24.72-19.55-31.67l-15.65,17.36c11.7,4.71,16.63,18.57,9.67,30.52Z"/></g></g><g id="aa"/><g id="ab"/><g id="ac"/><g id="ad"/><g id="ae"/></svg>