<svg xmlns="http://www.w3.org/2000/svg" viewBox="0 0 512 452.12"><defs><style>.a{fill:#595959;}.b{fill:#ce852e;}.c{fill:#bc782e;}.d{fill:#fff;}.e{fill:#821717;}</style></defs><path class="a" d="M123.81,391.69c-6.66.06-13.32.08-20,.19a23.4,23.4,0,0,0-15.94,5.95c-1.8,1.63-2,2.89-.08,4.63a23.39,23.39,0,0,0,15.4,6.07c1.42.06,2.85,0,4.28,0q148.87,0,297.74.05c11.22,0,19.25-3.39,23.18-12.54,1.58,15.62,2.05,22.87-14.66,29.08H98.06c-7.39-2.71-13.32-6.61-14.76-13.51-.63-3-.42-6.2-.42-9.3q0-178.81,0-357.63c0-8.92,5.86-14.27,15.23-17.73h25.75Z"/><path class="b" d="M123.81,27h289c12.11,3.33,16.37,10.31,16.35,20.53q-.33,162.33,0,324.65c0,10.77-8.05,19.6-24.13,19.54-92-.34-184-.16-276-.17-1.74,0-3.48-.11-5.23-.17Q123.82,209.16,123.81,27Z"/><path class="c" d="M428.06,43c0,9.07-.24,219.27,0,328.91,0,10.91-8.05,19.86-24.13,19.8-92-.34-184-.17-276-.18-1.74,0-5.22-.16-5.22-.16S428.07,33.91,428.06,43Z"/><path class="d" d="M137.23,208.3a3.75,3.75,0,0,1-2.23-.61A2.56,2.56,0,0,1,134,206a4.11,4.11,0,0,1,.39-2.4l12.59-27.54a5.83,5.83,0,0,1,1.89-2.35,4.37,4.37,0,0,1,2.47-.74,4.31,4.31,0,0,1,2.5.74,5.88,5.88,0,0,1,1.87,2.35l12.59,27.54a4.17,4.17,0,0,1,.46,2.42,2.43,2.43,0,0,1-1,1.67,3.6,3.6,0,0,1-2.14.61,3.88,3.88,0,0,1-2.57-.76,6.19,6.19,0,0,1-1.59-2.42l-2.94-6.81,3,2.1H141.05l3-2.1-2.89,6.81a8.07,8.07,0,0,1-1.57,2.42A3.31,3.31,0,0,1,137.23,208.3Zm14-26.85-6.33,15-1.32-2h15.34l-1.28,2-6.32-15Z"/><path class="d" d="M181.33,208.4a27.52,27.52,0,0,1-4.41-.37,13.48,13.48,0,0,1-4.11-1.3,3,3,0,0,1-1.45-1.25,2.81,2.81,0,0,1-.37-1.56,2.58,2.58,0,0,1,.52-1.42,2.33,2.33,0,0,1,1.22-.84,2.49,2.49,0,0,1,1.69.17,20.28,20.28,0,0,0,3.7,1.18,16.35,16.35,0,0,0,3.26.34,5.43,5.43,0,0,0,3-.68,2.09,2.09,0,0,0,1-1.77,1.59,1.59,0,0,0-.64-1.39,4.66,4.66,0,0,0-1.86-.71l-5.19-.94a8.6,8.6,0,0,1-4.63-2.25,5.87,5.87,0,0,1-1.65-4.31,6.68,6.68,0,0,1,1.38-4.26,8.63,8.63,0,0,1,3.79-2.72,14.93,14.93,0,0,1,5.52-1,19.5,19.5,0,0,1,4,.39,14,14,0,0,1,3.6,1.33A2.43,2.43,0,0,1,191,186.2a2.37,2.37,0,0,1,.22,1.52,3.33,3.33,0,0,1-.61,1.4,2.3,2.3,0,0,1-1.23.83,2.67,2.67,0,0,1-1.79-.22,20.18,20.18,0,0,0-2.89-.95,10.12,10.12,0,0,0-2.45-.32,6,6,0,0,0-3.26.68,2.07,2.07,0,0,0-1,1.77,1.85,1.85,0,0,0,.59,1.39,3.23,3.23,0,0,0,1.76.76l5.2.88a9.25,9.25,0,0,1,4.8,2.19,5.64,5.64,0,0,1,1.66,4.28,6.84,6.84,0,0,1-2.91,5.91A13.08,13.08,0,0,1,181.33,208.4Z"/><path class="d" d="M205.44,208.4A27.43,27.43,0,0,1,201,208a13.55,13.55,0,0,1-4.12-1.3,3,3,0,0,1-1.44-1.25,2.81,2.81,0,0,1-.37-1.56,2.44,2.44,0,0,1,.52-1.42,2.29,2.29,0,0,1,1.22-.84,2.49,2.49,0,0,1,1.69.17,20,20,0,0,0,3.7,1.18,16.28,16.28,0,0,0,3.26.34,5.45,5.45,0,0,0,3-.68,2.09,2.09,0,0,0,1-1.77,1.62,1.62,0,0,0-.64-1.39,4.78,4.78,0,0,0-1.86-.71l-5.2-.94a8.67,8.67,0,0,1-4.63-2.25,5.9,5.9,0,0,1-1.64-4.31,6.73,6.73,0,0,1,1.37-4.26,8.66,8.66,0,0,1,3.8-2.72,14.91,14.91,0,0,1,5.51-1,19.6,19.6,0,0,1,4.05.39,14,14,0,0,1,3.6,1.33,2.43,2.43,0,0,1,1.25,1.12,2.37,2.37,0,0,1,.22,1.52,3.33,3.33,0,0,1-.61,1.4,2.34,2.34,0,0,1-1.23.83,2.67,2.67,0,0,1-1.79-.22,20.6,20.6,0,0,0-2.89-.95,10.12,10.12,0,0,0-2.45-.32,6,6,0,0,0-3.26.68,2.07,2.07,0,0,0-1,1.77,1.82,1.82,0,0,0,.59,1.39,3.23,3.23,0,0,0,1.76.76l5.19.88a9.33,9.33,0,0,1,4.81,2.19,5.64,5.64,0,0,1,1.66,4.28,6.84,6.84,0,0,1-2.91,5.91A13.12,13.12,0,0,1,205.44,208.4Z"/><path class="d" d="M232.83,208.4a16.42,16.42,0,0,1-7.33-1.52,10.87,10.87,0,0,1-4.7-4.34,13,13,0,0,1-1.64-6.68,12.83,12.83,0,0,1,1.59-6.5,11.83,11.83,0,0,1,4.39-4.38,12.36,12.36,0,0,1,6.32-1.62,12.54,12.54,0,0,1,4.78.86,10.21,10.21,0,0,1,5.9,6.32,15.59,15.59,0,0,1,.78,5.07,1.68,1.68,0,0,1-.58,1.4,2.75,2.75,0,0,1-1.72.46H225.28v-3.82h12.3l-.78.69a8.46,8.46,0,0,0-.59-3.36,4.5,4.5,0,0,0-1.69-2.06,4.94,4.94,0,0,0-2.72-.71,5.57,5.57,0,0,0-3.09.83,5.37,5.37,0,0,0-2,2.43,9.7,9.7,0,0,0-.68,3.8v.39q0,3.72,1.71,5.49a7,7,0,0,0,5.2,1.76,14.53,14.53,0,0,0,2.67-.29,12.93,12.93,0,0,0,2.86-.93,3.18,3.18,0,0,1,2-.35,2.41,2.41,0,0,1,1.91,2.26,3.14,3.14,0,0,1-.36,1.64,3.33,3.33,0,0,1-1.4,1.35,12.43,12.43,0,0,1-3.82,1.39A20.66,20.66,0,0,1,232.83,208.4Z"/><path class="d" d="M256.45,208.4A27.33,27.33,0,0,1,252,208a13.55,13.55,0,0,1-4.12-1.3,3,3,0,0,1-1.44-1.25,2.81,2.81,0,0,1-.37-1.56,2.5,2.5,0,0,1,.51-1.42,2.32,2.32,0,0,1,1.23-.84,2.49,2.49,0,0,1,1.69.17,20,20,0,0,0,3.7,1.18,16.28,16.28,0,0,0,3.26.34,5.39,5.39,0,0,0,3-.68,2.07,2.07,0,0,0,1-1.77,1.61,1.61,0,0,0-.63-1.39,4.78,4.78,0,0,0-1.86-.71l-5.2-.94a8.67,8.67,0,0,1-4.63-2.25,5.9,5.9,0,0,1-1.64-4.31,6.73,6.73,0,0,1,1.37-4.26,8.66,8.66,0,0,1,3.8-2.72,14.87,14.87,0,0,1,5.51-1,19.44,19.44,0,0,1,4,.39,14,14,0,0,1,3.61,1.33,2.41,2.41,0,0,1,1.24,1.12,2.38,2.38,0,0,1,.23,1.52,3.35,3.35,0,0,1-.62,1.4,2.32,2.32,0,0,1-1.22.83,2.67,2.67,0,0,1-1.79-.22,21,21,0,0,0-2.89-.95,10.12,10.12,0,0,0-2.45-.32,6,6,0,0,0-3.26.68,2.07,2.07,0,0,0-1,1.77,1.84,1.84,0,0,0,.58,1.39,3.26,3.26,0,0,0,1.77.76l5.19.88a9.25,9.25,0,0,1,4.8,2.19,5.65,5.65,0,0,1,1.67,4.28,6.83,6.83,0,0,1-2.92,5.91A13.06,13.06,0,0,1,256.45,208.4Z"/><path class="d" d="M280.55,208.4a27.52,27.52,0,0,1-4.41-.37,13.57,13.57,0,0,1-4.11-1.3,3,3,0,0,1-1.45-1.25,2.8,2.8,0,0,1-.36-1.56,2.5,2.5,0,0,1,.51-1.42,2.33,2.33,0,0,1,1.22-.84,2.52,2.52,0,0,1,1.7.17,20,20,0,0,0,3.7,1.18,16.18,16.18,0,0,0,3.25.34,5.4,5.4,0,0,0,3-.68,2.09,2.09,0,0,0,1-1.77,1.61,1.61,0,0,0-.63-1.39,4.77,4.77,0,0,0-1.87-.71l-5.19-.94a8.64,8.64,0,0,1-4.63-2.25,5.86,5.86,0,0,1-1.64-4.31A6.67,6.67,0,0,1,272,187a8.61,8.61,0,0,1,3.8-2.72,14.84,14.84,0,0,1,5.51-1,19.44,19.44,0,0,1,4,.39,13.76,13.76,0,0,1,3.6,1.33,2.39,2.39,0,0,1,1.25,1.12,2.31,2.31,0,0,1,.22,1.52,3.33,3.33,0,0,1-.61,1.4,2.32,2.32,0,0,1-1.22.83,2.66,2.66,0,0,1-1.79-.22,21,21,0,0,0-2.89-.95,10.19,10.19,0,0,0-2.45-.32,6,6,0,0,0-3.26.68,2.08,2.08,0,0,0-1,1.77,1.85,1.85,0,0,0,.59,1.39,3.23,3.23,0,0,0,1.77.76l5.19.88a9.25,9.25,0,0,1,4.8,2.19,5.65,5.65,0,0,1,1.67,4.28,6.85,6.85,0,0,1-2.92,5.91A13.08,13.08,0,0,1,280.55,208.4Z"/><path class="d" d="M299.22,208.3a3.36,3.36,0,0,1-3.67-3.72v-17.4a3.78,3.78,0,0,1,.95-2.77,3.72,3.72,0,0,1,2.72-.95,3.55,3.55,0,0,1,2.65.95,3.82,3.82,0,0,1,.93,2.77v3.09l-.54-1.86a8.17,8.17,0,0,1,3-3.68,8.57,8.57,0,0,1,4.85-1.37,7.89,7.89,0,0,1,4.66,1.32,7.22,7.22,0,0,1,2.64,4h-.68a8.57,8.57,0,0,1,3.33-3.89,9.17,9.17,0,0,1,5.09-1.45,8.8,8.8,0,0,1,4.56,1.08,6.47,6.47,0,0,1,2.7,3.36,16.06,16.06,0,0,1,.88,5.7v11.08a3.88,3.88,0,0,1-6.42,2.77,3.67,3.67,0,0,1-1-2.77V193.75a6.57,6.57,0,0,0-.74-3.55,2.93,2.93,0,0,0-2.64-1.11,3.94,3.94,0,0,0-3.24,1.47,6.55,6.55,0,0,0-1.17,4.17v9.85a3.74,3.74,0,0,1-1,2.77,3.7,3.7,0,0,1-2.72,1,3.79,3.79,0,0,1-2.74-1,3.67,3.67,0,0,1-1-2.77V193.75a6.17,6.17,0,0,0-.79-3.55,2.89,2.89,0,0,0-2.54-1.11,4,4,0,0,0-3.29,1.47,6.55,6.55,0,0,0-1.17,4.17v9.85C303,207.06,301.7,208.3,299.22,208.3Z"/><path class="d" d="M351.51,208.4a16.36,16.36,0,0,1-7.33-1.52,10.87,10.87,0,0,1-4.7-4.34,14.18,14.18,0,0,1-.05-13.18,11.8,11.8,0,0,1,4.38-4.38,12.36,12.36,0,0,1,6.32-1.62,12.5,12.5,0,0,1,4.78.86,10.26,10.26,0,0,1,5.91,6.32,15.59,15.59,0,0,1,.78,5.07A1.69,1.69,0,0,1,361,197a2.7,2.7,0,0,1-1.71.46H344v-3.82h12.3l-.79.69a8.47,8.47,0,0,0-.58-3.36,4.57,4.57,0,0,0-1.69-2.06,5,5,0,0,0-2.72-.71,5.57,5.57,0,0,0-3.09.83,5.37,5.37,0,0,0-2,2.43,9.52,9.52,0,0,0-.69,3.8v.39c0,2.48.58,4.31,1.72,5.49a7,7,0,0,0,5.19,1.76,14.35,14.35,0,0,0,2.67-.29,12.84,12.84,0,0,0,2.87-.93,3.17,3.17,0,0,1,2-.35,2.47,2.47,0,0,1,1.35.81,2.41,2.41,0,0,1,.56,1.45,3.15,3.15,0,0,1-.37,1.64,3.3,3.3,0,0,1-1.39,1.35,12.49,12.49,0,0,1-3.83,1.39A20.49,20.49,0,0,1,351.51,208.4Z"/><path class="d" d="M369.59,208.3a3.36,3.36,0,0,1-3.68-3.72v-17.4a3.74,3.74,0,0,1,1-2.77,3.69,3.69,0,0,1,2.72-.95,3.54,3.54,0,0,1,2.64.95,3.82,3.82,0,0,1,.93,2.77V190l-.54-1.57a7.79,7.79,0,0,1,3.34-3.75,9.86,9.86,0,0,1,5-1.3,9.24,9.24,0,0,1,4.78,1.1,6.8,6.8,0,0,1,2.77,3.36,15,15,0,0,1,.93,5.68v11.08a3.82,3.82,0,0,1-.93,2.77,3.69,3.69,0,0,1-2.74,1,3.79,3.79,0,0,1-2.72-1,3.65,3.65,0,0,1-1-2.77V193.8a5.62,5.62,0,0,0-.91-3.6,3.3,3.3,0,0,0-2.72-1.11,4.92,4.92,0,0,0-3.74,1.47,5.47,5.47,0,0,0-1.4,3.92v10.1Q373.31,208.3,369.59,208.3Z"/><path class="d" d="M406.87,208.4a13,13,0,0,1-5.66-1.1,7.12,7.12,0,0,1-3.35-3.26,12.11,12.11,0,0,1-1.08-5.44v-9.26h-2.16a3,3,0,0,1-2.08-.71,2.68,2.68,0,0,1-.76-2,2.57,2.57,0,0,1,.76-2,3,3,0,0,1,2.08-.69h2.16v-3.77a3.32,3.32,0,0,1,3.68-3.73,3.79,3.79,0,0,1,2.76.93,3.74,3.74,0,0,1,1,2.8v3.77h4.56a3,3,0,0,1,2.15.69,2.6,2.6,0,0,1,.74,2,2.7,2.7,0,0,1-.74,2,3,3,0,0,1-2.15.71h-4.56v9a4.38,4.38,0,0,0,.93,3.06,4,4,0,0,0,3,1,6.89,6.89,0,0,0,1.39-.14,5.25,5.25,0,0,1,1.11-.15,1.4,1.4,0,0,1,1.15.42,3,3,0,0,1,.46,2,5.58,5.58,0,0,1-.36,2.11,2.18,2.18,0,0,1-1.4,1.22,15.78,15.78,0,0,1-3.63.54Z"/><path class="d" d="M197.7,267.91a4.06,4.06,0,0,1-3-1.05,4.14,4.14,0,0,1-1-3.05V236.76a4.14,4.14,0,0,1,1-3,4.06,4.06,0,0,1,3-1.05h9.75q9,0,14,4.57t4.95,13a20.69,20.69,0,0,1-1.28,7.5,14.6,14.6,0,0,1-3.7,5.55,16,16,0,0,1-5.9,3.42,24.8,24.8,0,0,1-8,1.18Zm3.7-6.35H207a15.18,15.18,0,0,0,5-.73,9.13,9.13,0,0,0,3.53-2.1,8.57,8.57,0,0,0,2.1-3.5,16.07,16.07,0,0,0,.7-5c0-3.8-.94-6.62-2.8-8.48S210.75,239,207,239H201.4Z"/><path class="d" d="M244.45,268.41a16.72,16.72,0,0,1-7.48-1.55,11.14,11.14,0,0,1-4.8-4.43,14.57,14.57,0,0,1,0-13.45,12,12,0,0,1,4.48-4.47,12.64,12.64,0,0,1,6.45-1.65,12.78,12.78,0,0,1,4.87.87,10.78,10.78,0,0,1,3.68,2.5,10.93,10.93,0,0,1,2.35,4,16,16,0,0,1,.8,5.18,1.69,1.69,0,0,1-.6,1.42,2.76,2.76,0,0,1-1.75.48H236.75v-3.9H249.3l-.8.7a8.52,8.52,0,0,0-.6-3.42,4.67,4.67,0,0,0-1.73-2.11,5,5,0,0,0-2.77-.72,5.57,5.57,0,0,0-3.15.85,5.36,5.36,0,0,0-2,2.48,9.66,9.66,0,0,0-.7,3.87v.4q0,3.79,1.75,5.6t5.3,1.8a14.26,14.26,0,0,0,2.72-.3,13,13,0,0,0,2.93-.95,3.22,3.22,0,0,1,2.05-.35,2.47,2.47,0,0,1,1.95,2.3,3.22,3.22,0,0,1-.38,1.67,3.38,3.38,0,0,1-1.42,1.38,12.69,12.69,0,0,1-3.9,1.42A20.72,20.72,0,0,1,244.45,268.41Z"/><path class="d" d="M268.55,268.41a28.47,28.47,0,0,1-4.5-.38,14,14,0,0,1-4.2-1.32,3.16,3.16,0,0,1-1.48-1.28,2.84,2.84,0,0,1-.37-1.6,2.5,2.5,0,0,1,.52-1.44,2.35,2.35,0,0,1,1.25-.86,2.61,2.61,0,0,1,1.73.18,20,20,0,0,0,3.77,1.2,17,17,0,0,0,3.33.35,5.45,5.45,0,0,0,3.1-.7,2.14,2.14,0,0,0,1-1.8,1.68,1.68,0,0,0-.65-1.43,5.1,5.1,0,0,0-1.9-.72l-5.3-.95a8.86,8.86,0,0,1-4.73-2.3,6,6,0,0,1-1.67-4.4,6.83,6.83,0,0,1,1.4-4.35,8.88,8.88,0,0,1,3.87-2.78,15.28,15.28,0,0,1,5.63-1,19.52,19.52,0,0,1,4.12.4,14.48,14.48,0,0,1,3.68,1.35,2.48,2.48,0,0,1,1.27,1.15,2.4,2.4,0,0,1,.23,1.55,3.27,3.27,0,0,1-.63,1.42,2.33,2.33,0,0,1-1.25.85,2.69,2.69,0,0,1-1.82-.22,20.59,20.59,0,0,0-2.95-1,10.62,10.62,0,0,0-2.5-.33,6,6,0,0,0-3.33.7,2.11,2.11,0,0,0-1,1.8,1.87,1.87,0,0,0,.6,1.42,3.27,3.27,0,0,0,1.8.78l5.3.9a9.44,9.44,0,0,1,4.9,2.23,5.77,5.77,0,0,1,1.7,4.37,7,7,0,0,1-3,6A13.32,13.32,0,0,1,268.55,268.41Z"/><path class="d" d="M287.5,238.91a4.5,4.5,0,0,1-3.15-1,3.64,3.64,0,0,1-1.1-2.85,3.5,3.5,0,0,1,1.1-2.78,4.64,4.64,0,0,1,3.15-1,4.82,4.82,0,0,1,3.22,1,3.49,3.49,0,0,1,1.13,2.78,3.63,3.63,0,0,1-1.13,2.85A4.67,4.67,0,0,1,287.5,238.91Zm0,29.4a3.55,3.55,0,0,1-2.75-1.08,4.23,4.23,0,0,1-1-3V247.06a4.18,4.18,0,0,1,1-3,3.66,3.66,0,0,1,2.75-1,3.72,3.72,0,0,1,2.82,1,4.26,4.26,0,0,1,1,3v17.15a4.41,4.41,0,0,1-.95,3A3.61,3.61,0,0,1,287.5,268.31Z"/><path class="d" d="M309,277.41a29.93,29.93,0,0,1-5.18-.43,16.62,16.62,0,0,1-4.37-1.32,3.13,3.13,0,0,1-1.63-1.27,2.75,2.75,0,0,1-.37-1.73,3.39,3.39,0,0,1,.57-1.6,2.51,2.51,0,0,1,1.3-1,2.34,2.34,0,0,1,1.73.13,15.87,15.87,0,0,0,4.07,1.3,20.91,20.91,0,0,0,3.23.3,6.94,6.94,0,0,0,4.8-1.45,5.74,5.74,0,0,0,1.6-4.45v-3.85h.45a7,7,0,0,1-3.1,3.8,9.86,9.86,0,0,1-5.2,1.4,10.62,10.62,0,0,1-5.75-1.53,10.13,10.13,0,0,1-3.8-4.25,14.27,14.27,0,0,1-1.35-6.42,15.21,15.21,0,0,1,.77-5,11.27,11.27,0,0,1,2.2-3.85,9.77,9.77,0,0,1,3.45-2.48,11.22,11.22,0,0,1,4.48-.87,9.64,9.64,0,0,1,5.22,1.42,6.64,6.64,0,0,1,3,3.68l-.45,1.7v-2.9a3.43,3.43,0,0,1,3.75-3.8,3.68,3.68,0,0,1,2.75,1,3.92,3.92,0,0,1,.95,2.83V265q0,6.19-3.35,9.3T309,277.41Zm.15-15.75a5.13,5.13,0,0,0,4.85-3.08,8.21,8.21,0,0,0,.7-3.52,7.14,7.14,0,0,0-1.5-4.83,5.09,5.09,0,0,0-4-1.72,5.37,5.37,0,0,0-3,.8,5.21,5.21,0,0,0-1.9,2.25,8.25,8.25,0,0,0-.67,3.5,7.27,7.27,0,0,0,1.5,4.83A5,5,0,0,0,309.1,261.66Z"/><path class="d" d="M331.65,268.31a3.44,3.44,0,0,1-3.75-3.8V246.76a3.84,3.84,0,0,1,1-2.83,3.76,3.76,0,0,1,2.78-1,3.62,3.62,0,0,1,2.7,1,3.92,3.92,0,0,1,.95,2.83v2.85l-.55-1.6a8,8,0,0,1,3.4-3.83,10.15,10.15,0,0,1,5.15-1.32,9.36,9.36,0,0,1,4.87,1.12,7,7,0,0,1,2.83,3.43,15.36,15.36,0,0,1,.95,5.8v11.3a3.89,3.89,0,0,1-.95,2.82,3.76,3.76,0,0,1-2.8,1,3.86,3.86,0,0,1-2.78-1,3.72,3.72,0,0,1-1-2.82v-11a5.79,5.79,0,0,0-.93-3.68,3.38,3.38,0,0,0-2.77-1.12,5,5,0,0,0-3.83,1.5,5.56,5.56,0,0,0-1.42,4v10.3Q335.45,268.31,331.65,268.31Z"/><polygon class="e" points="357.56 26.97 357.56 95.29 380.5 75.65 403.45 95.47 403.45 26.97 357.56 26.97"/></svg>