<svg xmlns="http://www.w3.org/2000/svg" viewBox="0 0 512 452.12"><defs><style>.a{fill:#595959;}.b{fill:#ce852e;}.c{fill:#bc782e;}.d{fill:#fff;}.e{fill:#821717;}</style></defs><path class="a" d="M123.81,391.69c-6.66.06-13.32.08-20,.19a23.4,23.4,0,0,0-15.94,5.95c-1.8,1.63-2,2.89-.08,4.63a23.39,23.39,0,0,0,15.4,6.07c1.42.06,2.85,0,4.28,0q148.87,0,297.74.05c11.22,0,19.25-3.39,23.18-12.54,1.58,15.62,2.05,22.87-14.66,29.08H98.06c-7.39-2.71-13.32-6.61-14.76-13.51-.63-3-.42-6.2-.42-9.3q0-178.81,0-357.63c0-8.92,5.86-14.27,15.23-17.73h25.75Z"/><path class="b" d="M123.81,27h289c12.11,3.33,16.37,10.31,16.35,20.53q-.33,162.33,0,324.65c0,10.77-8.05,19.6-24.13,19.54-92-.34-184-.16-276-.17-1.74,0-3.48-.11-5.23-.17Q123.82,209.16,123.81,27Z"/><path class="c" d="M428.06,43c0,9.07-.24,219.27,0,328.91,0,10.91-8.05,19.86-24.13,19.8-92-.34-184-.17-276-.18-1.74,0-5.22-.16-5.22-.16S428.07,33.91,428.06,43Z"/><path class="d" d="M177.81,208.66a3.79,3.79,0,0,1-2.27-.63,2.63,2.63,0,0,1-1.08-1.72,4.21,4.21,0,0,1,.4-2.45l12.85-28.1a5.92,5.92,0,0,1,1.93-2.4,4.66,4.66,0,0,1,5.07,0,5.88,5.88,0,0,1,1.9,2.4l12.85,28.1a4.29,4.29,0,0,1,.48,2.47,2.5,2.5,0,0,1-1.05,1.7,3.65,3.65,0,0,1-2.18.63,4,4,0,0,1-2.62-.78,6.27,6.27,0,0,1-1.63-2.47l-3-6.95,3.1,2.15H181.71l3.1-2.15-2.95,6.95a8.28,8.28,0,0,1-1.6,2.47A3.38,3.38,0,0,1,177.81,208.66Zm14.3-27.4-6.45,15.3-1.35-2H200l-1.3,2-6.45-15.3Z"/><path class="d" d="M225.56,208.76a14.81,14.81,0,0,1-6.95-1.55,11,11,0,0,1-4.57-4.45,13.83,13.83,0,0,1-1.63-6.85,14.73,14.73,0,0,1,.9-5.3,10.78,10.78,0,0,1,2.63-4,11.7,11.7,0,0,1,4.17-2.53,16.55,16.55,0,0,1,8.78-.5,14.25,14.25,0,0,1,3.47,1.23,3.13,3.13,0,0,1,1.33,1.35,3,3,0,0,1,.27,1.67,3,3,0,0,1-.62,1.55,2.36,2.36,0,0,1-3.13.63,10.1,10.1,0,0,0-2-.78,7.59,7.59,0,0,0-1.93-.27,7,7,0,0,0-2.65.47,5.3,5.3,0,0,0-1.92,1.35,6,6,0,0,0-1.2,2.18,9.59,9.59,0,0,0-.43,2.95,7.84,7.84,0,0,0,1.63,5.22,5.64,5.64,0,0,0,4.57,1.93,7.64,7.64,0,0,0,1.9-.25,8.2,8.2,0,0,0,2-.8,2.34,2.34,0,0,1,1.78-.25,2.65,2.65,0,0,1,1.3.92,2.7,2.7,0,0,1,.57,1.55,3.35,3.35,0,0,1-.32,1.68,2.63,2.63,0,0,1-1.33,1.25,11.89,11.89,0,0,1-3.37,1.25A16.74,16.74,0,0,1,225.56,208.76Z"/><path class="d" d="M249,208.76a14.81,14.81,0,0,1-7-1.55,11,11,0,0,1-4.57-4.45,13.72,13.72,0,0,1-1.63-6.85,14.73,14.73,0,0,1,.9-5.3,10.78,10.78,0,0,1,2.63-4,11.7,11.7,0,0,1,4.17-2.53,16.55,16.55,0,0,1,8.78-.5,14.25,14.25,0,0,1,3.47,1.23,3.13,3.13,0,0,1,1.33,1.35,3,3,0,0,1,.27,1.67,3,3,0,0,1-.62,1.55,2.36,2.36,0,0,1-3.13.63,10.1,10.1,0,0,0-2-.78,7.59,7.59,0,0,0-1.93-.27,7,7,0,0,0-2.65.47,5.22,5.22,0,0,0-1.92,1.35,6,6,0,0,0-1.2,2.18,9.29,9.29,0,0,0-.43,2.95,7.79,7.79,0,0,0,1.63,5.22,5.64,5.64,0,0,0,4.57,1.93,7.64,7.64,0,0,0,1.9-.25,8.2,8.2,0,0,0,2-.8,2.34,2.34,0,0,1,1.78-.25,2.73,2.73,0,0,1,1.87,2.47,3.35,3.35,0,0,1-.32,1.68,2.63,2.63,0,0,1-1.33,1.25,11.89,11.89,0,0,1-3.37,1.25A16.74,16.74,0,0,1,249,208.76Z"/><path class="d" d="M273.16,208.76a16.68,16.68,0,0,1-7.47-1.55,11,11,0,0,1-4.8-4.43,13.26,13.26,0,0,1-1.68-6.82,13,13,0,0,1,1.63-6.63,12,12,0,0,1,4.47-4.47,12.64,12.64,0,0,1,6.45-1.65,12.8,12.8,0,0,1,4.88.87,10.74,10.74,0,0,1,3.67,2.5,10.58,10.58,0,0,1,2.35,3.95,15.69,15.69,0,0,1,.8,5.18,1.69,1.69,0,0,1-.6,1.42,2.74,2.74,0,0,1-1.75.48H265.46v-3.9H278l-.8.7a8.6,8.6,0,0,0-.6-3.43,4.67,4.67,0,0,0-1.72-2.1,5.06,5.06,0,0,0-2.78-.72A5.62,5.62,0,0,0,269,189a5.51,5.51,0,0,0-2,2.47,9.92,9.92,0,0,0-.7,3.88v.4c0,2.53.59,4.4,1.75,5.6a7.1,7.1,0,0,0,5.3,1.8,14.36,14.36,0,0,0,2.73-.3,13,13,0,0,0,2.92-1,3.23,3.23,0,0,1,2.05-.35,2.5,2.5,0,0,1,1.38.82,2.44,2.44,0,0,1,.57,1.48,3.14,3.14,0,0,1-.37,1.67,3.41,3.41,0,0,1-1.43,1.38,12.5,12.5,0,0,1-3.9,1.42A20.64,20.64,0,0,1,273.16,208.76Z"/><path class="d" d="M297.26,208.76a28.67,28.67,0,0,1-4.5-.38,14.16,14.16,0,0,1-4.2-1.32,3.08,3.08,0,0,1-1.47-1.28,2.87,2.87,0,0,1-.38-1.6,2.64,2.64,0,0,1,.53-1.45,2.35,2.35,0,0,1,1.25-.85,2.52,2.52,0,0,1,1.72.18,20.34,20.34,0,0,0,3.78,1.2,17,17,0,0,0,3.32.35,5.42,5.42,0,0,0,3.1-.7,2.12,2.12,0,0,0,1-1.8,1.65,1.65,0,0,0-.65-1.43,5,5,0,0,0-1.9-.72l-5.3-1a8.83,8.83,0,0,1-4.72-2.3,6,6,0,0,1-1.68-4.4,6.89,6.89,0,0,1,1.4-4.35,9,9,0,0,1,3.88-2.78,15.23,15.23,0,0,1,5.62-1,19.62,19.62,0,0,1,4.13.4,14.42,14.42,0,0,1,3.67,1.35,2.51,2.51,0,0,1,1.28,1.15,2.39,2.39,0,0,1,.22,1.55,3.37,3.37,0,0,1-.62,1.42,2.37,2.37,0,0,1-1.25.85,2.72,2.72,0,0,1-1.83-.22,21.61,21.61,0,0,0-3-1,11.05,11.05,0,0,0-2.5-.32,6,6,0,0,0-3.32.7,2.1,2.1,0,0,0-1,1.8,1.87,1.87,0,0,0,.6,1.42,3.27,3.27,0,0,0,1.8.78l5.3.9a9.43,9.43,0,0,1,4.9,2.22,5.77,5.77,0,0,1,1.7,4.38,7,7,0,0,1-3,6A13.37,13.37,0,0,1,297.26,208.76Z"/><path class="d" d="M321.86,208.76a28.67,28.67,0,0,1-4.5-.38,14.16,14.16,0,0,1-4.2-1.32,3.08,3.08,0,0,1-1.47-1.28,2.87,2.87,0,0,1-.38-1.6,2.64,2.64,0,0,1,.53-1.45,2.35,2.35,0,0,1,1.25-.85,2.52,2.52,0,0,1,1.72.18,20.34,20.34,0,0,0,3.78,1.2,17,17,0,0,0,3.32.35,5.42,5.42,0,0,0,3.1-.7,2.12,2.12,0,0,0,1-1.8,1.65,1.65,0,0,0-.65-1.43,5,5,0,0,0-1.9-.72l-5.3-1a8.83,8.83,0,0,1-4.72-2.3,6,6,0,0,1-1.68-4.4,6.89,6.89,0,0,1,1.4-4.35,9,9,0,0,1,3.88-2.78,15.23,15.23,0,0,1,5.62-1,19.62,19.62,0,0,1,4.13.4,14.42,14.42,0,0,1,3.67,1.35,2.51,2.51,0,0,1,1.28,1.15,2.39,2.39,0,0,1,.22,1.55,3.37,3.37,0,0,1-.62,1.42,2.37,2.37,0,0,1-1.25.85,2.72,2.72,0,0,1-1.83-.22,21.61,21.61,0,0,0-2.95-1,11.05,11.05,0,0,0-2.5-.32,6,6,0,0,0-3.32.7,2.1,2.1,0,0,0-1,1.8,1.87,1.87,0,0,0,.6,1.42,3.27,3.27,0,0,0,1.8.78l5.3.9a9.43,9.43,0,0,1,4.9,2.22,5.77,5.77,0,0,1,1.7,4.38,7,7,0,0,1-3,6A13.37,13.37,0,0,1,321.86,208.76Z"/><path class="d" d="M340,197.81a2.91,2.91,0,0,1-2.12-.85,2.8,2.8,0,0,1-.88-2.1,2.75,2.75,0,0,1,.88-2.15,3,3,0,0,1,2.12-.8h10.3a3,3,0,0,1,2.15.8,2.79,2.79,0,0,1,.85,2.15,2.85,2.85,0,0,1-.85,2.1,2.9,2.9,0,0,1-2.15.85Z"/><path class="d" d="M204.06,239.26a4.53,4.53,0,0,1-3.15-1,3.68,3.68,0,0,1-1.1-2.85,3.54,3.54,0,0,1,1.1-2.78,4.62,4.62,0,0,1,3.15-1,4.79,4.79,0,0,1,3.23,1,3.48,3.48,0,0,1,1.12,2.78,3.62,3.62,0,0,1-1.12,2.85A4.7,4.7,0,0,1,204.06,239.26Zm0,29.4a3.58,3.58,0,0,1-2.75-1.08,4.28,4.28,0,0,1-1-3V247.41a4.22,4.22,0,0,1,1-3,3.69,3.69,0,0,1,2.75-1,3.73,3.73,0,0,1,2.83,1,4.26,4.26,0,0,1,1,3v17.15a4.36,4.36,0,0,1-1,3A3.59,3.59,0,0,1,204.06,268.66Z"/><path class="d" d="M228.86,268.76a9.49,9.49,0,0,1-5.22-1.45,6.94,6.94,0,0,1-3-3.9l.55-1.65v3.1a3.82,3.82,0,0,1-1,2.82,3.69,3.69,0,0,1-2.73,1,3.74,3.74,0,0,1-2.77-1,3.82,3.82,0,0,1-1-2.82V236.41a3.77,3.77,0,0,1,1-2.85,3.86,3.86,0,0,1,2.75-.95,3.9,3.9,0,0,1,2.83.95,3.8,3.8,0,0,1,1,2.85v11.85h-.55a6.77,6.77,0,0,1,3-3.65,9.58,9.58,0,0,1,5.15-1.4,10.2,10.2,0,0,1,5.65,1.55,10.35,10.35,0,0,1,3.75,4.4,15.77,15.77,0,0,1,1.35,6.8,16.41,16.41,0,0,1-1.32,6.85,9.81,9.81,0,0,1-3.78,4.42A10.42,10.42,0,0,1,228.86,268.76Zm-2.25-5.6a5.16,5.16,0,0,0,2.83-.78,4.92,4.92,0,0,0,1.9-2.37,10.51,10.51,0,0,0,.67-4c0-2.43-.5-4.23-1.5-5.38a4.92,4.92,0,0,0-3.9-1.72,5.28,5.28,0,0,0-2.82.75,4.82,4.82,0,0,0-1.9,2.35,10.34,10.34,0,0,0-.68,4c0,2.47.5,4.28,1.5,5.45A4.88,4.88,0,0,0,226.61,263.16Z"/><path class="d" d="M248,239.26a4.53,4.53,0,0,1-3.15-1,3.68,3.68,0,0,1-1.1-2.85,3.54,3.54,0,0,1,1.1-2.78,4.62,4.62,0,0,1,3.15-1,4.79,4.79,0,0,1,3.23,1,3.48,3.48,0,0,1,1.12,2.78,3.62,3.62,0,0,1-1.12,2.85A4.7,4.7,0,0,1,248,239.26Zm0,29.4a3.58,3.58,0,0,1-2.75-1.08,4.28,4.28,0,0,1-1-3V247.41a4.22,4.22,0,0,1,1-3,3.69,3.69,0,0,1,2.75-1,3.73,3.73,0,0,1,2.83,1,4.26,4.26,0,0,1,1,3v17.15a4.36,4.36,0,0,1-.95,3A3.59,3.59,0,0,1,248,268.66Z"/><path class="d" d="M266.46,268.76q-4.44,0-6.65-2.45t-2.2-7.35V236.41a3.73,3.73,0,0,1,1-2.85,3.84,3.84,0,0,1,2.75-.95,3.92,3.92,0,0,1,2.83.95,3.8,3.8,0,0,1,1,2.85v22.25a4.38,4.38,0,0,0,.88,3,3,3,0,0,0,2.32,1,6.53,6.53,0,0,0,.78-.05l.72-.1A1.12,1.12,0,0,1,271,263a5.6,5.6,0,0,1,.32,2.33,3.67,3.67,0,0,1-.6,2.25,2.78,2.78,0,0,1-1.85,1l-1.1.1C267.33,268.74,266.89,268.76,266.46,268.76Z"/><path class="d" d="M278,239.26a4.5,4.5,0,0,1-3.15-1,3.68,3.68,0,0,1-1.1-2.85,3.54,3.54,0,0,1,1.1-2.78,4.59,4.59,0,0,1,3.15-1,4.79,4.79,0,0,1,3.23,1,3.48,3.48,0,0,1,1.12,2.78,3.62,3.62,0,0,1-1.12,2.85A4.7,4.7,0,0,1,278,239.26Zm0,29.4a3.56,3.56,0,0,1-2.75-1.08,4.23,4.23,0,0,1-1-3V247.41a4.18,4.18,0,0,1,1-3,3.67,3.67,0,0,1,2.75-1,3.74,3.74,0,0,1,2.83,1,4.26,4.26,0,0,1,1,3v17.15a4.41,4.41,0,0,1-.95,3A3.59,3.59,0,0,1,278,268.66Z"/><path class="d" d="M299.71,268.76a13.18,13.18,0,0,1-5.77-1.13,7.19,7.19,0,0,1-3.43-3.32,12.44,12.44,0,0,1-1.1-5.55v-9.45h-2.2a2.94,2.94,0,0,1-2.12-.73,2.68,2.68,0,0,1-.78-2.07,2.62,2.62,0,0,1,.78-2,3,3,0,0,1,2.12-.7h2.2v-3.85a3.38,3.38,0,0,1,3.75-3.8,3.92,3.92,0,0,1,2.83.95,3.8,3.8,0,0,1,1,2.85v3.85h4.65a3.09,3.09,0,0,1,2.2.7,2.67,2.67,0,0,1,.75,2,2.74,2.74,0,0,1-.75,2.07,3,3,0,0,1-2.2.73H297v9.15a4.46,4.46,0,0,0,1,3.12,4,4,0,0,0,3.1,1,6.6,6.6,0,0,0,1.43-.15,5.33,5.33,0,0,1,1.12-.15,1.48,1.48,0,0,1,1.18.42,3.16,3.16,0,0,1,.47,2.08,5.59,5.59,0,0,1-.37,2.15,2.2,2.2,0,0,1-1.43,1.25,12.57,12.57,0,0,1-1.8.37A12.78,12.78,0,0,1,299.71,268.76Z"/><path class="d" d="M315,277.66a3.22,3.22,0,0,1-2.15-.68,2.94,2.94,0,0,1-1-1.8,3.87,3.87,0,0,1,.4-2.37l3.35-7.35v3.05l-8.85-20.3a4.59,4.59,0,0,1-.3-2.43,2.77,2.77,0,0,1,1.1-1.8,4.18,4.18,0,0,1,2.55-.67,3.7,3.7,0,0,1,2.22.6,4.86,4.86,0,0,1,1.43,2.45l5.95,14.9h-1.55l6-15a5.38,5.38,0,0,1,1.57-2.33,4.09,4.09,0,0,1,2.38-.62,3,3,0,0,1,2.07.67,2.84,2.84,0,0,1,.95,1.78,4.13,4.13,0,0,1-.42,2.4L319,274.81a4.91,4.91,0,0,1-1.68,2.27A4.25,4.25,0,0,1,315,277.66Z"/><polygon class="e" points="361.86 26.97 361.86 95.29 384.8 75.65 407.74 95.47 407.74 26.97 361.86 26.97"/></svg>