<svg xmlns="http://www.w3.org/2000/svg" viewBox="0 0 512 452.12"><defs><style>.a{fill:#595959;}.b{fill:#ce852e;}.c{fill:#bc782e;}.d{fill:#fff;}.e{fill:#821717;}</style></defs><path class="a" d="M132.33,393.53c-6.67.06-13.33.08-20,.19a23.4,23.4,0,0,0-15.94,5.95c-1.8,1.63-2,2.9-.08,4.63a23.39,23.39,0,0,0,15.4,6.07c1.42.06,2.85,0,4.28,0q148.88,0,297.74.05c11.22,0,19.25-3.39,23.18-12.53,1.58,15.61,2.06,22.86-14.66,29.08H106.57c-7.39-2.72-13.32-6.62-14.76-13.52-.63-3-.42-6.19-.42-9.3q0-178.82,0-357.63c0-8.92,5.86-14.27,15.23-17.72h25.75Q132.32,211.18,132.33,393.53Z"/><path class="b" d="M132.33,28.82h289c12.11,3.32,16.37,10.3,16.35,20.52q-.33,162.33,0,324.65c0,10.77-8.05,19.6-24.13,19.54-92-.34-184-.16-276-.17-1.74,0-3.48-.11-5.23-.17Z"/><path class="c" d="M436.57,44.82c0,9.07-.24,219.28,0,328.91,0,10.91-8.05,19.86-24.13,19.8-92-.34-184-.16-276-.17-1.74,0-5.22-.17-5.22-.17S436.58,35.75,436.57,44.82Z"/><path class="d" d="M212,177.49a3.83,3.83,0,0,1-2.86-1,4.06,4.06,0,0,1-1-2.93V145.39a4,4,0,0,1,1-2.95,4.63,4.63,0,0,1,5.75,0,4,4,0,0,1,1,2.95V156h16.36V145.39a4,4,0,0,1,1-2.95,4,4,0,0,1,2.93-1,3.81,3.81,0,0,1,2.84,1,4,4,0,0,1,1,2.95v28.15a4,4,0,0,1-1,2.93,3.78,3.78,0,0,1-2.84,1,3.56,3.56,0,0,1-4-4v-11.1H215.87v11.1a4.1,4.1,0,0,1-1,2.93A3.87,3.87,0,0,1,212,177.49Z"/><path class="d" d="M250.23,148.09a4.5,4.5,0,0,1-3.15-1,3.64,3.64,0,0,1-1.1-2.85,3.48,3.48,0,0,1,1.1-2.77,4.59,4.59,0,0,1,3.15-1,4.79,4.79,0,0,1,3.22,1,3.47,3.47,0,0,1,1.13,2.77,3.63,3.63,0,0,1-1.13,2.85A4.69,4.69,0,0,1,250.23,148.09Zm0,29.4a3.58,3.58,0,0,1-2.75-1.07,4.28,4.28,0,0,1-1-3V156.24a4.14,4.14,0,0,1,1-3,3.63,3.63,0,0,1,2.75-1,3.69,3.69,0,0,1,2.82,1,4.22,4.22,0,0,1,1,3v17.15a4.45,4.45,0,0,1-.94,3A3.64,3.64,0,0,1,250.23,177.49Z"/><path class="d" d="M271.68,186.59a30.87,30.87,0,0,1-5.18-.42,17.2,17.2,0,0,1-4.38-1.33,3.09,3.09,0,0,1-1.62-1.27,2.81,2.81,0,0,1-.38-1.73,3.51,3.51,0,0,1,.58-1.6,2.4,2.4,0,0,1,1.3-1,2.26,2.26,0,0,1,1.72.12,16.05,16.05,0,0,0,4.08,1.3,20.8,20.8,0,0,0,3.22.3,6.91,6.91,0,0,0,4.8-1.45,5.71,5.71,0,0,0,1.61-4.45v-3.85h.44a6.87,6.87,0,0,1-3.1,3.8,9.81,9.81,0,0,1-5.2,1.4,10.73,10.73,0,0,1-5.75-1.52,10.39,10.39,0,0,1-3.8-4.25,14.34,14.34,0,0,1-1.34-6.43,15.21,15.21,0,0,1,.77-5,11.27,11.27,0,0,1,2.2-3.85,9.62,9.62,0,0,1,3.45-2.47,11,11,0,0,1,4.47-.88,9.66,9.66,0,0,1,5.23,1.43,6.56,6.56,0,0,1,3,3.67l-.45,1.7v-2.9a3.44,3.44,0,0,1,3.75-3.8,3.66,3.66,0,0,1,2.75,1,3.85,3.85,0,0,1,.95,2.82v18.25q0,6.19-3.34,9.3T271.68,186.59Zm.14-15.75a5.26,5.26,0,0,0,2.9-.8,5.33,5.33,0,0,0,2-2.27,8.29,8.29,0,0,0,.69-3.53,7.1,7.1,0,0,0-1.5-4.82,5.1,5.1,0,0,0-4.05-1.73,5.36,5.36,0,0,0-3,.8,5.21,5.21,0,0,0-1.9,2.25,8.24,8.24,0,0,0-.68,3.5,7.27,7.27,0,0,0,1.5,4.83A5,5,0,0,0,271.82,170.84Z"/><path class="d" d="M294.37,177.49a3.43,3.43,0,0,1-3.75-3.8V145.24a3.77,3.77,0,0,1,1-2.85,3.86,3.86,0,0,1,2.75-.95,3.9,3.9,0,0,1,2.83.95,3.8,3.8,0,0,1,1,2.85v11.95h-.71a8,8,0,0,1,3.4-3.82A10.08,10.08,0,0,1,306,152a9.61,9.61,0,0,1,4.88,1.1,6.76,6.76,0,0,1,2.82,3.4,15.28,15.28,0,0,1,1,5.85v11.3a3.88,3.88,0,0,1-1,2.83,3.71,3.71,0,0,1-2.79,1,3.86,3.86,0,0,1-2.78-1,3.75,3.75,0,0,1-1-2.83v-11a5.76,5.76,0,0,0-.92-3.67,3.38,3.38,0,0,0-2.77-1.13,5,5,0,0,0-3.83,1.5,5.56,5.56,0,0,0-1.42,4v10.3Q298.18,177.49,294.37,177.49Z"/><path class="d" d="M333.12,177.59a16.68,16.68,0,0,1-7.47-1.55,11.12,11.12,0,0,1-4.8-4.42,13.33,13.33,0,0,1-1.68-6.83,13,13,0,0,1,1.63-6.62,11.94,11.94,0,0,1,4.47-4.48,13.65,13.65,0,0,1,11.33-.77,10.44,10.44,0,0,1,6,6.45,15.63,15.63,0,0,1,.8,5.17,1.73,1.73,0,0,1-.6,1.43,2.81,2.81,0,0,1-1.75.47H325.42v-3.9H338l-.8.7a8.52,8.52,0,0,0-.6-3.42,4.57,4.57,0,0,0-1.72-2.1,5,5,0,0,0-2.78-.73,5.62,5.62,0,0,0-3.15.85,5.48,5.48,0,0,0-2,2.48,9.84,9.84,0,0,0-.7,3.87v.4c0,2.53.59,4.4,1.75,5.6a7.1,7.1,0,0,0,5.3,1.8,14.36,14.36,0,0,0,2.73-.3,13,13,0,0,0,2.92-.95,3.23,3.23,0,0,1,2.05-.35,2.46,2.46,0,0,1,1.38.83,2.39,2.39,0,0,1,.57,1.47,3.17,3.17,0,0,1-.37,1.68,3.39,3.39,0,0,1-1.43,1.37,12.77,12.77,0,0,1-3.9,1.43A21.38,21.38,0,0,1,333.12,177.59Z"/><path class="d" d="M351.72,177.49a4,4,0,0,1-2.9-1,3.81,3.81,0,0,1-1-2.83V155.94a3.82,3.82,0,0,1,1-2.82,3.74,3.74,0,0,1,2.77-1,3.59,3.59,0,0,1,2.7,1,3.85,3.85,0,0,1,1,2.82v2.6h-.5a7.39,7.39,0,0,1,2.63-4.65,9.27,9.27,0,0,1,5.37-1.85,2.15,2.15,0,0,1,1.88.63,3.81,3.81,0,0,1,.77,2.42,3,3,0,0,1-3.1,3.5l-1.15.1a6.56,6.56,0,0,0-4.22,1.65,5.52,5.52,0,0,0-1.38,4v9.3a3.88,3.88,0,0,1-.95,2.83A3.8,3.8,0,0,1,351.72,177.49Z"/><path class="d" d="M175,237.09a4.06,4.06,0,0,1-3-1.05,4.14,4.14,0,0,1-1-3V205.94a4.14,4.14,0,0,1,1-3.05,4.06,4.06,0,0,1,3-1h17.45a3.06,3.06,0,0,1,2.27.78,3,3,0,0,1,.78,2.22,2.72,2.72,0,0,1-3,3H178.38v8.25h13a3.06,3.06,0,0,1,2.3.78,3.12,3.12,0,0,1,.75,2.27,2.68,2.68,0,0,1-3,3h-13V231h14.05a2.73,2.73,0,0,1,3,3.05,3,3,0,0,1-.78,2.23,3.1,3.1,0,0,1-2.27.77Z"/><path class="d" d="M210,237.59a10.41,10.41,0,0,1-5.63-1.52,10.12,10.12,0,0,1-3.77-4.43,16.1,16.1,0,0,1-1.35-6.85,15.77,15.77,0,0,1,1.35-6.8,9.94,9.94,0,0,1,9.4-6,9.58,9.58,0,0,1,5.15,1.4,6.77,6.77,0,0,1,3,3.65h-.55V205.24a3.83,3.83,0,0,1,.95-2.85,3.79,3.79,0,0,1,2.8-.95,3.92,3.92,0,0,1,2.8.95,3.77,3.77,0,0,1,1,2.85v28.45a3.85,3.85,0,0,1-1,2.83,3.68,3.68,0,0,1-2.72,1,3.4,3.4,0,0,1-3.8-3.8v-3.4l.55,2a6.73,6.73,0,0,1-3,3.9A9.49,9.49,0,0,1,210,237.59Zm2.25-5.6a4.82,4.82,0,0,0,4.75-3.15,10.29,10.29,0,0,0,.7-4.05q0-3.64-1.5-5.37a5,5,0,0,0-4-1.73,5.32,5.32,0,0,0-2.83.75,4.82,4.82,0,0,0-1.9,2.35,10.35,10.35,0,0,0-.67,4c0,2.47.5,4.28,1.5,5.45A4.88,4.88,0,0,0,212.23,232Z"/><path class="d" d="M240,237.59a10.36,10.36,0,0,1-5.15-1.15,7,7,0,0,1-3-3.42,14.64,14.64,0,0,1-1-5.73V215.94a3.37,3.37,0,0,1,3.75-3.8,3.9,3.9,0,0,1,2.79,1,3.73,3.73,0,0,1,1,2.85v11.5a5.1,5.1,0,0,0,.9,3.25,3.43,3.43,0,0,0,2.81,1.1,4.61,4.61,0,0,0,3.57-1.52,5.78,5.78,0,0,0,1.37-4v-10.3a3.77,3.77,0,0,1,1-2.85,3.86,3.86,0,0,1,2.75-1,3.9,3.9,0,0,1,2.83,1,3.8,3.8,0,0,1,1,2.85v17.75q0,3.8-3.65,3.8a3.43,3.43,0,0,1-3.75-3.8v-3.4l.8,2a8.19,8.19,0,0,1-8,5.3Z"/><path class="d" d="M272.37,237.59a14.74,14.74,0,0,1-6.94-1.55,11,11,0,0,1-4.58-4.45,13.82,13.82,0,0,1-1.62-6.85,14.73,14.73,0,0,1,.89-5.3,10.9,10.9,0,0,1,2.63-4,11.5,11.5,0,0,1,4.18-2.52,15.88,15.88,0,0,1,5.44-.88,16.13,16.13,0,0,1,3.33.38,14.44,14.44,0,0,1,3.48,1.22A3.16,3.16,0,0,1,280.5,215a3,3,0,0,1,.27,1.68,3,3,0,0,1-.62,1.55,2.5,2.5,0,0,1-1.32.9,2.53,2.53,0,0,1-1.81-.28,9.47,9.47,0,0,0-2-.77,7.15,7.15,0,0,0-1.93-.28,6.76,6.76,0,0,0-2.64.48,5,5,0,0,0-1.93,1.35,5.91,5.91,0,0,0-1.2,2.17,9.6,9.6,0,0,0-.42,3,7.88,7.88,0,0,0,1.62,5.23,5.66,5.66,0,0,0,4.57,1.92,7.58,7.58,0,0,0,1.9-.25,8.2,8.2,0,0,0,2-.8,2.34,2.34,0,0,1,1.78-.25,2.67,2.67,0,0,1,1.3.93,2.75,2.75,0,0,1,.58,1.55,3.45,3.45,0,0,1-.33,1.67A2.63,2.63,0,0,1,279,236a11.78,11.78,0,0,1-3.37,1.25A16.74,16.74,0,0,1,272.37,237.59Z"/><path class="d" d="M292.57,237.59a11.11,11.11,0,0,1-4.9-1,8.33,8.33,0,0,1-3.3-2.8,7.14,7.14,0,0,1-1.2-4.08,6.12,6.12,0,0,1,1.4-4.25,8.5,8.5,0,0,1,4.53-2.25,39.33,39.33,0,0,1,8.32-.7h2.65v3.9h-2.6a23.5,23.5,0,0,0-4.12.28,4.25,4.25,0,0,0-2.23,1,2.37,2.37,0,0,0-.7,1.77,2.94,2.94,0,0,0,1,2.25,3.93,3.93,0,0,0,2.77.9,5.2,5.2,0,0,0,2.6-.65,4.58,4.58,0,0,0,1.8-1.8,5.43,5.43,0,0,0,.65-2.75v-5.7a4.07,4.07,0,0,0-1-3.12,5,5,0,0,0-3.45-.93,15.48,15.48,0,0,0-2.87.3,17.85,17.85,0,0,0-3.48,1.1,3,3,0,0,1-2,.2,2.23,2.23,0,0,1-1.28-1,3.05,3.05,0,0,1-.45-1.63,3.17,3.17,0,0,1,.5-1.7,3.09,3.09,0,0,1,1.7-1.2,23.79,23.79,0,0,1,4.38-1.27,21.38,21.38,0,0,1,3.77-.38,15.74,15.74,0,0,1,6.38,1.13,7.56,7.56,0,0,1,3.75,3.47,12.91,12.91,0,0,1,1.22,6v11.1a4,4,0,0,1-.92,2.83,3.39,3.39,0,0,1-2.58,1,3.44,3.44,0,0,1-2.62-1,4,4,0,0,1-.93-2.83v-1.85l.35.35a6.18,6.18,0,0,1-1.27,2.85,6.73,6.73,0,0,1-2.45,1.88A8.2,8.2,0,0,1,292.57,237.59Z"/><path class="d" d="M324.12,237.59a13.19,13.19,0,0,1-5.77-1.12,7.25,7.25,0,0,1-3.43-3.33,12.44,12.44,0,0,1-1.1-5.55v-9.45h-2.2a3,3,0,0,1-2.12-.72,2.71,2.71,0,0,1-.78-2.08,2.62,2.62,0,0,1,.78-2.05,3,3,0,0,1,2.12-.7h2.2v-3.85a3.38,3.38,0,0,1,3.75-3.8,3.9,3.9,0,0,1,2.83.95,3.8,3.8,0,0,1,1,2.85v3.85H326a3.09,3.09,0,0,1,2.2.7,2.67,2.67,0,0,1,.75,2.05,2.78,2.78,0,0,1-.75,2.08,3.05,3.05,0,0,1-2.2.72h-4.65v9.15a4.51,4.51,0,0,0,.95,3.13,4.09,4.09,0,0,0,3.1,1,6.6,6.6,0,0,0,1.43-.15,5.33,5.33,0,0,1,1.12-.15,1.45,1.45,0,0,1,1.18.43,3.11,3.11,0,0,1,.47,2.07,5.59,5.59,0,0,1-.37,2.15,2.2,2.2,0,0,1-1.43,1.25,15.78,15.78,0,0,1-3.7.55Z"/><path class="d" d="M336.77,208.09a4.51,4.51,0,0,1-3.15-1,3.68,3.68,0,0,1-1.1-2.85,3.51,3.51,0,0,1,1.1-2.77,4.61,4.61,0,0,1,3.15-1,4.8,4.8,0,0,1,3.23,1,3.46,3.46,0,0,1,1.12,2.77,3.62,3.62,0,0,1-1.12,2.85A4.7,4.7,0,0,1,336.77,208.09Zm0,29.4a3.59,3.59,0,0,1-2.75-1.07,4.28,4.28,0,0,1-1-3V216.24a4.14,4.14,0,0,1,1-3,3.64,3.64,0,0,1,2.75-1,3.7,3.7,0,0,1,2.83,1,4.22,4.22,0,0,1,1,3v17.15a4.4,4.4,0,0,1-.95,3A3.62,3.62,0,0,1,336.77,237.49Z"/><path class="d" d="M358.22,237.59a14.4,14.4,0,0,1-6.85-1.55,11.12,11.12,0,0,1-4.52-4.42,13.62,13.62,0,0,1-1.63-6.83,14.73,14.73,0,0,1,.9-5.3,10.93,10.93,0,0,1,2.63-4,11.33,11.33,0,0,1,4.15-2.55,15.38,15.38,0,0,1,5.32-.88,14.55,14.55,0,0,1,6.88,1.55,11.09,11.09,0,0,1,4.55,4.43,13.54,13.54,0,0,1,1.62,6.77,14.9,14.9,0,0,1-.92,5.35,11.23,11.23,0,0,1-2.63,4.05,11.49,11.49,0,0,1-4.1,2.53A15.77,15.77,0,0,1,358.22,237.59Zm0-5.6a4.82,4.82,0,0,0,4.75-3.15,10.11,10.11,0,0,0,.7-4.05q0-3.64-1.5-5.37a5,5,0,0,0-3.95-1.73,5.28,5.28,0,0,0-2.82.75,4.82,4.82,0,0,0-1.9,2.35,10.34,10.34,0,0,0-.68,4c0,2.47.5,4.28,1.5,5.45A4.88,4.88,0,0,0,358.22,232Z"/><path class="d" d="M379.62,237.49a3.43,3.43,0,0,1-3.75-3.8V215.94a3.82,3.82,0,0,1,1-2.82,3.74,3.74,0,0,1,2.77-1,3.59,3.59,0,0,1,2.7,1,3.89,3.89,0,0,1,.95,2.82v2.85l-.55-1.6a8,8,0,0,1,3.4-3.82,10.06,10.06,0,0,1,5.15-1.33,9.4,9.4,0,0,1,4.88,1.13,6.9,6.9,0,0,1,2.82,3.42,15.36,15.36,0,0,1,.95,5.8v11.3a3.92,3.92,0,0,1-.95,2.83,3.74,3.74,0,0,1-2.8,1,3.85,3.85,0,0,1-2.77-1,3.71,3.71,0,0,1-1-2.83v-11a5.83,5.83,0,0,0-.92-3.67,3.41,3.41,0,0,0-2.78-1.13,5,5,0,0,0-3.82,1.5,5.57,5.57,0,0,0-1.43,4v10.3Q383.42,237.49,379.62,237.49Z"/><path class="d" d="M223.17,305.39a24.82,24.82,0,0,1-8.82-1.52A19.34,19.34,0,0,1,203,292.62a23.65,23.65,0,0,1-1.58-8.78,25.69,25.69,0,0,1,1.6-9.25,19.74,19.74,0,0,1,4.65-7.12,20.67,20.67,0,0,1,7.23-4.55,26.06,26.06,0,0,1,9.27-1.58,22.34,22.34,0,0,1,10.5,2.33,17,17,0,0,1,6.93,6.5,19.09,19.09,0,0,1,2.47,9.92,20,20,0,0,1-1.25,7.45,11.24,11.24,0,0,1-3.47,4.88,8.12,8.12,0,0,1-5.13,1.72,6.87,6.87,0,0,1-4.82-1.62,7.06,7.06,0,0,1-2.08-4.68l1.95-1a11.91,11.91,0,0,1-3.57,5.48,8,8,0,0,1-5.13,1.82,7.87,7.87,0,0,1-6.27-2.55,10.18,10.18,0,0,1-2.23-6.95,15,15,0,0,1,1.35-6.5,10.87,10.87,0,0,1,3.75-4.47,9.55,9.55,0,0,1,5.5-1.63,6.85,6.85,0,0,1,4.33,1.3,6.61,6.61,0,0,1,2.27,3.9h-1l.4-2.3a2.76,2.76,0,0,1,3-2.45,2.5,2.5,0,0,1,2,.75,2.44,2.44,0,0,1,.35,2.2l-1.5,8.65a12.52,12.52,0,0,0-.25,1.63c0,.48-.05.9-.05,1.27a3.47,3.47,0,0,0,.58,2.2,2.14,2.14,0,0,0,1.77.7,3.35,3.35,0,0,0,2.53-1.25,8.6,8.6,0,0,0,1.75-3.45,19,19,0,0,0,.62-5.1,15.52,15.52,0,0,0-1.82-7.82,11.8,11.8,0,0,0-5.28-4.83,21.19,21.19,0,0,0-17.6.55,15.23,15.23,0,0,0-6.17,6.25,20,20,0,0,0-2.18,9.6,19.06,19.06,0,0,0,2.08,9.2,14.1,14.1,0,0,0,5.82,5.88,18.36,18.36,0,0,0,8.85,2,21.5,21.5,0,0,0,5.68-.7,17.51,17.51,0,0,0,4.67-2,2.4,2.4,0,0,1,1.95-.37,2,2,0,0,1,1.18,1.05,2.5,2.5,0,0,1,.15,1.72,2.63,2.63,0,0,1-1.23,1.6,21.93,21.93,0,0,1-5.42,2.28A26,26,0,0,1,223.17,305.39Zm-1.5-15.8a4.57,4.57,0,0,0,3.05-1.1,7.21,7.21,0,0,0,2-3,12.53,12.53,0,0,0,.72-4.48,5,5,0,0,0-.9-3.25,3.54,3.54,0,0,0-2.9-1.1,4.94,4.94,0,0,0-3.07,1,6.75,6.75,0,0,0-2.1,2.78,10,10,0,0,0-.78,4.07,5.83,5.83,0,0,0,1.05,3.78A3.55,3.55,0,0,0,221.67,289.59Z"/><path class="d" d="M253.62,297.49a3.49,3.49,0,0,1-2.6-.92,3.7,3.7,0,0,1-.9-2.68V265a3.5,3.5,0,0,1,1-2.7,3.78,3.78,0,0,1,2.67-.9,4.41,4.41,0,0,1,2.38.55,4.74,4.74,0,0,1,1.57,1.9L269.27,285h-1.6l11.55-21.1a4.76,4.76,0,0,1,1.58-1.9,4.38,4.38,0,0,1,2.37-.55,3.55,3.55,0,0,1,2.58.9,3.63,3.63,0,0,1,.92,2.7v28.85a3.7,3.7,0,0,1-.9,2.68,3.55,3.55,0,0,1-2.65.92,3.5,3.5,0,0,1-2.57-.92,3.62,3.62,0,0,1-.93-2.68v-20.2h1.1l-9.35,16.65a4.07,4.07,0,0,1-1.22,1.4,3.07,3.07,0,0,1-1.73.45,3.32,3.32,0,0,1-1.85-.47,4.57,4.57,0,0,1-1.25-1.38L256,273.64h1.15v20.25a3.77,3.77,0,0,1-.87,2.68A3.47,3.47,0,0,1,253.62,297.49Z"/><path class="d" d="M308.92,297.59a21.14,21.14,0,0,1-6.62-.95,11.65,11.65,0,0,1-7.75-7.65,20.37,20.37,0,0,1-1-6.6V265.34a3.47,3.47,0,0,1,3.85-3.9,4,4,0,0,1,2.9,1,3.89,3.89,0,0,1,1,2.92v17.05q0,4.31,1.95,6.48a7.2,7.2,0,0,0,5.65,2.17,7.12,7.12,0,0,0,5.6-2.17q2-2.17,2-6.48V265.34a3.93,3.93,0,0,1,1-2.92,4,4,0,0,1,2.9-1,3.76,3.76,0,0,1,2.75,1,3.89,3.89,0,0,1,1,2.92v17.05a18.46,18.46,0,0,1-1.72,8.4,11.24,11.24,0,0,1-5.1,5.1A18.56,18.56,0,0,1,308.92,297.59Z"/><path class="d" d="M334.57,297.49a3.49,3.49,0,0,1-2.6-.92,3.7,3.7,0,0,1-.9-2.68V265a3.5,3.5,0,0,1,1-2.7,3.78,3.78,0,0,1,2.67-.9,4.44,4.44,0,0,1,2.38.55,4.74,4.74,0,0,1,1.57,1.9L350.22,285h-1.6l11.55-21.1a4.76,4.76,0,0,1,1.58-1.9,4.38,4.38,0,0,1,2.37-.55,3.55,3.55,0,0,1,2.58.9,3.63,3.63,0,0,1,.92,2.7v28.85a3.7,3.7,0,0,1-.9,2.68,3.55,3.55,0,0,1-2.65.92,3.48,3.48,0,0,1-2.57-.92,3.62,3.62,0,0,1-.93-2.68v-20.2h1.1l-9.35,16.65a4.07,4.07,0,0,1-1.22,1.4,3.07,3.07,0,0,1-1.73.45,3.29,3.29,0,0,1-1.85-.47,4.57,4.57,0,0,1-1.25-1.38l-9.35-16.7h1.15v20.25a3.77,3.77,0,0,1-.87,2.68A3.49,3.49,0,0,1,334.57,297.49Z"/><polygon class="e" points="368.29 28.82 368.29 97.14 391.23 77.5 414.17 97.32 414.17 28.82 368.29 28.82"/></svg>
