<svg xmlns="http://www.w3.org/2000/svg" viewBox="0 0 512 452.12"><defs><style>.cls-1{fill:#595959;}.cls-2{fill:#ce852e;}.cls-3{fill:#bc782e;}.cls-4{fill:#821717;}.cls-5{font-size:50px;fill:#fff;font-family:ArialRoundedMTBold, Arial Rounded MT Bold;}.cls-6{letter-spacing:-0.02em;}.cls-7{letter-spacing:-0.01em;}</style></defs><g id="Layer_9" data-name="Layer 9"><path class="cls-1" d="M123.81,391.69c-6.66.06-13.32.08-20,.19a23.4,23.4,0,0,0-15.94,5.95c-1.8,1.63-2,2.89-.08,4.63a23.39,23.39,0,0,0,15.4,6.07c1.42.06,2.85,0,4.28,0q148.87,0,297.74.05c11.22,0,19.25-3.39,23.18-12.54,1.58,15.62,2.05,22.87-14.66,29.08H98.06c-7.39-2.71-13.32-6.61-14.76-13.51-.63-3-.42-6.2-.42-9.3q0-178.81,0-357.63c0-8.92,5.86-14.27,15.23-17.73h25.75Z"/><path class="cls-2" d="M123.81,27h289c12.11,3.33,16.37,10.31,16.35,20.53q-.33,162.33,0,324.65c0,10.77-8.05,19.6-24.13,19.54-92-.34-184-.16-276-.17-1.74,0-3.48-.11-5.23-.17Q123.82,209.16,123.81,27Z"/><path class="cls-3" d="M428.06,43c0,9.07-.24,219.27,0,328.91,0,10.91-8.05,19.86-24.13,19.8-92-.34-184-.17-276-.18-1.74,0-5.22-.16-5.22-.16S428.07,33.91,428.06,43Z"/><polygon class="cls-4" points="356.22 26.97 356.22 95.29 379.16 75.65 402.1 95.47 402.1 26.97 356.22 26.97"/><text class="cls-5" transform="translate(163.1 206.6)">Learning <tspan x="-15.91" y="60">St</tspan><tspan class="cls-6" x="35.14" y="60">ra</tspan><tspan x="84.27" y="60">t</tspan><tspan class="cls-7" x="101.97" y="60">e</tspan><tspan x="131.02" y="60">gies</tspan></text></g></svg>