<?xml version="1.0" encoding="UTF-8"?><svg xmlns="http://www.w3.org/2000/svg" xmlns:xlink="http://www.w3.org/1999/xlink" viewBox="0 0 512 452.12"><defs><style>.ak{fill:none;}.al{fill:#008cba;}.am{fill:#fff;}.an{fill:#f0f1f1;}.ao{fill:#ffa939;}.ap{fill:#e2e4e5;}.aq{fill:#3e3e3f;}.ar{fill:#5b5c5f;}.as{clip-path:url(#ab);}.at{clip-path:url(#aa);}.au{clip-path:url(#ac);}.av{clip-path:url(#ae);}.aw{clip-path:url(#ad);}</style><clipPath id="aa"><rect class="ak" x="62.24" y="35.48" width="387.52" height="387.52"/></clipPath><clipPath id="ab"><rect class="ak" x="62.24" y="33.68" width="387.52" height="387.52"/></clipPath><clipPath id="ac"><rect class="ak" x="62.24" y="33.68" width="387.52" height="387.52"/></clipPath><clipPath id="ad"><rect class="ak" x="62.24" y="33.68" width="387.52" height="387.52"/></clipPath><clipPath id="ae"><polygon class="ak" points="62.24 33.68 435.61 53.44 449.76 421.19 62.24 421.19 62.24 33.68"/></clipPath></defs><g id="a"/><g id="b"/><g id="c"/><g id="d"/><g id="e"/><g id="f"/><g id="g"/><g id="h"/><g id="i"/><g id="j"/><g id="k"/><g id="l"/><g id="m"/><g id="n"/><g id="o"/><g id="p"/><g id="q"/><g id="r"/><g id="s"/><g id="t"/><g id="u"/><g id="v"><g id="w"/></g><g id="x"/><g id="y"/><g id="a`"><rect class="al" x="63.48" y="26.97" width="385.04" height="396.21" rx="33.19" ry="33.19"/><g class="at"><path class="an" d="M340.55,229.23c0-7.78-6.31-14.09-14.09-14.09H185.54c-7.78,0-14.09,6.31-14.09,14.09v91.59h169.1v-91.59Z"/></g><g class="as"><path class="am" d="M143.27,319.03v7.05c9.02,9.02,21.26,14.09,34.02,14.09h157.43c12.76,0,25-5.07,34.02-14.09v-7.05H143.27Z"/></g><g class="au"><rect class="aq" x="185.54" y="227.43" width="140.91" height="91.59"/></g><g class="aw"><polygon class="ar" points="185.54 318.75 276.86 227.43 185.54 227.43 185.54 318.75"/></g><g class="av"><rect class="ap" x="238.39" y="319.03" width="35.23" height="7.05"/></g><g><path class="ao" d="M256.46,83.78c34.43,.33,62.8,13.75,85.62,39.42,3.25,3.66,3.64,5.73-.87,8.66-5.84,3.79-5.61,4.15-10.15-1.12-39.04-45.23-110.83-45.01-149.75,.41-1.34,1.57-2.62,4.92-4.4,4.12-3.39-1.52-6.33-4.24-9.09-6.85-1.17-1.11,.67-2.34,1.45-3.28,18.42-22.13,41.71-35.75,70.26-40.18,5.6-.87,11.24-1.26,16.94-1.17Z"/><path class="ao" d="M256.36,126.69c20.63,.64,36.74,9.17,48.89,25.42,2.11,2.82,2.43,4.43-1.21,6.38-7.12,3.81-7,4.05-12.11-2.13-18.54-22.37-54.95-21.69-72.21,1.75-3.18,4.31-5.33,4.25-8.85,1.5-.65-.51-1.39-.95-2.15-1.26-3.27-1.33-3.6-2.98-1.43-5.93,12.3-16.68,28.72-25.21,49.09-25.74Z"/></g><path class="ao" d="M256.5,163.54c12.18,.45,21.68,6.43,28.86,17.82,1.25,1.98,1.44,3.11-.72,4.48-4.2,2.67-4.13,2.84-7.15-1.49-10.94-15.69-32.44-15.21-42.63,1.23-1.87,3.02-3.14,2.98-5.23,1.05-.38-.36-.82-.67-1.27-.88-1.93-.93-2.13-2.09-.85-4.16,7.26-11.69,16.95-17.68,28.98-18.05Z"/></g><g id="af"/><g id="ag"/><g id="ah"/><g id="ai"/><g id="aj"/></svg>