<svg xmlns="http://www.w3.org/2000/svg" xmlns:xlink="http://www.w3.org/1999/xlink" viewBox="0 0 512 452.12"><defs><style>.cls-1{fill:none;}.cls-2{fill:#008cba;}.cls-3{fill:#edeeee;}.cls-4{fill:#fff;}.cls-5{fill:#b3babe;}.cls-6{fill:#c1c5c6;}.cls-7{fill:#f98888;}.cls-8{fill:#ba752b;}.cls-9{fill:#ffa939;}.cls-10{fill:#00a795;}.cls-11{fill:#31bbad;}.cls-12{fill:#7b3e2c;}.cls-13{fill:#935740;}.cls-14{fill:#24c0df;}.cls-15{fill:#363637;}.cls-16{fill:#515254;}.cls-17{fill:#f4ad34;}.cls-18{fill:#fcc43d;}.cls-19{clip-path:url(#clip-path);}.cls-20{font-size:48.88px;fill:#515151;font-family:ArialRoundedMTBold, Arial Rounded MT Bold;}.cls-21{letter-spacing:-0.06em;}.cls-22{letter-spacing:-0.13em;}</style><clipPath id="clip-path"><path class="cls-1" d="M412.21,426H93.56c-18.33,0-33.19-15.79-33.19-35.27V92.87c0-19.48,14.86-35.27,33.19-35.27H412.21c18.33,0,33.2,15.79,33.2,35.27V390.73C445.41,410.21,430.54,426,412.21,426Z"/></clipPath></defs><g id="Layer_9" data-name="Layer 9"><path class="cls-2" d="M412.21,425.66H93.56c-18.33,0-33.19-17.05-33.19-38.08V66C60.37,45,75.23,28,93.56,28H412.21C430.54,28,445.41,45,445.41,66V387.58C445.41,408.61,430.54,425.66,412.21,425.66Z"/><path class="cls-3" d="M354.8,78.49a14.16,14.16,0,0,0-10.73-5.06H168.62c-8.07,0-14.62,7-14.62,15.54V306.48c0,8.58,6.55,15.54,14.62,15.54H344.07c8.07,0,14.62-7,14.62-15.54V89A16,16,0,0,0,354.8,78.49Z"/><path class="cls-4" d="M241.72,92.85A3.78,3.78,0,0,1,245.38,89h36.55a3.78,3.78,0,0,1,3.66,3.88v38.84a3.78,3.78,0,0,1-3.66,3.89H245.38a3.78,3.78,0,0,1-3.66-3.89Zm-73.1,3.89A7.55,7.55,0,0,1,175.93,89h43.86a7.55,7.55,0,0,1,7.31,7.77V214.19L243.32,197a3.88,3.88,0,0,1-1.6-3.12V155a3.78,3.78,0,0,1,3.66-3.89h36.55a3.56,3.56,0,0,1,2.94,1.7l16.93-18a3.89,3.89,0,0,1-1.59-3.13V92.85A3.77,3.77,0,0,1,303.86,89h36.55a3.53,3.53,0,0,1,2.94,1.69L354.8,78.49a14.16,14.16,0,0,0-10.73-5.06H168.62c-8.07,0-14.62,7-14.62,15.54v202.9l14.62-15.54Z"/><path class="cls-5" d="M219.79,89H175.93a7.55,7.55,0,0,0-7.31,7.77v202a7.55,7.55,0,0,0,7.31,7.77h43.86a7.55,7.55,0,0,0,7.31-7.77v-202A7.55,7.55,0,0,0,219.79,89Z"/><path class="cls-6" d="M219.79,89H175.93a7.55,7.55,0,0,0-7.31,7.77V276.33l58.48-62.14V96.74A7.55,7.55,0,0,0,219.79,89Z"/><path class="cls-7" d="M245.38,135.58h36.55a3.78,3.78,0,0,0,3.66-3.89V92.85A3.78,3.78,0,0,0,281.93,89H245.38a3.78,3.78,0,0,0-3.66,3.88v38.84A3.78,3.78,0,0,0,245.38,135.58Z"/><path class="cls-8" d="M343.35,90.66A3.53,3.53,0,0,0,340.41,89H303.86a3.77,3.77,0,0,0-3.65,3.88v38.84a3.86,3.86,0,0,0,1.59,3.12,3.39,3.39,0,0,0,2.06.77h36.55a3.78,3.78,0,0,0,3.66-3.89V92.85A4,4,0,0,0,343.35,90.66Z"/><path class="cls-9" d="M340.41,89H303.86a3.77,3.77,0,0,0-3.65,3.88v38.84a3.86,3.86,0,0,0,1.59,3.12l41.55-44.15A3.53,3.53,0,0,0,340.41,89Z"/><path class="cls-10" d="M284.87,152.81a3.56,3.56,0,0,0-2.94-1.7H245.38a3.78,3.78,0,0,0-3.66,3.89v38.84a3.88,3.88,0,0,0,1.6,3.12,3.38,3.38,0,0,0,2.06.76h36.55a3.78,3.78,0,0,0,3.66-3.88V155A3.92,3.92,0,0,0,284.87,152.81Z"/><path class="cls-11" d="M281.93,151.11H245.38a3.78,3.78,0,0,0-3.66,3.89v38.84a3.88,3.88,0,0,0,1.6,3.12l41.55-44.16A3.57,3.57,0,0,0,281.93,151.11Z"/><path class="cls-12" d="M197.86,151.11H183.24v15.54l6.86,116.62a7.92,7.92,0,0,0,7.69,7.67h.15a7.93,7.93,0,0,0,7.69-7.67l6.85-116.62V151.11Z"/><path class="cls-13" d="M183.24,151.11v15.54l6.86,116.62a7.92,7.92,0,0,0,7.69,7.67h.07V151.11Z"/><path class="cls-11" d="M344.07,193.84a3.78,3.78,0,0,1-3.66,3.88H303.86a3.77,3.77,0,0,1-3.65-3.88V155a3.77,3.77,0,0,1,3.65-3.89h36.55a3.78,3.78,0,0,1,3.66,3.89Z"/><path class="cls-14" d="M285.59,256a3.78,3.78,0,0,1-3.66,3.88H245.38a3.78,3.78,0,0,1-3.66-3.88V217.14a3.78,3.78,0,0,1,3.66-3.88h36.55a3.78,3.78,0,0,1,3.66,3.88Z"/><path class="cls-14" d="M344.07,256a3.78,3.78,0,0,1-3.66,3.88H303.86a3.77,3.77,0,0,1-3.65-3.88V217.14a3.77,3.77,0,0,1,3.65-3.88h36.55a3.78,3.78,0,0,1,3.66,3.88Z"/><path class="cls-8" d="M344.07,302.59a3.78,3.78,0,0,1-3.66,3.89h-95a3.78,3.78,0,0,1-3.66-3.89v-23.3a3.78,3.78,0,0,1,3.66-3.88h95a3.78,3.78,0,0,1,3.66,3.88Z"/><path class="cls-15" d="M197.86,100.62h0s-18.27,22.09-18.27,35c0,7.19,2.6,12.33,6.62,15.53h23.31c4-3.2,6.62-8.34,6.62-15.53C216.14,122.71,197.87,100.63,197.86,100.62Z"/><path class="cls-16" d="M179.59,135.58c0,7.19,2.6,12.33,6.62,15.53h11.65V100.62S179.59,122.71,179.59,135.58Z"/><polygon class="cls-17" points="197.86 151.12 183.24 151.12 183.24 166.65 197.86 166.65 212.48 166.65 212.48 151.12 197.86 151.12"/><polygon class="cls-18" points="186.21 151.12 183.24 151.12 183.24 166.65 197.86 166.65 197.86 151.12 186.21 151.12"/><g class="cls-19"><rect class="cls-7" x="52.37" y="335.95" width="397.13" height="90.95"/></g><text class="cls-20" transform="translate(113.98 404.29) scale(0.94 1)">S<tspan class="cls-21" x="32.6" y="0">T</tspan><tspan x="60.08" y="0">AFF ON</tspan><tspan class="cls-22" x="242.35" y="0">L</tspan><tspan x="265.72" y="0">Y</tspan></text></g></svg>