<svg xmlns="http://www.w3.org/2000/svg" xmlns:xlink="http://www.w3.org/1999/xlink" viewBox="0 0 512 452.12"><defs><style>.cls-1{fill:none;}.cls-2{fill:#008cba;}.cls-3{clip-path:url(#clip-path);}.cls-4{fill:#ffa939;}.cls-5{fill:#f0f1f1;}.cls-6{fill:#fff;}</style><clipPath id="clip-path"><rect class="cls-1" x="40.32" y="42.81" width="432.55" height="415.4"/></clipPath></defs><g id="Layer_28" data-name="Layer 28"><rect class="cls-2" x="63.48" y="26.12" width="385.04" height="399.53" rx="33.19"/><g class="cls-3"><path class="cls-4" d="M193.68,295.82c0,8.35,7,15.11,15.73,15.11h94.37L351,356.24V310.93H366.7c8.69,0,15.73-6.76,15.73-15.11V175c0-8.34-7-15.1-15.73-15.1H209.41c-8.69,0-15.73,6.76-15.73,15.1Z"/></g><g class="cls-3"><path class="cls-5" d="M319.51,265.61c0,8.34-7,15.11-15.73,15.11H209.41L162.22,326V280.72H146.49c-8.68,0-15.73-6.77-15.73-15.11V144.77c0-8.34,7.05-15.1,15.73-15.1H303.78c8.69,0,15.73,6.76,15.73,15.1Z"/></g><g class="cls-3"><path class="cls-6" d="M316.9,136.45a15.88,15.88,0,0,0-13.12-6.78H146.49c-8.68,0-15.73,6.76-15.73,15.1V265.61c0,8.34,7.05,15.11,15.73,15.11h15.73V285Z"/></g><g class="cls-3"><ellipse class="cls-4" cx="177.95" cy="205.19" rx="15.73" ry="15.11"/></g><g class="cls-3"><ellipse class="cls-4" cx="225.14" cy="205.19" rx="15.73" ry="15.11"/></g><g class="cls-3"><ellipse class="cls-4" cx="272.33" cy="205.19" rx="15.73" ry="15.11"/></g></g></svg>