<svg viewBox="0 0 512 452.12" xmlns="http://www.w3.org/2000/svg"><path d="m132.33 393.53c-6.67.06-13.33.08-20 .19a23.4 23.4 0 0 0 -15.94 5.95c-1.8 1.63-2 2.9-.08 4.63a23.39 23.39 0 0 0 15.4 6.07c1.42.06 2.85 0 4.28 0q148.88 0 297.74.05c11.22 0 19.25-3.39 23.18-12.53 1.58 15.61 2.06 22.86-14.66 29.08h-315.68c-7.39-2.72-13.32-6.62-14.76-13.52-.63-3-.42-6.19-.42-9.3q0-178.82 0-357.63c0-8.92 5.86-14.27 15.23-17.72h25.75q-.05 182.38-.04 364.73z" fill="#595959"/><path d="m132.33 28.82h289c12.11 3.32 16.37 10.3 16.35 20.52q-.33 162.33 0 324.65c0 10.77-8.05 19.6-24.13 19.54-92-.34-184-.16-276-.17-1.74 0-3.48-.11-5.23-.17z" fill="#ce852e"/><path d="m436.57 44.82c0 9.07-.24 219.28 0 328.91 0 10.91-8.05 19.86-24.13 19.8-92-.34-184-.16-276-.17-1.74 0-5.22-.17-5.22-.17s305.36-357.44 305.35-348.37z" fill="#bc782e"/><g fill="#fff"><path d="m238.77 199.27a3.79 3.79 0 0 1 -2.85-1 4 4 0 0 1 -1-2.92v-27.78a3.54 3.54 0 0 1 3.9-3.95h12.18q5.85 0 9.08 3a10.71 10.71 0 0 1 3.22 8.25 10.84 10.84 0 0 1 -3.22 8.32q-3.23 3-9.08 3h-8.35v9.1a4.05 4.05 0 0 1 -1 2.92 3.84 3.84 0 0 1 -2.88 1.06zm3.9-19.1h7.05a6.91 6.91 0 0 0 4.58-1.33 4.88 4.88 0 0 0 1.57-4 4.77 4.77 0 0 0 -1.57-3.9 7 7 0 0 0 -4.58-1.3h-7.05z"/><path d="m278.87 199.37a16.68 16.68 0 0 1 -7.47-1.55 11 11 0 0 1 -4.8-4.43 13.26 13.26 0 0 1 -1.68-6.82 13 13 0 0 1 1.63-6.63 12 12 0 0 1 4.47-4.47 12.64 12.64 0 0 1 6.45-1.65 12.8 12.8 0 0 1 4.88.87 10.74 10.74 0 0 1 3.67 2.5 10.58 10.58 0 0 1 2.35 3.95 15.69 15.69 0 0 1 .8 5.18 1.69 1.69 0 0 1 -.6 1.42 2.74 2.74 0 0 1 -1.75.48h-15.65v-3.9h12.55l-.8.7a8.6 8.6 0 0 0 -.6-3.43 4.67 4.67 0 0 0 -1.72-2.1 5.06 5.06 0 0 0 -2.78-.72 5.62 5.62 0 0 0 -3.15.85 5.51 5.51 0 0 0 -2 2.47 9.92 9.92 0 0 0 -.67 3.91v.4c0 2.53.59 4.4 1.75 5.6a7.1 7.1 0 0 0 5.3 1.8 14.36 14.36 0 0 0 2.73-.3 13 13 0 0 0 2.92-.95 3.23 3.23 0 0 1 2.05-.35 2.5 2.5 0 0 1 1.38.82 2.44 2.44 0 0 1 .57 1.48 3.14 3.14 0 0 1 -.37 1.67 3.41 3.41 0 0 1 -1.43 1.38 12.5 12.5 0 0 1 -3.9 1.42 20.64 20.64 0 0 1 -4.13.4z"/><path d="m306.32 199.37a16.68 16.68 0 0 1 -7.47-1.55 11 11 0 0 1 -4.8-4.43 13.26 13.26 0 0 1 -1.68-6.82 13 13 0 0 1 1.63-6.63 12 12 0 0 1 4.47-4.47 12.64 12.64 0 0 1 6.45-1.65 12.8 12.8 0 0 1 4.88.87 10.74 10.74 0 0 1 3.67 2.5 10.58 10.58 0 0 1 2.35 3.95 15.69 15.69 0 0 1 .8 5.18 1.69 1.69 0 0 1 -.6 1.42 2.74 2.74 0 0 1 -1.75.48h-15.65v-3.9h12.55l-.8.7a8.6 8.6 0 0 0 -.6-3.43 4.67 4.67 0 0 0 -1.72-2.1 5.06 5.06 0 0 0 -2.78-.72 5.62 5.62 0 0 0 -3.15.85 5.51 5.51 0 0 0 -2 2.47 9.92 9.92 0 0 0 -.7 3.88v.4c0 2.53.59 4.4 1.75 5.6a7.1 7.1 0 0 0 5.3 1.8 14.36 14.36 0 0 0 2.73-.3 13 13 0 0 0 2.92-.95 3.23 3.23 0 0 1 2.05-.35 2.5 2.5 0 0 1 1.38.82 2.44 2.44 0 0 1 .57 1.48 3.14 3.14 0 0 1 -.37 1.67 3.41 3.41 0 0 1 -1.43 1.38 12.5 12.5 0 0 1 -3.9 1.42 20.64 20.64 0 0 1 -4.1.43z"/><path d="m324.92 199.27a4 4 0 0 1 -2.9-1 3.79 3.79 0 0 1 -1-2.82v-17.73a3.85 3.85 0 0 1 1-2.83 3.74 3.74 0 0 1 2.77-1 3.59 3.59 0 0 1 2.7 1 3.88 3.88 0 0 1 .95 2.83v2.6h-.5a7.39 7.39 0 0 1 2.63-4.65 9.27 9.27 0 0 1 5.37-1.85 2.18 2.18 0 0 1 1.88.62 3.86 3.86 0 0 1 .77 2.43 3 3 0 0 1 -3.1 3.5l-1.15.1a6.54 6.54 0 0 0 -4.22 1.65 5.52 5.52 0 0 0 -1.38 4v9.3a3.85 3.85 0 0 1 -1 2.82 3.8 3.8 0 0 1 -2.82 1.03z"/><path d="m206.82 259.27a3.79 3.79 0 0 1 -2.85-1 4 4 0 0 1 -1-2.92v-27.78a3.54 3.54 0 0 1 3.9-3.95h12.2q5.85 0 9.08 2.85a10.05 10.05 0 0 1 3.22 7.95 10.78 10.78 0 0 1 -1.45 5.7 9.45 9.45 0 0 1 -4.2 3.7 15.4 15.4 0 0 1 -6.65 1.3l.45-.8h2a6.7 6.7 0 0 1 3.68 1 7.87 7.87 0 0 1 2.67 3.1l3.15 5.8a4.17 4.17 0 0 1 .68 2.42 2.58 2.58 0 0 1 -.93 1.9 3.71 3.71 0 0 1 -2.5.73 4.76 4.76 0 0 1 -2.67-.68 5.82 5.82 0 0 1 -1.83-2.12l-4.85-8.8a3.76 3.76 0 0 0 -1.77-1.93 6.77 6.77 0 0 0 -2.68-.47h-3.75v10a4.05 4.05 0 0 1 -1 2.92 3.84 3.84 0 0 1 -2.9 1.08zm3.9-19.65h7a7.34 7.34 0 0 0 4.63-1.25 4.49 4.49 0 0 0 1.57-3.75 4.44 4.44 0 0 0 -1.57-3.7 7.34 7.34 0 0 0 -4.63-1.25h-7z"/><path d="m249.17 259.37a16.68 16.68 0 0 1 -7.47-1.55 11.08 11.08 0 0 1 -4.8-4.43 13.26 13.26 0 0 1 -1.68-6.82 13 13 0 0 1 1.63-6.63 12 12 0 0 1 4.47-4.47 12.64 12.64 0 0 1 6.45-1.65 12.8 12.8 0 0 1 4.88.87 10.74 10.74 0 0 1 3.67 2.5 10.58 10.58 0 0 1 2.35 3.95 15.69 15.69 0 0 1 .8 5.18 1.69 1.69 0 0 1 -.6 1.42 2.74 2.74 0 0 1 -1.75.48h-15.65v-3.9h12.53l-.8.7a8.6 8.6 0 0 0 -.6-3.43 4.67 4.67 0 0 0 -1.72-2.1 5.06 5.06 0 0 0 -2.78-.72 5.62 5.62 0 0 0 -3.15.85 5.51 5.51 0 0 0 -2 2.47 9.92 9.92 0 0 0 -.7 3.88v.4c0 2.53.59 4.4 1.75 5.6a7.1 7.1 0 0 0 5.3 1.8 14.36 14.36 0 0 0 2.73-.3 13 13 0 0 0 2.92-.95 3.23 3.23 0 0 1 2-.35 2.5 2.5 0 0 1 1.38.82 2.44 2.44 0 0 1 .57 1.48 3.14 3.14 0 0 1 -.37 1.67 3.41 3.41 0 0 1 -1.43 1.38 12.5 12.5 0 0 1 -3.9 1.42 20.64 20.64 0 0 1 -4.03.43z"/><path d="m273.87 259.27a4.36 4.36 0 0 1 -2.57-.75 5.8 5.8 0 0 1 -1.83-2.3l-7.5-17.4a4.48 4.48 0 0 1 -.37-2.43 2.69 2.69 0 0 1 1.07-1.8 4.18 4.18 0 0 1 2.55-.67 3.71 3.71 0 0 1 2.23.6 5.09 5.09 0 0 1 1.47 2.45l5.95 14.95h-1.6l6.1-15a5.55 5.55 0 0 1 1.55-2.33 4 4 0 0 1 2.35-.62 3.06 3.06 0 0 1 2.08.67 2.89 2.89 0 0 1 .95 1.78 4.33 4.33 0 0 1 -.38 2.4l-7.7 17.5a5 5 0 0 1 -1.75 2.25 4.5 4.5 0 0 1 -2.6.7z"/><path d="m293.87 229.87a4.53 4.53 0 0 1 -3.15-1 3.68 3.68 0 0 1 -1.1-2.85 3.54 3.54 0 0 1 1.1-2.78 4.62 4.62 0 0 1 3.15-1 4.79 4.79 0 0 1 3.23 1 3.48 3.48 0 0 1 1.12 2.78 3.62 3.62 0 0 1 -1.12 2.85 4.7 4.7 0 0 1 -3.23 1zm0 29.4a3.58 3.58 0 0 1 -2.75-1.08 4.28 4.28 0 0 1 -1-3v-17.19a4.22 4.22 0 0 1 1-3 3.69 3.69 0 0 1 2.75-1 3.73 3.73 0 0 1 2.83 1 4.26 4.26 0 0 1 1 3v17.15a4.36 4.36 0 0 1 -.95 3 3.59 3.59 0 0 1 -2.88 1.12z"/><path d="m316.27 259.37a16.68 16.68 0 0 1 -7.47-1.55 11.08 11.08 0 0 1 -4.8-4.43 13.26 13.26 0 0 1 -1.68-6.82 13 13 0 0 1 1.63-6.63 12 12 0 0 1 4.47-4.47 12.64 12.64 0 0 1 6.45-1.65 12.8 12.8 0 0 1 4.88.87 10.74 10.74 0 0 1 3.67 2.5 10.58 10.58 0 0 1 2.35 3.95 15.69 15.69 0 0 1 .8 5.18 1.69 1.69 0 0 1 -.6 1.42 2.74 2.74 0 0 1 -1.75.48h-15.65v-3.9h12.55l-.8.7a8.6 8.6 0 0 0 -.6-3.43 4.67 4.67 0 0 0 -1.72-2.1 5.06 5.06 0 0 0 -2.78-.72 5.62 5.62 0 0 0 -3.15.85 5.51 5.51 0 0 0 -2 2.47 9.92 9.92 0 0 0 -.7 3.88v.4c0 2.53.59 4.4 1.75 5.6a7.1 7.1 0 0 0 5.3 1.8 14.36 14.36 0 0 0 2.73-.3 13 13 0 0 0 2.92-.95 3.23 3.23 0 0 1 2.05-.35 2.5 2.5 0 0 1 1.38.82 2.44 2.44 0 0 1 .57 1.48 3.14 3.14 0 0 1 -.37 1.67 3.41 3.41 0 0 1 -1.43 1.38 12.5 12.5 0 0 1 -3.9 1.42 20.64 20.64 0 0 1 -4.1.43z"/><path d="m340.62 259.27a4.37 4.37 0 0 1 -2.52-.73 5 5 0 0 1 -1.73-2.22l-7.05-17.5a4.64 4.64 0 0 1 -.35-2.48 2.85 2.85 0 0 1 1.08-1.75 3.77 3.77 0 0 1 2.37-.67 3.57 3.57 0 0 1 2.18.62 5.23 5.23 0 0 1 1.47 2.38l5.45 14.7h-1l5.6-15.35a3.83 3.83 0 0 1 1.23-1.78 3.88 3.88 0 0 1 4.05 0 3.49 3.49 0 0 1 1.17 1.78l5.65 15.35h-1l5.5-14.9a4.19 4.19 0 0 1 1.55-2.23 3.85 3.85 0 0 1 2-.57 3.18 3.18 0 0 1 2.25.7 2.81 2.81 0 0 1 .88 1.8 4.8 4.8 0 0 1 -.43 2.4l-6.97 17.45a4.88 4.88 0 0 1 -1.72 2.27 4.91 4.91 0 0 1 -5.15 0 4.64 4.64 0 0 1 -1.68-2.27l-6.05-15.6h3.25l-5.75 15.55a5.2 5.2 0 0 1 -1.7 2.3 4.27 4.27 0 0 1 -2.58.75z"/></g><path d="m368.29 28.82v68.32l22.94-19.64 22.94 19.82v-68.5z" fill="#821717"/></svg>
