<svg xmlns="http://www.w3.org/2000/svg" xmlns:xlink="http://www.w3.org/1999/xlink" viewBox="0 0 512 452.12"><defs><style>.cls-1{fill:none;}.cls-2{fill:#008cba;}.cls-3{clip-path:url(#clip-path);}.cls-4{fill:#fff;}.cls-5{fill:#f0f1f1;}.cls-6{fill:#e2e4e5;}.cls-7{fill:#ffa939;}.cls-8{clip-path:url(#clip-path-11);}</style><clipPath id="clip-path"><rect class="cls-1" x="63.66" y="-4.02" width="453.2" height="453.2"/></clipPath><clipPath id="clip-path-11"><rect class="cls-1" x="63.66" y="101.1" width="453.2" height="453.2"/></clipPath></defs><g id="Layer_6" data-name="Layer 6"><rect class="cls-2" x="63.48" y="26.97" width="385.04" height="398.17" rx="33.19"/><g class="cls-3"><path class="cls-4" d="M158.42,106.56a15.82,15.82,0,0,1,15.82-15.82h116l65.92,55.38V338.6a15.82,15.82,0,0,1-15.82,15.82H174.24a15.82,15.82,0,0,1-15.82-15.82Z"/></g><g class="cls-3"><path class="cls-5" d="M290.26,90.74v39.55a15.82,15.82,0,0,0,15.82,15.83h50.1Z"/></g><g class="cls-3"><path class="cls-6" d="M319.1,181.38A4.13,4.13,0,0,1,315,185.5h-61.8a4.12,4.12,0,0,1,0-8.24H315A4.14,4.14,0,0,1,319.1,181.38Z"/></g><g class="cls-3"><path class="cls-6" d="M294.38,202a4.13,4.13,0,0,1-4.12,4.12H253.18a4.12,4.12,0,1,1,0-8.24h37.08A4.14,4.14,0,0,1,294.38,202Z"/></g><g class="cls-3"><path class="cls-6" d="M319.1,234.94a4.13,4.13,0,0,1-4.12,4.12h-61.8a4.12,4.12,0,0,1,0-8.24H315A4.14,4.14,0,0,1,319.1,234.94Z"/></g><g class="cls-3"><path class="cls-6" d="M294.38,255.54a4.13,4.13,0,0,1-4.12,4.12H253.18a4.12,4.12,0,1,1,0-8.24h37.08A4.14,4.14,0,0,1,294.38,255.54Z"/></g><g class="cls-3"><path class="cls-6" d="M319.1,288.5a4.13,4.13,0,0,1-4.12,4.12h-61.8a4.12,4.12,0,0,1,0-8.24H315A4.14,4.14,0,0,1,319.1,288.5Z"/></g><g class="cls-3"><path class="cls-6" d="M294.38,309.1a4.13,4.13,0,0,1-4.12,4.12H253.18a4.12,4.12,0,1,1,0-8.24h37.08A4.14,4.14,0,0,1,294.38,309.1Z"/></g><g class="cls-3"><path class="cls-7" d="M208.13,210.22l-15.55-15.55a4.12,4.12,0,0,1,5.83-5.82l9.17,9.17,17.71-21.26a4.12,4.12,0,0,1,6.33,5.28Z"/></g><g class="cls-3"><path class="cls-7" d="M208.13,263.78l-15.55-15.55a4.12,4.12,0,0,1,5.83-5.82l9.17,9.17,17.71-21.26a4.12,4.12,0,0,1,6.33,5.28Z"/></g><g class="cls-8"><path class="cls-7" d="M208.13,315.35,192.58,299.8a4.12,4.12,0,1,1,5.83-5.83l9.17,9.17,17.71-21.25a4.12,4.12,0,1,1,6.33,5.27Z"/></g></g></svg>