<svg xmlns="http://www.w3.org/2000/svg" viewBox="0 0 512 452.12"><defs><style>.a{fill:#595959;}.b{fill:#ce852e;}.c{fill:#bc782e;}.d{fill:#821717;}.e{fill:#fff;}</style></defs><path class="a" d="M123.81,391.69c-6.66.06-13.32.08-20,.19a23.4,23.4,0,0,0-15.94,5.95c-1.8,1.63-2,2.89-.08,4.63a23.39,23.39,0,0,0,15.4,6.07c1.42.06,2.85,0,4.28,0q148.87,0,297.74.05c11.22,0,19.25-3.39,23.18-12.54,1.58,15.62,2.05,22.87-14.66,29.08H98.06c-7.39-2.71-13.32-6.61-14.76-13.51-.63-3-.42-6.2-.42-9.3q0-178.81,0-357.63c0-8.92,5.86-14.27,15.23-17.73h25.75Z"/><path class="b" d="M123.81,27h289c12.11,3.33,16.37,10.31,16.35,20.53q-.33,162.33,0,324.65c0,10.77-8.05,19.6-24.13,19.54-92-.34-184-.16-276-.17-1.74,0-3.48-.11-5.23-.17Q123.82,209.16,123.81,27Z"/><path class="c" d="M428.06,43c0,9.07-.24,219.27,0,328.91,0,10.91-8.05,19.86-24.13,19.8-92-.34-184-.17-276-.18-1.74,0-5.22-.16-5.22-.16S428.07,33.91,428.06,43Z"/><polygon class="d" points="356.22 26.97 356.22 95.29 379.16 75.65 402.1 95.47 402.1 26.97 356.22 26.97"/><path class="e" d="M174.93,205.85a3.82,3.82,0,0,1-2.87-1,4,4,0,0,1-1-2.9V174.45a4,4,0,0,1,1-2.95,3.89,3.89,0,0,1,2.85-1,3.94,3.94,0,0,1,2.9,1,4,4,0,0,1,1,2.95V199.3h13.4a3.33,3.33,0,0,1,2.45.85,3.24,3.24,0,0,1,.85,2.4,3,3,0,0,1-3.3,3.3Z"/><path class="e" d="M211.54,206.35a16.59,16.59,0,0,1-7.48-1.55,11.12,11.12,0,0,1-4.8-4.42,13.3,13.3,0,0,1-1.67-6.83,13.07,13.07,0,0,1,1.62-6.62,12,12,0,0,1,4.48-4.48,12.64,12.64,0,0,1,6.45-1.65,12.78,12.78,0,0,1,4.87.88,10.64,10.64,0,0,1,3.68,2.5,10.76,10.76,0,0,1,2.35,3.95,15.89,15.89,0,0,1,.8,5.17,1.71,1.71,0,0,1-.6,1.43,2.76,2.76,0,0,1-1.75.47H203.84v-3.9h12.55l-.8.7a8.59,8.59,0,0,0-.6-3.42,4.59,4.59,0,0,0-1.73-2.1,5,5,0,0,0-2.77-.73,5.65,5.65,0,0,0-3.15.85,5.41,5.41,0,0,0-2,2.48,9.66,9.66,0,0,0-.7,3.87v.4c0,2.54.58,4.4,1.75,5.6s2.93,1.8,5.3,1.8a14.26,14.26,0,0,0,2.72-.3,12.55,12.55,0,0,0,2.93-.95,3.29,3.29,0,0,1,2-.35,2.49,2.49,0,0,1,2,2.3,3.23,3.23,0,0,1-1.8,3.05,12.7,12.7,0,0,1-3.9,1.43A21.45,21.45,0,0,1,211.54,206.35Z"/><path class="e" d="M234.59,206.35a11.08,11.08,0,0,1-4.9-1,8.25,8.25,0,0,1-3.3-2.8,7.1,7.1,0,0,1-1.2-4.08,6.09,6.09,0,0,1,1.4-4.25,8.46,8.46,0,0,1,4.52-2.25,40,40,0,0,1,8.33-.7h2.65v3.9h-2.6a24.65,24.65,0,0,0-4.13.28,4.17,4.17,0,0,0-2.22.95,2.34,2.34,0,0,0-.7,1.77,2.93,2.93,0,0,0,1,2.25,4,4,0,0,0,2.78.9,5.15,5.15,0,0,0,2.6-.65,4.72,4.72,0,0,0,1.8-1.8,5.51,5.51,0,0,0,.65-2.75v-5.7a4.14,4.14,0,0,0-1-3.12,5.05,5.05,0,0,0-3.45-.93,15.5,15.5,0,0,0-2.88.3,17.57,17.57,0,0,0-3.47,1.1,3,3,0,0,1-2,.2,2.17,2.17,0,0,1-1.27-1,3,3,0,0,1-.45-1.63,3.11,3.11,0,0,1,.5-1.7,3.06,3.06,0,0,1,1.7-1.2,23.48,23.48,0,0,1,4.37-1.27,21.39,21.39,0,0,1,3.78-.38,15.69,15.69,0,0,1,6.37,1.13,7.6,7.6,0,0,1,3.75,3.47,12.78,12.78,0,0,1,1.23,5.95v11.1a3.94,3.94,0,0,1-.93,2.83,3.37,3.37,0,0,1-2.57,1,3.45,3.45,0,0,1-2.63-1,3.94,3.94,0,0,1-.92-2.83V200.6l.35.35a6.2,6.2,0,0,1-1.28,2.85,6.73,6.73,0,0,1-2.45,1.88A8.12,8.12,0,0,1,234.59,206.35Z"/><path class="e" d="M258,206.25a4,4,0,0,1-2.9-1,3.76,3.76,0,0,1-1-2.83V184.7a3.82,3.82,0,0,1,1-2.82,3.77,3.77,0,0,1,2.78-1,3.62,3.62,0,0,1,2.7,1,3.89,3.89,0,0,1,.95,2.82v2.6H261a7.38,7.38,0,0,1,2.62-4.65A9.37,9.37,0,0,1,269,180.8a2.19,2.19,0,0,1,1.87.63,3.87,3.87,0,0,1,.78,2.42,3.55,3.55,0,0,1-.68,2.4,3.47,3.47,0,0,1-2.42,1.1l-1.15.1a6.59,6.59,0,0,0-4.23,1.65,5.55,5.55,0,0,0-1.37,4.05v9.3a3.9,3.9,0,0,1-1,2.83A3.83,3.83,0,0,1,258,206.25Z"/><path class="e" d="M278.44,206.25a3.43,3.43,0,0,1-3.75-3.8V184.7a3.82,3.82,0,0,1,1-2.82,3.77,3.77,0,0,1,2.78-1,3.58,3.58,0,0,1,2.69,1,3.85,3.85,0,0,1,.95,2.82v2.85l-.54-1.6a8,8,0,0,1,3.4-3.82,10.15,10.15,0,0,1,5.14-1.33,9.4,9.4,0,0,1,4.88,1.13,7,7,0,0,1,2.83,3.42,15.39,15.39,0,0,1,.95,5.8v11.3a3.9,3.9,0,0,1-.95,2.83,3.75,3.75,0,0,1-2.8,1,3.86,3.86,0,0,1-2.78-1,3.73,3.73,0,0,1-1-2.83v-11a5.76,5.76,0,0,0-.93-3.67,3.38,3.38,0,0,0-2.77-1.13,5,5,0,0,0-3.83,1.5,5.58,5.58,0,0,0-1.42,4v10.3C282.24,205,281,206.25,278.44,206.25Z"/><path class="e" d="M308.18,176.85a4.53,4.53,0,0,1-3.15-1,3.65,3.65,0,0,1-1.1-2.85,3.51,3.51,0,0,1,1.1-2.77,4.62,4.62,0,0,1,3.15-1,4.8,4.8,0,0,1,3.23,1,3.46,3.46,0,0,1,1.12,2.77,3.59,3.59,0,0,1-1.12,2.85A4.7,4.7,0,0,1,308.18,176.85Zm0,29.4a3.57,3.57,0,0,1-2.75-1.07,4.32,4.32,0,0,1-1-3V185a4.18,4.18,0,0,1,1-3,4.29,4.29,0,0,1,5.58,0,4.22,4.22,0,0,1,1,3v17.15a4.4,4.4,0,0,1-1,3A3.58,3.58,0,0,1,308.18,206.25Z"/><path class="e" d="M321.58,206.25a3.43,3.43,0,0,1-3.75-3.8V184.7a3.82,3.82,0,0,1,1-2.82,3.74,3.74,0,0,1,2.77-1,3.59,3.59,0,0,1,2.7,1,3.85,3.85,0,0,1,1,2.82v2.85l-.55-1.6a8.07,8.07,0,0,1,3.4-3.82,10.18,10.18,0,0,1,5.15-1.33,9.4,9.4,0,0,1,4.88,1.13,6.9,6.9,0,0,1,2.82,3.42,15.2,15.2,0,0,1,.95,5.8v11.3a3.86,3.86,0,0,1-.95,2.83,3.72,3.72,0,0,1-2.8,1,3.85,3.85,0,0,1-2.77-1,3.7,3.7,0,0,1-1-2.83v-11a5.76,5.76,0,0,0-.92-3.67,3.39,3.39,0,0,0-2.78-1.13,5,5,0,0,0-3.82,1.5,5.58,5.58,0,0,0-1.43,4v10.3C325.38,205,324.12,206.25,321.58,206.25Z"/><path class="e" d="M359.38,215.35a30.84,30.84,0,0,1-5.17-.42,16.81,16.81,0,0,1-4.38-1.33,3.05,3.05,0,0,1-1.62-1.27,2.81,2.81,0,0,1-.38-1.73,3.51,3.51,0,0,1,.58-1.6,2.45,2.45,0,0,1,1.3-1,2.35,2.35,0,0,1,1.72.12,16.05,16.05,0,0,0,4.08,1.3,20.8,20.8,0,0,0,3.22.3,6.91,6.91,0,0,0,4.8-1.45,5.69,5.69,0,0,0,1.6-4.45V200h.45a6.87,6.87,0,0,1-3.1,3.8,9.72,9.72,0,0,1-5.2,1.4,10.64,10.64,0,0,1-5.75-1.52,10.26,10.26,0,0,1-3.8-4.25,14.34,14.34,0,0,1-1.35-6.43,15.2,15.2,0,0,1,.78-5,11.11,11.11,0,0,1,2.2-3.85,9.75,9.75,0,0,1,3.45-2.47,11.21,11.21,0,0,1,4.47-.88,9.66,9.66,0,0,1,5.23,1.43,6.6,6.6,0,0,1,3,3.67l-.45,1.7v-2.9a3.44,3.44,0,0,1,3.75-3.8,3.66,3.66,0,0,1,2.75,1,3.85,3.85,0,0,1,1,2.82V203q0,6.21-3.35,9.3T359.38,215.35Zm.15-15.75a5.14,5.14,0,0,0,4.85-3.07,8.11,8.11,0,0,0,.7-3.53,7.12,7.12,0,0,0-1.5-4.82,5.1,5.1,0,0,0-4.05-1.73,5,5,0,0,0-4.87,3.05A8.28,8.28,0,0,0,354,193a7.23,7.23,0,0,0,1.5,4.83A5,5,0,0,0,359.53,199.6Z"/><path class="e" d="M165.76,266.35a31.85,31.85,0,0,1-4.3-.3,25.51,25.51,0,0,1-4.13-.9,16.88,16.88,0,0,1-3.47-1.5,3.39,3.39,0,0,1-1.6-1.57,3.43,3.43,0,0,1-.3-2,4,4,0,0,1,.72-1.77,2.61,2.61,0,0,1,1.58-1,3.11,3.11,0,0,1,2.15.37,18.07,18.07,0,0,0,4.52,1.65,21.63,21.63,0,0,0,4.83.55c2.4,0,4.13-.36,5.2-1.1a3.27,3.27,0,0,0,1.6-2.8,2.71,2.71,0,0,0-1.13-2.32,10.36,10.36,0,0,0-3.87-1.38l-5.65-1.2c-3.2-.7-5.57-1.85-7.1-3.47a8.9,8.9,0,0,1-2.3-6.38,10.22,10.22,0,0,1,1-4.57,10.33,10.33,0,0,1,2.9-3.55,13.36,13.36,0,0,1,4.53-2.25,20.7,20.7,0,0,1,5.85-.78,23.4,23.4,0,0,1,5.45.65,16.67,16.67,0,0,1,4.8,1.95,3.26,3.26,0,0,1,1.32,1.5,3.55,3.55,0,0,1,.25,1.88,2.87,2.87,0,0,1-2.32,2.52,3.59,3.59,0,0,1-2.3-.45,12.94,12.94,0,0,0-3.48-1.22,19.41,19.41,0,0,0-3.82-.38,10.48,10.48,0,0,0-3.58.55,4.89,4.89,0,0,0-2.22,1.53,3.69,3.69,0,0,0-.75,2.32,2.92,2.92,0,0,0,1,2.3,8.25,8.25,0,0,0,3.63,1.45l5.6,1.2a14.94,14.94,0,0,1,7.37,3.38,8.08,8.08,0,0,1,2.43,6.12,9.69,9.69,0,0,1-1.05,4.53,10.2,10.2,0,0,1-2.93,3.45,13.9,13.9,0,0,1-4.5,2.2A21,21,0,0,1,165.76,266.35Z"/><path class="e" d="M196.26,266.35a13.24,13.24,0,0,1-5.78-1.12,7.18,7.18,0,0,1-3.42-3.33,12.38,12.38,0,0,1-1.1-5.55V246.9h-2.2a3,3,0,0,1-2.13-.72,2.73,2.73,0,0,1-.77-2.08,2.65,2.65,0,0,1,.77-2,3.1,3.1,0,0,1,2.13-.7H186V237.5a3.37,3.37,0,0,1,3.75-3.8,3.89,3.89,0,0,1,2.82,1,3.83,3.83,0,0,1,1,2.85v3.85h4.65a3.14,3.14,0,0,1,2.2.7,2.67,2.67,0,0,1,.75,2,2.76,2.76,0,0,1-.75,2.08,3.05,3.05,0,0,1-2.2.72h-4.65v9.15a4.49,4.49,0,0,0,1,3.13,4.07,4.07,0,0,0,3.1,1,6.51,6.51,0,0,0,1.42-.15,5.41,5.41,0,0,1,1.13-.15,1.42,1.42,0,0,1,1.17.43,3.08,3.08,0,0,1,.48,2.07,5.55,5.55,0,0,1-.38,2.15A2.18,2.18,0,0,1,200,265.8a12.36,12.36,0,0,1-1.8.38A12.57,12.57,0,0,1,196.26,266.35Z"/><path class="e" d="M208.31,266.25a4,4,0,0,1-2.9-1,3.76,3.76,0,0,1-1-2.83V244.7a3.82,3.82,0,0,1,1-2.82,3.77,3.77,0,0,1,2.78-1,3.59,3.59,0,0,1,2.7,1,3.89,3.89,0,0,1,.95,2.82v2.6h-.5a7.38,7.38,0,0,1,2.62-4.65,9.4,9.4,0,0,1,5.38-1.85,2.19,2.19,0,0,1,1.87.63,3.87,3.87,0,0,1,.78,2.42,3.06,3.06,0,0,1-3.1,3.5l-1.15.1a6.59,6.59,0,0,0-4.23,1.65,5.59,5.59,0,0,0-1.37,4.05v9.3a3.9,3.9,0,0,1-1,2.83A3.8,3.8,0,0,1,208.31,266.25Z"/><path class="e" d="M233.11,266.35a11.08,11.08,0,0,1-4.9-1,8.25,8.25,0,0,1-3.3-2.8,7.1,7.1,0,0,1-1.2-4.08,6.13,6.13,0,0,1,1.4-4.25,8.46,8.46,0,0,1,4.52-2.25,40.11,40.11,0,0,1,8.33-.7h2.65v3.9H238a24.74,24.74,0,0,0-4.13.28,4.25,4.25,0,0,0-2.22.95,2.34,2.34,0,0,0-.7,1.77,2.93,2.93,0,0,0,1,2.25,4,4,0,0,0,2.78.9,5.12,5.12,0,0,0,2.6-.65,4.58,4.58,0,0,0,1.8-1.8,5.51,5.51,0,0,0,.65-2.75v-5.7a4.1,4.1,0,0,0-1-3.12,5.05,5.05,0,0,0-3.45-.93,15.5,15.5,0,0,0-2.88.3,17.78,17.78,0,0,0-3.47,1.1,3,3,0,0,1-2,.2,2.17,2.17,0,0,1-1.27-1,3,3,0,0,1-.45-1.63,3.2,3.2,0,0,1,.5-1.7,3.06,3.06,0,0,1,1.7-1.2,23.48,23.48,0,0,1,4.37-1.27,21.57,21.57,0,0,1,3.78-.38,15.66,15.66,0,0,1,6.37,1.13,7.52,7.52,0,0,1,3.75,3.47,12.78,12.78,0,0,1,1.23,5.95v11.1a3.94,3.94,0,0,1-.93,2.83,3.35,3.35,0,0,1-2.57,1,3.46,3.46,0,0,1-2.63-1,4,4,0,0,1-.92-2.83V260.6l.35.35A6.2,6.2,0,0,1,239,263.8a6.65,6.65,0,0,1-2.45,1.88A8.12,8.12,0,0,1,233.11,266.35Z"/><path class="e" d="M264.66,266.35a13.24,13.24,0,0,1-5.78-1.12,7.18,7.18,0,0,1-3.42-3.33,12.38,12.38,0,0,1-1.1-5.55V246.9h-2.2a3,3,0,0,1-2.13-.72,2.73,2.73,0,0,1-.77-2.08,2.65,2.65,0,0,1,.77-2,3.1,3.1,0,0,1,2.13-.7h2.2V237.5a3.37,3.37,0,0,1,3.75-3.8,3.89,3.89,0,0,1,2.82,1,3.83,3.83,0,0,1,1,2.85v3.85h4.65a3.14,3.14,0,0,1,2.2.7,2.67,2.67,0,0,1,.75,2,2.76,2.76,0,0,1-.75,2.08,3.05,3.05,0,0,1-2.2.72h-4.65v9.15a4.49,4.49,0,0,0,.95,3.13,4.07,4.07,0,0,0,3.1,1,6.51,6.51,0,0,0,1.42-.15,5.41,5.41,0,0,1,1.13-.15,1.42,1.42,0,0,1,1.17.43,3.08,3.08,0,0,1,.48,2.07,5.55,5.55,0,0,1-.38,2.15,2.18,2.18,0,0,1-1.42,1.25,12.36,12.36,0,0,1-1.8.38A12.57,12.57,0,0,1,264.66,266.35Z"/><path class="e" d="M285.31,266.35a16.62,16.62,0,0,1-7.48-1.55,11.12,11.12,0,0,1-4.8-4.42,13.4,13.4,0,0,1-1.67-6.83,13.07,13.07,0,0,1,1.62-6.62,12.11,12.11,0,0,1,4.48-4.48,13.63,13.63,0,0,1,11.32-.77,10.64,10.64,0,0,1,3.68,2.5,10.76,10.76,0,0,1,2.35,3.95,15.89,15.89,0,0,1,.8,5.17,1.71,1.71,0,0,1-.6,1.43,2.76,2.76,0,0,1-1.75.47H277.61v-3.9h12.55l-.8.7a8.59,8.59,0,0,0-.6-3.42,4.59,4.59,0,0,0-1.73-2.1,5,5,0,0,0-2.77-.73,5.65,5.65,0,0,0-3.15.85,5.41,5.41,0,0,0-2,2.48,9.66,9.66,0,0,0-.7,3.87v.4c0,2.54.58,4.4,1.75,5.6s2.93,1.8,5.3,1.8a14.18,14.18,0,0,0,2.72-.3,12.55,12.55,0,0,0,2.93-.95,3.29,3.29,0,0,1,2.05-.35,2.49,2.49,0,0,1,1.95,2.3,3.18,3.18,0,0,1-.38,1.68,3.31,3.31,0,0,1-1.42,1.37,12.7,12.7,0,0,1-3.9,1.43A21.45,21.45,0,0,1,285.31,266.35Z"/><path class="e" d="M311.81,275.35a31,31,0,0,1-5.18-.42,16.62,16.62,0,0,1-4.37-1.33,3.08,3.08,0,0,1-1.63-1.27,2.8,2.8,0,0,1-.37-1.73,3.61,3.61,0,0,1,.57-1.6,2.49,2.49,0,0,1,1.3-1,2.38,2.38,0,0,1,1.73.12,16,16,0,0,0,4.07,1.3,20.91,20.91,0,0,0,3.23.3,6.94,6.94,0,0,0,4.8-1.45,5.73,5.73,0,0,0,1.6-4.45V260H318a7,7,0,0,1-3.1,3.8,9.77,9.77,0,0,1-5.2,1.4,10.62,10.62,0,0,1-5.75-1.52,10.26,10.26,0,0,1-3.8-4.25,14.34,14.34,0,0,1-1.35-6.43,15.47,15.47,0,0,1,.77-5,11.27,11.27,0,0,1,2.2-3.85,9.75,9.75,0,0,1,3.45-2.47,11.26,11.26,0,0,1,4.48-.88,9.62,9.62,0,0,1,5.22,1.43,6.62,6.62,0,0,1,3,3.67l-.45,1.7v-2.9a3.44,3.44,0,0,1,3.75-3.8,3.66,3.66,0,0,1,2.75,1,3.89,3.89,0,0,1,1,2.82V263q0,6.21-3.35,9.3T311.81,275.35ZM312,259.6a5.22,5.22,0,0,0,2.9-.8,5.37,5.37,0,0,0,1.95-2.27,8.26,8.26,0,0,0,.7-3.53,7.12,7.12,0,0,0-1.5-4.82,5.1,5.1,0,0,0-4.05-1.73,5,5,0,0,0-4.88,3.05,8.28,8.28,0,0,0-.67,3.5,7.23,7.23,0,0,0,1.5,4.83A5,5,0,0,0,312,259.6Z"/><path class="e" d="M334.51,236.85a4.5,4.5,0,0,1-3.15-1,3.61,3.61,0,0,1-1.1-2.85,3.48,3.48,0,0,1,1.1-2.77,4.59,4.59,0,0,1,3.15-1,4.77,4.77,0,0,1,3.22,1,3.47,3.47,0,0,1,1.13,2.77,3.6,3.6,0,0,1-1.13,2.85A4.67,4.67,0,0,1,334.51,236.85Zm0,29.4a3.54,3.54,0,0,1-2.75-1.07,4.28,4.28,0,0,1-1-3V245a4.14,4.14,0,0,1,1-3,3.66,3.66,0,0,1,2.75-1,3.72,3.72,0,0,1,2.82,1,4.22,4.22,0,0,1,1,3v17.15a4.45,4.45,0,0,1-.95,3A3.61,3.61,0,0,1,334.51,266.25Z"/><path class="e" d="M356.91,266.35a16.62,16.62,0,0,1-7.48-1.55,11.12,11.12,0,0,1-4.8-4.42,13.4,13.4,0,0,1-1.67-6.83,13.07,13.07,0,0,1,1.62-6.62,12.11,12.11,0,0,1,4.48-4.48,13.63,13.63,0,0,1,11.32-.77,10.64,10.64,0,0,1,3.68,2.5,10.76,10.76,0,0,1,2.35,3.95,15.89,15.89,0,0,1,.8,5.17,1.71,1.71,0,0,1-.6,1.43,2.76,2.76,0,0,1-1.75.47H349.21v-3.9h12.55l-.8.7a8.59,8.59,0,0,0-.6-3.42,4.59,4.59,0,0,0-1.73-2.1,5,5,0,0,0-2.77-.73,5.65,5.65,0,0,0-3.15.85,5.41,5.41,0,0,0-2,2.48A9.66,9.66,0,0,0,350,253v.4c0,2.54.58,4.4,1.75,5.6s2.93,1.8,5.3,1.8a14.18,14.18,0,0,0,2.72-.3,12.55,12.55,0,0,0,2.93-.95,3.29,3.29,0,0,1,2.05-.35,2.49,2.49,0,0,1,1.95,2.3,3.18,3.18,0,0,1-.38,1.68,3.31,3.31,0,0,1-1.42,1.37,12.7,12.7,0,0,1-3.9,1.43A21.45,21.45,0,0,1,356.91,266.35Z"/><path class="e" d="M381,266.35a28.42,28.42,0,0,1-4.5-.37,13.71,13.71,0,0,1-4.2-1.33,3.15,3.15,0,0,1-1.48-1.27,2.88,2.88,0,0,1-.37-1.6,2.63,2.63,0,0,1,.52-1.45,2.37,2.37,0,0,1,1.25-.85,2.6,2.6,0,0,1,1.73.17,20,20,0,0,0,3.77,1.2,16.26,16.26,0,0,0,3.33.35,5.45,5.45,0,0,0,3.1-.7,2.11,2.11,0,0,0,1-1.8,1.66,1.66,0,0,0-.65-1.42,4.92,4.92,0,0,0-1.9-.73l-5.3-1a8.79,8.79,0,0,1-4.73-2.3,6,6,0,0,1-1.67-4.4,6.83,6.83,0,0,1,1.4-4.35,8.86,8.86,0,0,1,3.87-2.77,15.28,15.28,0,0,1,5.63-1,20.21,20.21,0,0,1,4.12.4,14.48,14.48,0,0,1,3.68,1.35,2.48,2.48,0,0,1,1.27,1.15,2.4,2.4,0,0,1,.23,1.55,3.31,3.31,0,0,1-.63,1.43,2.3,2.3,0,0,1-1.25.85,2.71,2.71,0,0,1-1.82-.23,21.92,21.92,0,0,0-3-1A10.62,10.62,0,0,0,382,246a6.14,6.14,0,0,0-3.33.7,2.11,2.11,0,0,0-1,1.8,1.89,1.89,0,0,0,.6,1.43,3.34,3.34,0,0,0,1.8.77l5.3.9a9.51,9.51,0,0,1,4.9,2.23,5.77,5.77,0,0,1,1.7,4.37,7,7,0,0,1-3,6A13.32,13.32,0,0,1,381,266.35Z"/></svg>