<svg xmlns="http://www.w3.org/2000/svg" viewBox="0 0 512 452.12"><defs><style>.cls-1{fill:#ce852e;}.cls-2{fill:#595959;}.cls-3{fill:#bc782e;}.cls-4{font-size:50px;fill:#fff;font-family:ArialRoundedMTBold, Arial Rounded MT Bold;}.cls-5{letter-spacing:-0.02em;}.cls-6{fill:#821717;}</style></defs><g id="Layer_16" data-name="Layer 16"><path class="cls-1" d="M127.94,101.9c12.71-1.94,18.88-16.29,11.73-27.48-2.92-4.57-6.85-7.17-11.87-7.18-2.89,0-5.78-.13-8.67-.21,7.19-10.73,23.14-11.87,32.22-.57,8.65,10.78,8,28-1.78,38-8.41,8.63-23.21,7.86-29.4-1.76C122.77,101.75,125.48,103.07,127.94,101.9Z"/><path class="cls-1" d="M127.94,310.38c10.87-1.55,16.94-11.38,14-22.68-1.73-6.68-7.14-11.63-13.12-11.92-3.23-.16-6.47-.18-9.7-.26,7.19-10.74,23.14-11.88,32.22-.57,8.65,10.78,8,28-1.78,38-8.41,8.63-23.22,7.85-29.39-1.77C122.77,310.23,125.48,311.57,127.94,310.38Z"/><path class="cls-1" d="M125.27,206.27C138,204.33,144.15,190,137,178.79c-2.92-4.58-6.85-7.17-11.87-7.19-2.89,0-5.78-.13-8.67-.2,7.19-10.74,23.14-11.88,32.22-.57,8.65,10.78,8,28-1.78,38-8.41,8.63-23.21,7.85-29.4-1.76C120.1,206.12,122.81,207.44,125.27,206.27Z"/></g><g id="Layer_9" data-name="Layer 9"><path class="cls-2" d="M123.81,391.69c-6.66.06-13.32.08-20,.19a23.4,23.4,0,0,0-15.94,5.95c-1.8,1.63-2,2.89-.08,4.63a23.39,23.39,0,0,0,15.4,6.07c1.42.06,2.85,0,4.28,0q148.87,0,297.74.05c11.22,0,19.25-3.39,23.18-12.54,1.58,15.62,2.05,22.87-14.66,29.08H98.06c-7.39-2.71-13.32-6.61-14.76-13.51-.63-3-.42-6.2-.42-9.3q0-178.81,0-357.63c0-8.92,5.86-14.27,15.23-17.73h25.75Z"/><path class="cls-1" d="M123.81,27h289c12.11,3.33,16.37,10.31,16.35,20.53q-.33,162.33,0,324.65c0,10.77-8.05,19.6-24.13,19.54-92-.34-184-.16-276-.17-1.74,0-3.48-.11-5.23-.17Q123.82,209.16,123.81,27Z"/><path class="cls-3" d="M428.06,43c0,9.07-.24,219.27,0,328.91,0,10.91-8.05,19.86-24.13,19.8-92-.34-184-.17-276-.18-1.74,0-5.22-.16-5.22-.16S428.07,33.91,428.06,43Z"/><text class="cls-4" transform="translate(182.79 149.01)">Cou<tspan class="cls-5" x="97.41" y="0">r</tspan><tspan x="118.07" y="0">se</tspan><tspan x="68.44" y="60">&amp;</tspan><tspan x="37.72" y="120">Unit </tspan><tspan x="3.03" y="180">Design</tspan></text><polygon class="cls-6" points="356.22 26.97 356.22 95.29 379.16 75.65 402.1 95.47 402.1 26.97 356.22 26.97"/></g></svg>