<svg xmlns="http://www.w3.org/2000/svg" xmlns:xlink="http://www.w3.org/1999/xlink" viewBox="0 0 512 452.12"><defs><style>.cls-1{fill:none;}.cls-2{fill:#008cba;}.cls-3{clip-path:url(#clip-path);}.cls-4{fill:#f0f1f1;}.cls-5{clip-path:url(#clip-path-2);}.cls-6{fill:#fff;}.cls-7{fill:#3e3e3f;}.cls-8{fill:#5b5c5f;}.cls-9{clip-path:url(#clip-path-5);}.cls-10{fill:#e2e4e5;}.cls-11{fill:#ffa939;}</style><clipPath id="clip-path"><rect class="cls-1" x="62.24" y="35.48" width="387.52" height="387.52"/></clipPath><clipPath id="clip-path-2"><rect class="cls-1" x="62.24" y="33.68" width="387.52" height="387.52"/></clipPath><clipPath id="clip-path-5"><polygon class="cls-1" points="62.24 33.67 435.61 53.44 449.76 421.19 62.24 421.19 62.24 33.67"/></clipPath></defs><g id="Layer_29" data-name="Layer 29"><rect class="cls-2" x="63.48" y="26.97" width="385.04" height="396.21" rx="33.19"/><g class="cls-3"><path class="cls-4" d="M340.55,229.23a14.09,14.09,0,0,0-14.09-14.09H185.54a14.09,14.09,0,0,0-14.09,14.09v91.6h169.1Z"/></g><g class="cls-5"><path class="cls-6" d="M143.27,319v7a48.07,48.07,0,0,0,34,14.09H334.72a48.11,48.11,0,0,0,34-14.09v-7Z"/></g><g class="cls-5"><rect class="cls-7" x="185.54" y="227.43" width="140.91" height="91.59"/></g><g class="cls-5"><polygon class="cls-8" points="185.54 318.75 276.86 227.43 185.54 227.43 185.54 318.75"/></g><g class="cls-9"><rect class="cls-10" x="238.39" y="319.03" width="35.23" height="7.05"/></g><path class="cls-11" d="M225.76,177.19a6.49,6.49,0,0,0,6.49,6.48h38.88l19.44,19.44V183.67h6.48a6.48,6.48,0,0,0,6.48-6.48V125.34a6.48,6.48,0,0,0-6.48-6.48h-64.8a6.49,6.49,0,0,0-6.49,6.48Z"/><path class="cls-4" d="M277.61,164.23a6.48,6.48,0,0,1-6.48,6.48H232.25L212.8,190.15V170.71h-6.48a6.48,6.48,0,0,1-6.48-6.48V112.38a6.48,6.48,0,0,1,6.48-6.48h64.81a6.48,6.48,0,0,1,6.48,6.48Z"/><path class="cls-6" d="M276.53,108.81a6.47,6.47,0,0,0-5.4-2.91H206.32a6.48,6.48,0,0,0-6.48,6.48v51.85a6.48,6.48,0,0,0,6.48,6.48h6.48v1.83Z"/></g></svg>